ISO-10303-21;
HEADER;
/* Generated by software containing ST-Developer
 * from STEP Tools, Inc. (www.steptools.com) 
 */

FILE_DESCRIPTION(
/* description */ (''),
/* implementation_level */ '2;1');

FILE_NAME(
/* name */ 'Oberer_Teller.step',
/* time_stamp */ '2025-05-26T15:03:43+02:00',
/* author */ (''),
/* organization */ (''),
/* preprocessor_version */ 'ST-DEVELOPER v20.1',
/* originating_system */ 'Autodesk Translation Framework v14.4.0.0',
/* authorisation */ '');

FILE_SCHEMA (('AUTOMOTIVE_DESIGN { 1 0 10303 214 3 1 1 }'));
ENDSEC;

DATA;
#10=MECHANICAL_DESIGN_GEOMETRIC_PRESENTATION_REPRESENTATION('',(#13),#331);
#11=SHAPE_REPRESENTATION_RELATIONSHIP('SRR','None',#338,#12);
#12=ADVANCED_BREP_SHAPE_REPRESENTATION('',(#14),#330);
#13=STYLED_ITEM('',(#347),#14);
#14=MANIFOLD_SOLID_BREP('K\X\F6rper1',#192);
#15=FACE_BOUND('',#44,.T.);
#16=FACE_BOUND('',#45,.T.);
#17=FACE_BOUND('',#47,.T.);
#18=FACE_BOUND('',#55,.T.);
#19=FACE_BOUND('',#56,.T.);
#20=PLANE('',#211);
#21=PLANE('',#214);
#22=PLANE('',#219);
#23=PLANE('',#220);
#24=PLANE('',#221);
#25=PLANE('',#222);
#26=PLANE('',#223);
#27=CYLINDRICAL_SURFACE('',#209,70.);
#28=CYLINDRICAL_SURFACE('',#215,1.666);
#29=CYLINDRICAL_SURFACE('',#217,1.666);
#30=FACE_OUTER_BOUND('',#41,.T.);
#31=FACE_OUTER_BOUND('',#42,.T.);
#32=FACE_OUTER_BOUND('',#43,.T.);
#33=FACE_OUTER_BOUND('',#46,.T.);
#34=FACE_OUTER_BOUND('',#48,.T.);
#35=FACE_OUTER_BOUND('',#49,.T.);
#36=FACE_OUTER_BOUND('',#50,.T.);
#37=FACE_OUTER_BOUND('',#51,.T.);
#38=FACE_OUTER_BOUND('',#52,.T.);
#39=FACE_OUTER_BOUND('',#53,.T.);
#40=FACE_OUTER_BOUND('',#54,.T.);
#41=EDGE_LOOP('',(#134,#135,#136,#137));
#42=EDGE_LOOP('',(#138,#139,#140,#141));
#43=EDGE_LOOP('',(#142));
#44=EDGE_LOOP('',(#143));
#45=EDGE_LOOP('',(#144));
#46=EDGE_LOOP('',(#145));
#47=EDGE_LOOP('',(#146,#147,#148,#149));
#48=EDGE_LOOP('',(#150,#151,#152,#153));
#49=EDGE_LOOP('',(#154,#155,#156,#157));
#50=EDGE_LOOP('',(#158,#159,#160,#161));
#51=EDGE_LOOP('',(#162,#163,#164,#165));
#52=EDGE_LOOP('',(#166,#167,#168,#169));
#53=EDGE_LOOP('',(#170,#171,#172,#173));
#54=EDGE_LOOP('',(#174,#175,#176,#177));
#55=EDGE_LOOP('',(#178));
#56=EDGE_LOOP('',(#179));
#57=LINE('',#283,#73);
#58=LINE('',#287,#74);
#59=LINE('',#297,#75);
#60=LINE('',#299,#76);
#61=LINE('',#301,#77);
#62=LINE('',#302,#78);
#63=LINE('',#305,#79);
#64=LINE('',#309,#80);
#65=LINE('',#314,#81);
#66=LINE('',#315,#82);
#67=LINE('',#316,#83);
#68=LINE('',#319,#84);
#69=LINE('',#320,#85);
#70=LINE('',#323,#86);
#71=LINE('',#324,#87);
#72=LINE('',#326,#88);
#73=VECTOR('',#230,69.5);
#74=VECTOR('',#235,70.);
#75=VECTOR('',#246,10.);
#76=VECTOR('',#247,10.);
#77=VECTOR('',#248,10.);
#78=VECTOR('',#249,10.);
#79=VECTOR('',#252,1.666);
#80=VECTOR('',#257,1.666);
#81=VECTOR('',#262,10.);
#82=VECTOR('',#263,10.);
#83=VECTOR('',#264,10.);
#84=VECTOR('',#267,10.);
#85=VECTOR('',#268,10.);
#86=VECTOR('',#271,10.);
#87=VECTOR('',#272,10.);
#88=VECTOR('',#275,10.);
#89=CIRCLE('',#207,69.);
#90=CIRCLE('',#208,70.);
#91=CIRCLE('',#210,70.);
#92=CIRCLE('',#212,1.666);
#93=CIRCLE('',#213,1.666);
#94=CIRCLE('',#216,1.666);
#95=CIRCLE('',#218,1.666);
#96=VERTEX_POINT('',#280);
#97=VERTEX_POINT('',#282);
#98=VERTEX_POINT('',#286);
#99=VERTEX_POINT('',#290);
#100=VERTEX_POINT('',#292);
#101=VERTEX_POINT('',#295);
#102=VERTEX_POINT('',#296);
#103=VERTEX_POINT('',#298);
#104=VERTEX_POINT('',#300);
#105=VERTEX_POINT('',#304);
#106=VERTEX_POINT('',#308);
#107=VERTEX_POINT('',#312);
#108=VERTEX_POINT('',#313);
#109=VERTEX_POINT('',#318);
#110=VERTEX_POINT('',#322);
#111=EDGE_CURVE('',#96,#96,#89,.T.);
#112=EDGE_CURVE('',#96,#97,#57,.T.);
#113=EDGE_CURVE('',#97,#97,#90,.T.);
#114=EDGE_CURVE('',#97,#98,#58,.T.);
#115=EDGE_CURVE('',#98,#98,#91,.T.);
#116=EDGE_CURVE('',#99,#99,#92,.T.);
#117=EDGE_CURVE('',#100,#100,#93,.T.);
#118=EDGE_CURVE('',#101,#102,#59,.T.);
#119=EDGE_CURVE('',#102,#103,#60,.T.);
#120=EDGE_CURVE('',#103,#104,#61,.T.);
#121=EDGE_CURVE('',#104,#101,#62,.T.);
#122=EDGE_CURVE('',#99,#105,#63,.T.);
#123=EDGE_CURVE('',#105,#105,#94,.T.);
#124=EDGE_CURVE('',#100,#106,#64,.T.);
#125=EDGE_CURVE('',#106,#106,#95,.T.);
#126=EDGE_CURVE('',#107,#108,#65,.T.);
#127=EDGE_CURVE('',#108,#102,#66,.T.);
#128=EDGE_CURVE('',#107,#101,#67,.T.);
#129=EDGE_CURVE('',#109,#107,#68,.T.);
#130=EDGE_CURVE('',#109,#104,#69,.T.);
#131=EDGE_CURVE('',#110,#109,#70,.T.);
#132=EDGE_CURVE('',#110,#103,#71,.T.);
#133=EDGE_CURVE('',#108,#110,#72,.T.);
#134=ORIENTED_EDGE('',*,*,#111,.T.);
#135=ORIENTED_EDGE('',*,*,#112,.T.);
#136=ORIENTED_EDGE('',*,*,#113,.T.);
#137=ORIENTED_EDGE('',*,*,#112,.F.);
#138=ORIENTED_EDGE('',*,*,#113,.F.);
#139=ORIENTED_EDGE('',*,*,#114,.T.);
#140=ORIENTED_EDGE('',*,*,#115,.T.);
#141=ORIENTED_EDGE('',*,*,#114,.F.);
#142=ORIENTED_EDGE('',*,*,#111,.F.);
#143=ORIENTED_EDGE('',*,*,#116,.T.);
#144=ORIENTED_EDGE('',*,*,#117,.T.);
#145=ORIENTED_EDGE('',*,*,#115,.F.);
#146=ORIENTED_EDGE('',*,*,#118,.T.);
#147=ORIENTED_EDGE('',*,*,#119,.T.);
#148=ORIENTED_EDGE('',*,*,#120,.T.);
#149=ORIENTED_EDGE('',*,*,#121,.T.);
#150=ORIENTED_EDGE('',*,*,#116,.F.);
#151=ORIENTED_EDGE('',*,*,#122,.T.);
#152=ORIENTED_EDGE('',*,*,#123,.T.);
#153=ORIENTED_EDGE('',*,*,#122,.F.);
#154=ORIENTED_EDGE('',*,*,#117,.F.);
#155=ORIENTED_EDGE('',*,*,#124,.T.);
#156=ORIENTED_EDGE('',*,*,#125,.T.);
#157=ORIENTED_EDGE('',*,*,#124,.F.);
#158=ORIENTED_EDGE('',*,*,#126,.T.);
#159=ORIENTED_EDGE('',*,*,#127,.T.);
#160=ORIENTED_EDGE('',*,*,#118,.F.);
#161=ORIENTED_EDGE('',*,*,#128,.F.);
#162=ORIENTED_EDGE('',*,*,#129,.T.);
#163=ORIENTED_EDGE('',*,*,#128,.T.);
#164=ORIENTED_EDGE('',*,*,#121,.F.);
#165=ORIENTED_EDGE('',*,*,#130,.F.);
#166=ORIENTED_EDGE('',*,*,#131,.T.);
#167=ORIENTED_EDGE('',*,*,#130,.T.);
#168=ORIENTED_EDGE('',*,*,#120,.F.);
#169=ORIENTED_EDGE('',*,*,#132,.F.);
#170=ORIENTED_EDGE('',*,*,#133,.T.);
#171=ORIENTED_EDGE('',*,*,#132,.T.);
#172=ORIENTED_EDGE('',*,*,#119,.F.);
#173=ORIENTED_EDGE('',*,*,#127,.F.);
#174=ORIENTED_EDGE('',*,*,#133,.F.);
#175=ORIENTED_EDGE('',*,*,#126,.F.);
#176=ORIENTED_EDGE('',*,*,#129,.F.);
#177=ORIENTED_EDGE('',*,*,#131,.F.);
#178=ORIENTED_EDGE('',*,*,#125,.F.);
#179=ORIENTED_EDGE('',*,*,#123,.F.);
#180=CONICAL_SURFACE('',#206,69.5,0.785398163397446);
#181=ADVANCED_FACE('',(#30),#180,.T.);
#182=ADVANCED_FACE('',(#31),#27,.T.);
#183=ADVANCED_FACE('',(#32,#15,#16),#20,.T.);
#184=ADVANCED_FACE('',(#33,#17),#21,.F.);
#185=ADVANCED_FACE('',(#34),#28,.F.);
#186=ADVANCED_FACE('',(#35),#29,.F.);
#187=ADVANCED_FACE('',(#36),#22,.T.);
#188=ADVANCED_FACE('',(#37),#23,.T.);
#189=ADVANCED_FACE('',(#38),#24,.T.);
#190=ADVANCED_FACE('',(#39),#25,.T.);
#191=ADVANCED_FACE('',(#40,#18,#19),#26,.F.);
#192=CLOSED_SHELL('',(#181,#182,#183,#184,#185,#186,#187,#188,#189,#190,
#191));
#193=DERIVED_UNIT_ELEMENT(#195,1.);
#194=DERIVED_UNIT_ELEMENT(#333,-3.);
#195=(
MASS_UNIT()
NAMED_UNIT(*)
SI_UNIT(.KILO.,.GRAM.)
);
#196=DERIVED_UNIT((#193,#194));
#197=MEASURE_REPRESENTATION_ITEM('density measure',
POSITIVE_RATIO_MEASURE(7850.),#196);
#198=PROPERTY_DEFINITION_REPRESENTATION(#203,#200);
#199=PROPERTY_DEFINITION_REPRESENTATION(#204,#201);
#200=REPRESENTATION('material name',(#202),#330);
#201=REPRESENTATION('density',(#197),#330);
#202=DESCRIPTIVE_REPRESENTATION_ITEM('Stahl','Stahl');
#203=PROPERTY_DEFINITION('material property','material name',#340);
#204=PROPERTY_DEFINITION('material property','density of part',#340);
#205=AXIS2_PLACEMENT_3D('',#278,#224,#225);
#206=AXIS2_PLACEMENT_3D('',#279,#226,#227);
#207=AXIS2_PLACEMENT_3D('',#281,#228,#229);
#208=AXIS2_PLACEMENT_3D('',#284,#231,#232);
#209=AXIS2_PLACEMENT_3D('',#285,#233,#234);
#210=AXIS2_PLACEMENT_3D('',#288,#236,#237);
#211=AXIS2_PLACEMENT_3D('',#289,#238,#239);
#212=AXIS2_PLACEMENT_3D('',#291,#240,#241);
#213=AXIS2_PLACEMENT_3D('',#293,#242,#243);
#214=AXIS2_PLACEMENT_3D('',#294,#244,#245);
#215=AXIS2_PLACEMENT_3D('',#303,#250,#251);
#216=AXIS2_PLACEMENT_3D('',#306,#253,#254);
#217=AXIS2_PLACEMENT_3D('',#307,#255,#256);
#218=AXIS2_PLACEMENT_3D('',#310,#258,#259);
#219=AXIS2_PLACEMENT_3D('',#311,#260,#261);
#220=AXIS2_PLACEMENT_3D('',#317,#265,#266);
#221=AXIS2_PLACEMENT_3D('',#321,#269,#270);
#222=AXIS2_PLACEMENT_3D('',#325,#273,#274);
#223=AXIS2_PLACEMENT_3D('',#327,#276,#277);
#224=DIRECTION('axis',(0.,0.,1.));
#225=DIRECTION('refdir',(1.,0.,0.));
#226=DIRECTION('center_axis',(0.,0.,-1.));
#227=DIRECTION('ref_axis',(-1.,0.,0.));
#228=DIRECTION('center_axis',(0.,0.,-1.));
#229=DIRECTION('ref_axis',(-1.,0.,0.));
#230=DIRECTION('',(0.707106781186546,8.65956056235492E-17,-0.707106781186549));
#231=DIRECTION('center_axis',(0.,0.,1.));
#232=DIRECTION('ref_axis',(-1.,0.,0.));
#233=DIRECTION('center_axis',(0.,0.,1.));
#234=DIRECTION('ref_axis',(-1.,0.,0.));
#235=DIRECTION('',(0.,0.,-1.));
#236=DIRECTION('center_axis',(0.,0.,1.));
#237=DIRECTION('ref_axis',(-1.,0.,0.));
#238=DIRECTION('center_axis',(0.,0.,1.));
#239=DIRECTION('ref_axis',(-1.,0.,0.));
#240=DIRECTION('center_axis',(0.,0.,-1.));
#241=DIRECTION('ref_axis',(-1.,0.,0.));
#242=DIRECTION('center_axis',(0.,0.,-1.));
#243=DIRECTION('ref_axis',(-1.,0.,0.));
#244=DIRECTION('center_axis',(0.,0.,1.));
#245=DIRECTION('ref_axis',(-1.,0.,0.));
#246=DIRECTION('',(-1.,0.,0.));
#247=DIRECTION('',(0.,-1.,0.));
#248=DIRECTION('',(1.,0.,0.));
#249=DIRECTION('',(0.,1.,0.));
#250=DIRECTION('center_axis',(0.,0.,1.));
#251=DIRECTION('ref_axis',(-1.,0.,0.));
#252=DIRECTION('',(0.,0.,-1.));
#253=DIRECTION('center_axis',(0.,0.,-1.));
#254=DIRECTION('ref_axis',(-1.,0.,0.));
#255=DIRECTION('center_axis',(0.,0.,1.));
#256=DIRECTION('ref_axis',(-1.,0.,0.));
#257=DIRECTION('',(0.,0.,-1.));
#258=DIRECTION('center_axis',(0.,0.,-1.));
#259=DIRECTION('ref_axis',(-1.,0.,0.));
#260=DIRECTION('center_axis',(0.,1.,0.));
#261=DIRECTION('ref_axis',(-1.,0.,0.));
#262=DIRECTION('',(-1.,0.,0.));
#263=DIRECTION('',(0.,0.,1.));
#264=DIRECTION('',(0.,0.,1.));
#265=DIRECTION('center_axis',(1.,0.,0.));
#266=DIRECTION('ref_axis',(0.,1.,0.));
#267=DIRECTION('',(0.,1.,0.));
#268=DIRECTION('',(0.,0.,1.));
#269=DIRECTION('center_axis',(0.,-1.,0.));
#270=DIRECTION('ref_axis',(1.,0.,0.));
#271=DIRECTION('',(1.,0.,0.));
#272=DIRECTION('',(0.,0.,1.));
#273=DIRECTION('center_axis',(-1.,0.,0.));
#274=DIRECTION('ref_axis',(0.,-1.,0.));
#275=DIRECTION('',(0.,-1.,0.));
#276=DIRECTION('center_axis',(0.,0.,1.));
#277=DIRECTION('ref_axis',(-1.,0.,0.));
#278=CARTESIAN_POINT('',(0.,0.,0.));
#279=CARTESIAN_POINT('Origin',(26.9940599013689,0.,22.2));
#280=CARTESIAN_POINT('',(95.9940599013689,-8.45006291411674E-15,22.7));
#281=CARTESIAN_POINT('Origin',(26.9940599013689,0.,22.7));
#282=CARTESIAN_POINT('',(96.9940599013689,8.57252759403147E-15,21.7));
#283=CARTESIAN_POINT('',(96.4940599013689,8.51129525407411E-15,22.2));
#284=CARTESIAN_POINT('Origin',(26.9940599013689,0.,21.7));
#285=CARTESIAN_POINT('Origin',(26.9940599013689,0.,17.7));
#286=CARTESIAN_POINT('',(96.9940599013689,8.57252759403147E-15,17.7));
#287=CARTESIAN_POINT('',(96.9940599013689,8.57252759403147E-15,17.7));
#288=CARTESIAN_POINT('Origin',(26.9940599013689,0.,17.7));
#289=CARTESIAN_POINT('Origin',(26.9940599013689,0.,22.7));
#290=CARTESIAN_POINT('',(-20.334,2.04026156737949E-16,22.7));
#291=CARTESIAN_POINT('Origin',(-22.,0.,22.7));
#292=CARTESIAN_POINT('',(-30.334,2.04026156737949E-16,22.7));
#293=CARTESIAN_POINT('Origin',(-32.,0.,22.7));
#294=CARTESIAN_POINT('Origin',(26.9940599013689,0.,17.7));
#295=CARTESIAN_POINT('',(-16.473486018978,5.85,17.7));
#296=CARTESIAN_POINT('',(-37.,5.85,17.7));
#297=CARTESIAN_POINT('',(-16.473486018978,5.85,17.7));
#298=CARTESIAN_POINT('',(-37.,-5.85,17.7));
#299=CARTESIAN_POINT('',(-37.,5.85,17.7));
#300=CARTESIAN_POINT('',(-16.473486018978,-5.85,17.7));
#301=CARTESIAN_POINT('',(-37.,-5.85,17.7));
#302=CARTESIAN_POINT('',(-16.473486018978,-5.85,17.7));
#303=CARTESIAN_POINT('Origin',(-22.,0.,12.7));
#304=CARTESIAN_POINT('',(-20.334,2.04026156737949E-16,12.7));
#305=CARTESIAN_POINT('',(-20.334,2.04026156737949E-16,12.7));
#306=CARTESIAN_POINT('Origin',(-22.,0.,12.7));
#307=CARTESIAN_POINT('Origin',(-32.,0.,12.7));
#308=CARTESIAN_POINT('',(-30.334,2.04026156737949E-16,12.7));
#309=CARTESIAN_POINT('',(-30.334,2.04026156737949E-16,12.7));
#310=CARTESIAN_POINT('Origin',(-32.,0.,12.7));
#311=CARTESIAN_POINT('Origin',(-16.473486018978,5.85,12.7));
#312=CARTESIAN_POINT('',(-16.473486018978,5.85,12.7));
#313=CARTESIAN_POINT('',(-37.,5.85,12.7));
#314=CARTESIAN_POINT('',(-16.473486018978,5.85,12.7));
#315=CARTESIAN_POINT('',(-37.,5.85,12.7));
#316=CARTESIAN_POINT('',(-16.473486018978,5.85,12.7));
#317=CARTESIAN_POINT('Origin',(-16.473486018978,-5.85,12.7));
#318=CARTESIAN_POINT('',(-16.473486018978,-5.85,12.7));
#319=CARTESIAN_POINT('',(-16.473486018978,-5.85,12.7));
#320=CARTESIAN_POINT('',(-16.473486018978,-5.85,12.7));
#321=CARTESIAN_POINT('Origin',(-37.,-5.85,12.7));
#322=CARTESIAN_POINT('',(-37.,-5.85,12.7));
#323=CARTESIAN_POINT('',(-37.,-5.85,12.7));
#324=CARTESIAN_POINT('',(-37.,-5.85,12.7));
#325=CARTESIAN_POINT('Origin',(-37.,5.85,12.7));
#326=CARTESIAN_POINT('',(-37.,5.85,12.7));
#327=CARTESIAN_POINT('Origin',(-26.736743009489,0.,12.7));
#328=UNCERTAINTY_MEASURE_WITH_UNIT(LENGTH_MEASURE(0.01),#332,
'DISTANCE_ACCURACY_VALUE',
'Maximum model space distance between geometric entities at asserted c
onnectivities');
#329=UNCERTAINTY_MEASURE_WITH_UNIT(LENGTH_MEASURE(0.01),#332,
'DISTANCE_ACCURACY_VALUE',
'Maximum model space distance between geometric entities at asserted c
onnectivities');
#330=(
GEOMETRIC_REPRESENTATION_CONTEXT(3)
GLOBAL_UNCERTAINTY_ASSIGNED_CONTEXT((#328))
GLOBAL_UNIT_ASSIGNED_CONTEXT((#332,#334,#335))
REPRESENTATION_CONTEXT('','3D')
);
#331=(
GEOMETRIC_REPRESENTATION_CONTEXT(3)
GLOBAL_UNCERTAINTY_ASSIGNED_CONTEXT((#329))
GLOBAL_UNIT_ASSIGNED_CONTEXT((#332,#334,#335))
REPRESENTATION_CONTEXT('','3D')
);
#332=(
LENGTH_UNIT()
NAMED_UNIT(*)
SI_UNIT(.MILLI.,.METRE.)
);
#333=(
LENGTH_UNIT()
NAMED_UNIT(*)
SI_UNIT($,.METRE.)
);
#334=(
NAMED_UNIT(*)
PLANE_ANGLE_UNIT()
SI_UNIT($,.RADIAN.)
);
#335=(
NAMED_UNIT(*)
SI_UNIT($,.STERADIAN.)
SOLID_ANGLE_UNIT()
);
#336=SHAPE_DEFINITION_REPRESENTATION(#337,#338);
#337=PRODUCT_DEFINITION_SHAPE('',$,#340);
#338=SHAPE_REPRESENTATION('',(#205),#330);
#339=PRODUCT_DEFINITION_CONTEXT('part definition',#344,'design');
#340=PRODUCT_DEFINITION('Fusion-Komponente','Fusion-Komponente',#341,#339);
#341=PRODUCT_DEFINITION_FORMATION('',$,#346);
#342=PRODUCT_RELATED_PRODUCT_CATEGORY('Fusion-Komponente',
'Fusion-Komponente',(#346));
#343=APPLICATION_PROTOCOL_DEFINITION('international standard',
'automotive_design',2009,#344);
#344=APPLICATION_CONTEXT(
'Core Data for Automotive Mechanical Design Process');
#345=PRODUCT_CONTEXT('part definition',#344,'mechanical');
#346=PRODUCT('Fusion-Komponente','Fusion-Komponente',$,(#345));
#347=PRESENTATION_STYLE_ASSIGNMENT((#348));
#348=SURFACE_STYLE_USAGE(.BOTH.,#349);
#349=SURFACE_SIDE_STYLE('',(#350));
#350=SURFACE_STYLE_FILL_AREA(#351);
#351=FILL_AREA_STYLE('Stahl - satiniert',(#352));
#352=FILL_AREA_STYLE_COLOUR('Stahl - satiniert',#353);
#353=COLOUR_RGB('Stahl - satiniert',0.627450980392157,0.627450980392157,
0.627450980392157);
ENDSEC;
END-ISO-10303-21;
