ISO-10303-21;
HEADER;
/* Generated by software containing ST-Developer
 * from STEP Tools, Inc. (www.steptools.com) 
 */

FILE_DESCRIPTION(
/* description */ (''),
/* implementation_level */ '2;1');

FILE_NAME(
/* name */ 'Oberer Teller.step',
/* time_stamp */ '2025-06-11T09:53:52+02:00',
/* author */ (''),
/* organization */ (''),
/* preprocessor_version */ 'ST-DEVELOPER v20.1',
/* originating_system */ 'Autodesk Translation Framework v14.4.0.0',
/* authorisation */ '');

FILE_SCHEMA (('AUTOMOTIVE_DESIGN { 1 0 10303 214 3 1 1 }'));
ENDSEC;

DATA;
#10=MECHANICAL_DESIGN_GEOMETRIC_PRESENTATION_REPRESENTATION('',(#13),#356);
#11=SHAPE_REPRESENTATION_RELATIONSHIP('SRR','None',#363,#12);
#12=ADVANCED_BREP_SHAPE_REPRESENTATION('',(#14),#355);
#13=STYLED_ITEM('',(#373),#14);
#14=MANIFOLD_SOLID_BREP('Oberer Teller',#206);
#15=FACE_BOUND('',#45,.T.);
#16=FACE_BOUND('',#48,.T.);
#17=FACE_BOUND('',#49,.T.);
#18=FACE_BOUND('',#57,.T.);
#19=FACE_BOUND('',#58,.T.);
#20=PLANE('',#225);
#21=PLANE('',#228);
#22=PLANE('',#235);
#23=PLANE('',#236);
#24=PLANE('',#237);
#25=PLANE('',#238);
#26=PLANE('',#239);
#27=CYLINDRICAL_SURFACE('',#223,70.);
#28=CYLINDRICAL_SURFACE('',#231,1.666);
#29=CYLINDRICAL_SURFACE('',#233,1.666);
#30=FACE_OUTER_BOUND('',#42,.T.);
#31=FACE_OUTER_BOUND('',#43,.T.);
#32=FACE_OUTER_BOUND('',#44,.T.);
#33=FACE_OUTER_BOUND('',#46,.T.);
#34=FACE_OUTER_BOUND('',#47,.T.);
#35=FACE_OUTER_BOUND('',#50,.T.);
#36=FACE_OUTER_BOUND('',#51,.T.);
#37=FACE_OUTER_BOUND('',#52,.T.);
#38=FACE_OUTER_BOUND('',#53,.T.);
#39=FACE_OUTER_BOUND('',#54,.T.);
#40=FACE_OUTER_BOUND('',#55,.T.);
#41=FACE_OUTER_BOUND('',#56,.T.);
#42=EDGE_LOOP('',(#142,#143,#144,#145));
#43=EDGE_LOOP('',(#146,#147,#148,#149));
#44=EDGE_LOOP('',(#150));
#45=EDGE_LOOP('',(#151,#152,#153,#154));
#46=EDGE_LOOP('',(#155,#156,#157,#158));
#47=EDGE_LOOP('',(#159));
#48=EDGE_LOOP('',(#160));
#49=EDGE_LOOP('',(#161));
#50=EDGE_LOOP('',(#162,#163,#164,#165));
#51=EDGE_LOOP('',(#166,#167,#168,#169));
#52=EDGE_LOOP('',(#170,#171,#172,#173));
#53=EDGE_LOOP('',(#174,#175,#176,#177));
#54=EDGE_LOOP('',(#178,#179,#180,#181));
#55=EDGE_LOOP('',(#182,#183,#184,#185));
#56=EDGE_LOOP('',(#186,#187,#188,#189));
#57=EDGE_LOOP('',(#190));
#58=EDGE_LOOP('',(#191));
#59=LINE('',#304,#76);
#60=LINE('',#309,#77);
#61=LINE('',#313,#78);
#62=LINE('',#315,#79);
#63=LINE('',#317,#80);
#64=LINE('',#318,#81);
#65=LINE('',#322,#82);
#66=LINE('',#330,#83);
#67=LINE('',#334,#84);
#68=LINE('',#339,#85);
#69=LINE('',#340,#86);
#70=LINE('',#341,#87);
#71=LINE('',#344,#88);
#72=LINE('',#345,#89);
#73=LINE('',#348,#90);
#74=LINE('',#349,#91);
#75=LINE('',#351,#92);
#76=VECTOR('',#246,69.75);
#77=VECTOR('',#253,70.);
#78=VECTOR('',#256,10.);
#79=VECTOR('',#257,10.);
#80=VECTOR('',#258,10.);
#81=VECTOR('',#259,10.);
#82=VECTOR('',#264,69.75);
#83=VECTOR('',#273,1.666);
#84=VECTOR('',#278,1.666);
#85=VECTOR('',#283,10.);
#86=VECTOR('',#284,10.);
#87=VECTOR('',#285,10.);
#88=VECTOR('',#288,10.);
#89=VECTOR('',#289,10.);
#90=VECTOR('',#292,10.);
#91=VECTOR('',#293,10.);
#92=VECTOR('',#296,10.);
#93=CIRCLE('',#221,70.);
#94=CIRCLE('',#222,69.5);
#95=CIRCLE('',#224,70.);
#96=CIRCLE('',#227,69.5);
#97=CIRCLE('',#229,1.666);
#98=CIRCLE('',#230,1.666);
#99=CIRCLE('',#232,1.666);
#100=CIRCLE('',#234,1.666);
#101=VERTEX_POINT('',#301);
#102=VERTEX_POINT('',#303);
#103=VERTEX_POINT('',#307);
#104=VERTEX_POINT('',#311);
#105=VERTEX_POINT('',#312);
#106=VERTEX_POINT('',#314);
#107=VERTEX_POINT('',#316);
#108=VERTEX_POINT('',#320);
#109=VERTEX_POINT('',#324);
#110=VERTEX_POINT('',#326);
#111=VERTEX_POINT('',#329);
#112=VERTEX_POINT('',#333);
#113=VERTEX_POINT('',#337);
#114=VERTEX_POINT('',#338);
#115=VERTEX_POINT('',#343);
#116=VERTEX_POINT('',#347);
#117=EDGE_CURVE('',#101,#101,#93,.T.);
#118=EDGE_CURVE('',#101,#102,#59,.T.);
#119=EDGE_CURVE('',#102,#102,#94,.T.);
#120=EDGE_CURVE('',#103,#103,#95,.T.);
#121=EDGE_CURVE('',#103,#101,#60,.T.);
#122=EDGE_CURVE('',#104,#105,#61,.T.);
#123=EDGE_CURVE('',#105,#106,#62,.T.);
#124=EDGE_CURVE('',#106,#107,#63,.T.);
#125=EDGE_CURVE('',#107,#104,#64,.T.);
#126=EDGE_CURVE('',#108,#108,#96,.T.);
#127=EDGE_CURVE('',#108,#103,#65,.T.);
#128=EDGE_CURVE('',#109,#109,#97,.T.);
#129=EDGE_CURVE('',#110,#110,#98,.T.);
#130=EDGE_CURVE('',#110,#111,#66,.T.);
#131=EDGE_CURVE('',#111,#111,#99,.T.);
#132=EDGE_CURVE('',#109,#112,#67,.T.);
#133=EDGE_CURVE('',#112,#112,#100,.T.);
#134=EDGE_CURVE('',#113,#114,#68,.T.);
#135=EDGE_CURVE('',#114,#105,#69,.T.);
#136=EDGE_CURVE('',#113,#104,#70,.T.);
#137=EDGE_CURVE('',#115,#113,#71,.T.);
#138=EDGE_CURVE('',#115,#107,#72,.T.);
#139=EDGE_CURVE('',#116,#115,#73,.T.);
#140=EDGE_CURVE('',#116,#106,#74,.T.);
#141=EDGE_CURVE('',#114,#116,#75,.T.);
#142=ORIENTED_EDGE('',*,*,#117,.T.);
#143=ORIENTED_EDGE('',*,*,#118,.T.);
#144=ORIENTED_EDGE('',*,*,#119,.T.);
#145=ORIENTED_EDGE('',*,*,#118,.F.);
#146=ORIENTED_EDGE('',*,*,#120,.F.);
#147=ORIENTED_EDGE('',*,*,#121,.T.);
#148=ORIENTED_EDGE('',*,*,#117,.F.);
#149=ORIENTED_EDGE('',*,*,#121,.F.);
#150=ORIENTED_EDGE('',*,*,#119,.F.);
#151=ORIENTED_EDGE('',*,*,#122,.T.);
#152=ORIENTED_EDGE('',*,*,#123,.T.);
#153=ORIENTED_EDGE('',*,*,#124,.T.);
#154=ORIENTED_EDGE('',*,*,#125,.T.);
#155=ORIENTED_EDGE('',*,*,#126,.T.);
#156=ORIENTED_EDGE('',*,*,#127,.T.);
#157=ORIENTED_EDGE('',*,*,#120,.T.);
#158=ORIENTED_EDGE('',*,*,#127,.F.);
#159=ORIENTED_EDGE('',*,*,#126,.F.);
#160=ORIENTED_EDGE('',*,*,#128,.T.);
#161=ORIENTED_EDGE('',*,*,#129,.T.);
#162=ORIENTED_EDGE('',*,*,#129,.F.);
#163=ORIENTED_EDGE('',*,*,#130,.T.);
#164=ORIENTED_EDGE('',*,*,#131,.T.);
#165=ORIENTED_EDGE('',*,*,#130,.F.);
#166=ORIENTED_EDGE('',*,*,#128,.F.);
#167=ORIENTED_EDGE('',*,*,#132,.T.);
#168=ORIENTED_EDGE('',*,*,#133,.T.);
#169=ORIENTED_EDGE('',*,*,#132,.F.);
#170=ORIENTED_EDGE('',*,*,#134,.T.);
#171=ORIENTED_EDGE('',*,*,#135,.T.);
#172=ORIENTED_EDGE('',*,*,#122,.F.);
#173=ORIENTED_EDGE('',*,*,#136,.F.);
#174=ORIENTED_EDGE('',*,*,#137,.T.);
#175=ORIENTED_EDGE('',*,*,#136,.T.);
#176=ORIENTED_EDGE('',*,*,#125,.F.);
#177=ORIENTED_EDGE('',*,*,#138,.F.);
#178=ORIENTED_EDGE('',*,*,#139,.T.);
#179=ORIENTED_EDGE('',*,*,#138,.T.);
#180=ORIENTED_EDGE('',*,*,#124,.F.);
#181=ORIENTED_EDGE('',*,*,#140,.F.);
#182=ORIENTED_EDGE('',*,*,#141,.T.);
#183=ORIENTED_EDGE('',*,*,#140,.T.);
#184=ORIENTED_EDGE('',*,*,#123,.F.);
#185=ORIENTED_EDGE('',*,*,#135,.F.);
#186=ORIENTED_EDGE('',*,*,#141,.F.);
#187=ORIENTED_EDGE('',*,*,#134,.F.);
#188=ORIENTED_EDGE('',*,*,#137,.F.);
#189=ORIENTED_EDGE('',*,*,#139,.F.);
#190=ORIENTED_EDGE('',*,*,#133,.F.);
#191=ORIENTED_EDGE('',*,*,#131,.F.);
#192=CONICAL_SURFACE('',#220,69.75,0.785398163397446);
#193=CONICAL_SURFACE('',#226,69.75,0.785398163397448);
#194=ADVANCED_FACE('',(#30),#192,.T.);
#195=ADVANCED_FACE('',(#31),#27,.T.);
#196=ADVANCED_FACE('',(#32,#15),#20,.F.);
#197=ADVANCED_FACE('',(#33),#193,.T.);
#198=ADVANCED_FACE('',(#34,#16,#17),#21,.T.);
#199=ADVANCED_FACE('',(#35),#28,.F.);
#200=ADVANCED_FACE('',(#36),#29,.F.);
#201=ADVANCED_FACE('',(#37),#22,.T.);
#202=ADVANCED_FACE('',(#38),#23,.T.);
#203=ADVANCED_FACE('',(#39),#24,.T.);
#204=ADVANCED_FACE('',(#40),#25,.T.);
#205=ADVANCED_FACE('',(#41,#18,#19),#26,.F.);
#206=CLOSED_SHELL('',(#194,#195,#196,#197,#198,#199,#200,#201,#202,#203,
#204,#205));
#207=DERIVED_UNIT_ELEMENT(#209,1.);
#208=DERIVED_UNIT_ELEMENT(#358,-3.);
#209=(
MASS_UNIT()
NAMED_UNIT(*)
SI_UNIT(.KILO.,.GRAM.)
);
#210=DERIVED_UNIT((#207,#208));
#211=MEASURE_REPRESENTATION_ITEM('density measure',
POSITIVE_RATIO_MEASURE(7850.),#210);
#212=PROPERTY_DEFINITION_REPRESENTATION(#217,#214);
#213=PROPERTY_DEFINITION_REPRESENTATION(#218,#215);
#214=REPRESENTATION('material name',(#216),#355);
#215=REPRESENTATION('density',(#211),#355);
#216=DESCRIPTIVE_REPRESENTATION_ITEM('Stahl','Stahl');
#217=PROPERTY_DEFINITION('material property','material name',#365);
#218=PROPERTY_DEFINITION('material property','density of part',#365);
#219=AXIS2_PLACEMENT_3D('',#299,#240,#241);
#220=AXIS2_PLACEMENT_3D('',#300,#242,#243);
#221=AXIS2_PLACEMENT_3D('',#302,#244,#245);
#222=AXIS2_PLACEMENT_3D('',#305,#247,#248);
#223=AXIS2_PLACEMENT_3D('',#306,#249,#250);
#224=AXIS2_PLACEMENT_3D('',#308,#251,#252);
#225=AXIS2_PLACEMENT_3D('',#310,#254,#255);
#226=AXIS2_PLACEMENT_3D('',#319,#260,#261);
#227=AXIS2_PLACEMENT_3D('',#321,#262,#263);
#228=AXIS2_PLACEMENT_3D('',#323,#265,#266);
#229=AXIS2_PLACEMENT_3D('',#325,#267,#268);
#230=AXIS2_PLACEMENT_3D('',#327,#269,#270);
#231=AXIS2_PLACEMENT_3D('',#328,#271,#272);
#232=AXIS2_PLACEMENT_3D('',#331,#274,#275);
#233=AXIS2_PLACEMENT_3D('',#332,#276,#277);
#234=AXIS2_PLACEMENT_3D('',#335,#279,#280);
#235=AXIS2_PLACEMENT_3D('',#336,#281,#282);
#236=AXIS2_PLACEMENT_3D('',#342,#286,#287);
#237=AXIS2_PLACEMENT_3D('',#346,#290,#291);
#238=AXIS2_PLACEMENT_3D('',#350,#294,#295);
#239=AXIS2_PLACEMENT_3D('',#352,#297,#298);
#240=DIRECTION('axis',(0.,0.,1.));
#241=DIRECTION('refdir',(1.,0.,0.));
#242=DIRECTION('center_axis',(0.,0.,1.));
#243=DIRECTION('ref_axis',(-1.,0.,0.));
#244=DIRECTION('center_axis',(0.,0.,-1.));
#245=DIRECTION('ref_axis',(-1.,0.,0.));
#246=DIRECTION('',(-0.707106781186546,-8.65956056235491E-17,-0.707106781186549));
#247=DIRECTION('center_axis',(0.,0.,1.));
#248=DIRECTION('ref_axis',(-1.,0.,0.));
#249=DIRECTION('center_axis',(0.,0.,1.));
#250=DIRECTION('ref_axis',(-1.,0.,0.));
#251=DIRECTION('center_axis',(0.,0.,1.));
#252=DIRECTION('ref_axis',(-1.,0.,0.));
#253=DIRECTION('',(0.,0.,-1.));
#254=DIRECTION('center_axis',(0.,0.,1.));
#255=DIRECTION('ref_axis',(-1.,0.,0.));
#256=DIRECTION('',(-1.,0.,0.));
#257=DIRECTION('',(0.,-1.,0.));
#258=DIRECTION('',(1.,0.,0.));
#259=DIRECTION('',(0.,1.,0.));
#260=DIRECTION('center_axis',(0.,0.,-1.));
#261=DIRECTION('ref_axis',(-1.,0.,0.));
#262=DIRECTION('center_axis',(0.,0.,-1.));
#263=DIRECTION('ref_axis',(-1.,0.,0.));
#264=DIRECTION('',(0.707106781186548,8.65956056235493E-17,-0.707106781186548));
#265=DIRECTION('center_axis',(0.,0.,1.));
#266=DIRECTION('ref_axis',(-1.,0.,0.));
#267=DIRECTION('center_axis',(0.,0.,-1.));
#268=DIRECTION('ref_axis',(-1.,0.,0.));
#269=DIRECTION('center_axis',(0.,0.,-1.));
#270=DIRECTION('ref_axis',(-1.,0.,0.));
#271=DIRECTION('center_axis',(0.,0.,1.));
#272=DIRECTION('ref_axis',(-1.,0.,0.));
#273=DIRECTION('',(0.,0.,-1.));
#274=DIRECTION('center_axis',(0.,0.,-1.));
#275=DIRECTION('ref_axis',(-1.,0.,0.));
#276=DIRECTION('center_axis',(0.,0.,1.));
#277=DIRECTION('ref_axis',(-1.,0.,0.));
#278=DIRECTION('',(0.,0.,-1.));
#279=DIRECTION('center_axis',(0.,0.,-1.));
#280=DIRECTION('ref_axis',(-1.,0.,0.));
#281=DIRECTION('center_axis',(0.,1.,0.));
#282=DIRECTION('ref_axis',(-1.,0.,0.));
#283=DIRECTION('',(-1.,0.,0.));
#284=DIRECTION('',(0.,0.,1.));
#285=DIRECTION('',(0.,0.,1.));
#286=DIRECTION('center_axis',(1.,0.,0.));
#287=DIRECTION('ref_axis',(0.,1.,0.));
#288=DIRECTION('',(0.,1.,0.));
#289=DIRECTION('',(0.,0.,1.));
#290=DIRECTION('center_axis',(0.,-1.,0.));
#291=DIRECTION('ref_axis',(1.,0.,0.));
#292=DIRECTION('',(1.,0.,0.));
#293=DIRECTION('',(0.,0.,1.));
#294=DIRECTION('center_axis',(-1.,0.,0.));
#295=DIRECTION('ref_axis',(0.,-1.,0.));
#296=DIRECTION('',(0.,-1.,0.));
#297=DIRECTION('center_axis',(0.,0.,1.));
#298=DIRECTION('ref_axis',(-1.,0.,0.));
#299=CARTESIAN_POINT('',(0.,0.,0.));
#300=CARTESIAN_POINT('Origin',(26.9940599013689,0.,17.95));
#301=CARTESIAN_POINT('',(96.9940599013689,-8.57252759403147E-15,18.2));
#302=CARTESIAN_POINT('Origin',(26.9940599013689,0.,18.2));
#303=CARTESIAN_POINT('',(96.4940599013689,8.51129525407411E-15,17.7));
#304=CARTESIAN_POINT('',(96.7440599013689,8.54191142405279E-15,17.95));
#305=CARTESIAN_POINT('Origin',(26.9940599013689,0.,17.7));
#306=CARTESIAN_POINT('Origin',(26.9940599013689,0.,17.7));
#307=CARTESIAN_POINT('',(96.9940599013689,8.57252759403147E-15,21.2));
#308=CARTESIAN_POINT('Origin',(26.9940599013689,0.,21.2));
#309=CARTESIAN_POINT('',(96.9940599013689,8.57252759403147E-15,17.7));
#310=CARTESIAN_POINT('Origin',(26.9940599013689,0.,17.7));
#311=CARTESIAN_POINT('',(-11.8666128936842,5.85,17.7));
#312=CARTESIAN_POINT('',(-37.,5.85,17.7));
#313=CARTESIAN_POINT('',(-11.8666128936842,5.85,17.7));
#314=CARTESIAN_POINT('',(-37.,-5.85,17.7));
#315=CARTESIAN_POINT('',(-37.,5.85,17.7));
#316=CARTESIAN_POINT('',(-11.8666128936842,-5.85,17.7));
#317=CARTESIAN_POINT('',(-37.,-5.85,17.7));
#318=CARTESIAN_POINT('',(-11.8666128936842,-5.85,17.7));
#319=CARTESIAN_POINT('Origin',(26.9940599013689,0.,21.45));
#320=CARTESIAN_POINT('',(96.4940599013689,-8.51129525407411E-15,21.7));
#321=CARTESIAN_POINT('Origin',(26.9940599013689,0.,21.7));
#322=CARTESIAN_POINT('',(96.7440599013689,8.54191142405279E-15,21.45));
#323=CARTESIAN_POINT('Origin',(26.9940599013689,0.,21.7));
#324=CARTESIAN_POINT('',(-30.834,2.04026156737949E-16,21.7));
#325=CARTESIAN_POINT('Origin',(-32.5,0.,21.7));
#326=CARTESIAN_POINT('',(-15.834,2.04026156737949E-16,21.7));
#327=CARTESIAN_POINT('Origin',(-17.5,0.,21.7));
#328=CARTESIAN_POINT('Origin',(-17.5,0.,12.7));
#329=CARTESIAN_POINT('',(-15.834,2.04026156737949E-16,12.7));
#330=CARTESIAN_POINT('',(-15.834,2.04026156737949E-16,12.7));
#331=CARTESIAN_POINT('Origin',(-17.5,0.,12.7));
#332=CARTESIAN_POINT('Origin',(-32.5,0.,12.7));
#333=CARTESIAN_POINT('',(-30.834,2.04026156737949E-16,12.7));
#334=CARTESIAN_POINT('',(-30.834,2.04026156737949E-16,12.7));
#335=CARTESIAN_POINT('Origin',(-32.5,0.,12.7));
#336=CARTESIAN_POINT('Origin',(-11.8666128936842,5.85,12.7));
#337=CARTESIAN_POINT('',(-11.8666128936842,5.85,12.7));
#338=CARTESIAN_POINT('',(-37.,5.85,12.7));
#339=CARTESIAN_POINT('',(-11.8666128936842,5.85,12.7));
#340=CARTESIAN_POINT('',(-37.,5.85,12.7));
#341=CARTESIAN_POINT('',(-11.8666128936842,5.85,12.7));
#342=CARTESIAN_POINT('Origin',(-11.8666128936842,-5.85,12.7));
#343=CARTESIAN_POINT('',(-11.8666128936842,-5.85,12.7));
#344=CARTESIAN_POINT('',(-11.8666128936842,-5.85,12.7));
#345=CARTESIAN_POINT('',(-11.8666128936842,-5.85,12.7));
#346=CARTESIAN_POINT('Origin',(-37.,-5.85,12.7));
#347=CARTESIAN_POINT('',(-37.,-5.85,12.7));
#348=CARTESIAN_POINT('',(-37.,-5.85,12.7));
#349=CARTESIAN_POINT('',(-37.,-5.85,12.7));
#350=CARTESIAN_POINT('Origin',(-37.,5.85,12.7));
#351=CARTESIAN_POINT('',(-37.,5.85,12.7));
#352=CARTESIAN_POINT('Origin',(-24.4333064468421,0.,12.7));
#353=UNCERTAINTY_MEASURE_WITH_UNIT(LENGTH_MEASURE(0.01),#357,
'DISTANCE_ACCURACY_VALUE',
'Maximum model space distance between geometric entities at asserted c
onnectivities');
#354=UNCERTAINTY_MEASURE_WITH_UNIT(LENGTH_MEASURE(0.01),#357,
'DISTANCE_ACCURACY_VALUE',
'Maximum model space distance between geometric entities at asserted c
onnectivities');
#355=(
GEOMETRIC_REPRESENTATION_CONTEXT(3)
GLOBAL_UNCERTAINTY_ASSIGNED_CONTEXT((#353))
GLOBAL_UNIT_ASSIGNED_CONTEXT((#357,#359,#360))
REPRESENTATION_CONTEXT('','3D')
);
#356=(
GEOMETRIC_REPRESENTATION_CONTEXT(3)
GLOBAL_UNCERTAINTY_ASSIGNED_CONTEXT((#354))
GLOBAL_UNIT_ASSIGNED_CONTEXT((#357,#359,#360))
REPRESENTATION_CONTEXT('','3D')
);
#357=(
LENGTH_UNIT()
NAMED_UNIT(*)
SI_UNIT(.MILLI.,.METRE.)
);
#358=(
LENGTH_UNIT()
NAMED_UNIT(*)
SI_UNIT($,.METRE.)
);
#359=(
NAMED_UNIT(*)
PLANE_ANGLE_UNIT()
SI_UNIT($,.RADIAN.)
);
#360=(
NAMED_UNIT(*)
SI_UNIT($,.STERADIAN.)
SOLID_ANGLE_UNIT()
);
#361=SHAPE_DEFINITION_REPRESENTATION(#362,#363);
#362=PRODUCT_DEFINITION_SHAPE('',$,#365);
#363=SHAPE_REPRESENTATION('',(#219),#355);
#364=PRODUCT_DEFINITION_CONTEXT('part definition',#369,'design');
#365=PRODUCT_DEFINITION('Oberer Teller','Oberer Teller',#366,#364);
#366=PRODUCT_DEFINITION_FORMATION('',$,#371);
#367=PRODUCT_RELATED_PRODUCT_CATEGORY('Oberer Teller','Oberer Teller',(#371));
#368=APPLICATION_PROTOCOL_DEFINITION('international standard',
'automotive_design',2009,#369);
#369=APPLICATION_CONTEXT(
'Core Data for Automotive Mechanical Design Process');
#370=PRODUCT_CONTEXT('part definition',#369,'mechanical');
#371=PRODUCT('Oberer Teller','Oberer Teller',$,(#370));
#372=PRESENTATION_STYLE_ASSIGNMENT((#374));
#373=PRESENTATION_STYLE_ASSIGNMENT((#375));
#374=SURFACE_STYLE_USAGE(.BOTH.,#376);
#375=SURFACE_STYLE_USAGE(.BOTH.,#377);
#376=SURFACE_SIDE_STYLE('',(#378));
#377=SURFACE_SIDE_STYLE('',(#379));
#378=SURFACE_STYLE_FILL_AREA(#380);
#379=SURFACE_STYLE_FILL_AREA(#381);
#380=FILL_AREA_STYLE('Stahl - satiniert',(#382));
#381=FILL_AREA_STYLE('Nylon 12 (mit 3D-Drucker Formlabs Fuse 1)',(#383));
#382=FILL_AREA_STYLE_COLOUR('Stahl - satiniert',#384);
#383=FILL_AREA_STYLE_COLOUR('Nylon 12 (mit 3D-Drucker Formlabs Fuse 1)',
#385);
#384=COLOUR_RGB('Stahl - satiniert',0.627450980392157,0.627450980392157,
0.627450980392157);
#385=COLOUR_RGB('Nylon 12 (mit 3D-Drucker Formlabs Fuse 1)',0.247058823529412,
0.247058823529412,0.247058823529412);
ENDSEC;
END-ISO-10303-21;
