ISO-10303-21;
HEADER;
/* Generated by software containing ST-Developer
 * from STEP Tools, Inc. (www.steptools.com) 
 */

FILE_DESCRIPTION(
/* description */ (''),
/* implementation_level */ '2;1');

FILE_NAME(
/* name */ 'Unterer_Teller.step',
/* time_stamp */ '2025-05-26T15:06:17+02:00',
/* author */ (''),
/* organization */ (''),
/* preprocessor_version */ 'ST-DEVELOPER v20.1',
/* originating_system */ 'Autodesk Translation Framework v14.4.0.0',
/* authorisation */ '');

FILE_SCHEMA (('AUTOMOTIVE_DESIGN { 1 0 10303 214 3 1 1 }'));
ENDSEC;

DATA;
#10=MECHANICAL_DESIGN_GEOMETRIC_PRESENTATION_REPRESENTATION('',(#13),#578);
#11=SHAPE_REPRESENTATION_RELATIONSHIP('SRR','None',#585,#12);
#12=ADVANCED_BREP_SHAPE_REPRESENTATION('',(#14),#577);
#13=STYLED_ITEM('',(#594),#14);
#14=MANIFOLD_SOLID_BREP('K\X\F6rper1',#311);
#15=FACE_BOUND('',#72,.T.);
#16=FACE_BOUND('',#73,.T.);
#17=FACE_BOUND('',#74,.T.);
#18=FACE_BOUND('',#75,.T.);
#19=FACE_BOUND('',#76,.T.);
#20=FACE_BOUND('',#77,.T.);
#21=FACE_BOUND('',#88,.T.);
#22=FACE_BOUND('',#89,.T.);
#23=TOROIDAL_SURFACE('',#346,9.,4.);
#24=TOROIDAL_SURFACE('',#356,9.,4.);
#25=TOROIDAL_SURFACE('',#358,9.,4.);
#26=TOROIDAL_SURFACE('',#366,9.,4.);
#27=PLANE('',#331);
#28=PLANE('',#338);
#29=PLANE('',#345);
#30=PLANE('',#349);
#31=PLANE('',#365);
#32=PLANE('',#374);
#33=CYLINDRICAL_SURFACE('',#328,5.);
#34=CYLINDRICAL_SURFACE('',#335,5.);
#35=CYLINDRICAL_SURFACE('',#342,5.);
#36=CYLINDRICAL_SURFACE('',#363,5.);
#37=CYLINDRICAL_SURFACE('',#368,1.9);
#38=CYLINDRICAL_SURFACE('',#370,1.9);
#39=CYLINDRICAL_SURFACE('',#372,70.);
#40=FACE_OUTER_BOUND('',#61,.T.);
#41=FACE_OUTER_BOUND('',#62,.T.);
#42=FACE_OUTER_BOUND('',#63,.T.);
#43=FACE_OUTER_BOUND('',#64,.T.);
#44=FACE_OUTER_BOUND('',#65,.T.);
#45=FACE_OUTER_BOUND('',#66,.T.);
#46=FACE_OUTER_BOUND('',#67,.T.);
#47=FACE_OUTER_BOUND('',#68,.T.);
#48=FACE_OUTER_BOUND('',#69,.T.);
#49=FACE_OUTER_BOUND('',#70,.T.);
#50=FACE_OUTER_BOUND('',#71,.T.);
#51=FACE_OUTER_BOUND('',#78,.T.);
#52=FACE_OUTER_BOUND('',#79,.T.);
#53=FACE_OUTER_BOUND('',#80,.T.);
#54=FACE_OUTER_BOUND('',#81,.T.);
#55=FACE_OUTER_BOUND('',#82,.T.);
#56=FACE_OUTER_BOUND('',#83,.T.);
#57=FACE_OUTER_BOUND('',#84,.T.);
#58=FACE_OUTER_BOUND('',#85,.T.);
#59=FACE_OUTER_BOUND('',#86,.T.);
#60=FACE_OUTER_BOUND('',#87,.T.);
#61=EDGE_LOOP('',(#206,#207,#208,#209));
#62=EDGE_LOOP('',(#210,#211,#212,#213,#214));
#63=EDGE_LOOP('',(#215));
#64=EDGE_LOOP('',(#216,#217,#218,#219));
#65=EDGE_LOOP('',(#220,#221,#222,#223,#224));
#66=EDGE_LOOP('',(#225));
#67=EDGE_LOOP('',(#226,#227,#228,#229));
#68=EDGE_LOOP('',(#230,#231,#232,#233,#234));
#69=EDGE_LOOP('',(#235));
#70=EDGE_LOOP('',(#236,#237,#238,#239,#240));
#71=EDGE_LOOP('',(#241));
#72=EDGE_LOOP('',(#242));
#73=EDGE_LOOP('',(#243));
#74=EDGE_LOOP('',(#244));
#75=EDGE_LOOP('',(#245));
#76=EDGE_LOOP('',(#246));
#77=EDGE_LOOP('',(#247));
#78=EDGE_LOOP('',(#248,#249,#250,#251,#252));
#79=EDGE_LOOP('',(#253,#254,#255,#256,#257));
#80=EDGE_LOOP('',(#258,#259,#260,#261));
#81=EDGE_LOOP('',(#262,#263,#264,#265));
#82=EDGE_LOOP('',(#266));
#83=EDGE_LOOP('',(#267,#268,#269,#270));
#84=EDGE_LOOP('',(#271,#272,#273,#274));
#85=EDGE_LOOP('',(#275,#276,#277,#278));
#86=EDGE_LOOP('',(#279,#280,#281,#282));
#87=EDGE_LOOP('',(#283));
#88=EDGE_LOOP('',(#284));
#89=EDGE_LOOP('',(#285));
#90=LINE('',#493,#101);
#91=LINE('',#497,#102);
#92=LINE('',#506,#103);
#93=LINE('',#510,#104);
#94=LINE('',#519,#105);
#95=LINE('',#523,#106);
#96=LINE('',#553,#107);
#97=LINE('',#557,#108);
#98=LINE('',#564,#109);
#99=LINE('',#568,#110);
#100=LINE('',#572,#111);
#101=VECTOR('',#381,4.6);
#102=VECTOR('',#386,5.);
#103=VECTOR('',#397,4.6);
#104=VECTOR('',#402,5.);
#105=VECTOR('',#413,4.6);
#106=VECTOR('',#418,5.);
#107=VECTOR('',#457,4.6);
#108=VECTOR('',#462,5.);
#109=VECTOR('',#473,1.9);
#110=VECTOR('',#478,1.9);
#111=VECTOR('',#483,70.);
#112=CIRCLE('',#326,4.2);
#113=CIRCLE('',#327,5.);
#114=CIRCLE('',#329,5.);
#115=CIRCLE('',#330,5.);
#116=CIRCLE('',#333,4.2);
#117=CIRCLE('',#334,5.);
#118=CIRCLE('',#336,5.);
#119=CIRCLE('',#337,5.);
#120=CIRCLE('',#340,4.2);
#121=CIRCLE('',#341,5.);
#122=CIRCLE('',#343,5.);
#123=CIRCLE('',#344,5.);
#124=CIRCLE('',#347,4.);
#125=CIRCLE('',#348,9.);
#126=CIRCLE('',#350,70.);
#127=CIRCLE('',#351,9.);
#128=CIRCLE('',#352,9.);
#129=CIRCLE('',#353,1.9);
#130=CIRCLE('',#354,1.9);
#131=CIRCLE('',#355,9.);
#132=CIRCLE('',#357,4.);
#133=CIRCLE('',#359,4.);
#134=CIRCLE('',#361,4.2);
#135=CIRCLE('',#362,5.);
#136=CIRCLE('',#364,5.);
#137=CIRCLE('',#367,4.);
#138=CIRCLE('',#369,1.9);
#139=CIRCLE('',#371,1.9);
#140=CIRCLE('',#373,70.);
#141=VERTEX_POINT('',#490);
#142=VERTEX_POINT('',#492);
#143=VERTEX_POINT('',#496);
#144=VERTEX_POINT('',#498);
#145=VERTEX_POINT('',#503);
#146=VERTEX_POINT('',#505);
#147=VERTEX_POINT('',#509);
#148=VERTEX_POINT('',#511);
#149=VERTEX_POINT('',#516);
#150=VERTEX_POINT('',#518);
#151=VERTEX_POINT('',#522);
#152=VERTEX_POINT('',#524);
#153=VERTEX_POINT('',#529);
#154=VERTEX_POINT('',#533);
#155=VERTEX_POINT('',#535);
#156=VERTEX_POINT('',#537);
#157=VERTEX_POINT('',#539);
#158=VERTEX_POINT('',#541);
#159=VERTEX_POINT('',#543);
#160=VERTEX_POINT('',#550);
#161=VERTEX_POINT('',#552);
#162=VERTEX_POINT('',#556);
#163=VERTEX_POINT('',#563);
#164=VERTEX_POINT('',#567);
#165=VERTEX_POINT('',#571);
#166=EDGE_CURVE('',#141,#141,#112,.T.);
#167=EDGE_CURVE('',#141,#142,#90,.T.);
#168=EDGE_CURVE('',#142,#142,#113,.T.);
#169=EDGE_CURVE('',#142,#143,#91,.T.);
#170=EDGE_CURVE('',#144,#143,#114,.T.);
#171=EDGE_CURVE('',#143,#144,#115,.T.);
#172=EDGE_CURVE('',#145,#145,#116,.T.);
#173=EDGE_CURVE('',#145,#146,#92,.T.);
#174=EDGE_CURVE('',#146,#146,#117,.T.);
#175=EDGE_CURVE('',#146,#147,#93,.T.);
#176=EDGE_CURVE('',#148,#147,#118,.T.);
#177=EDGE_CURVE('',#147,#148,#119,.T.);
#178=EDGE_CURVE('',#149,#149,#120,.T.);
#179=EDGE_CURVE('',#149,#150,#94,.T.);
#180=EDGE_CURVE('',#150,#150,#121,.T.);
#181=EDGE_CURVE('',#150,#151,#95,.T.);
#182=EDGE_CURVE('',#152,#151,#122,.T.);
#183=EDGE_CURVE('',#151,#152,#123,.T.);
#184=EDGE_CURVE('',#152,#153,#124,.T.);
#185=EDGE_CURVE('',#153,#153,#125,.T.);
#186=EDGE_CURVE('',#154,#154,#126,.T.);
#187=EDGE_CURVE('',#155,#155,#127,.T.);
#188=EDGE_CURVE('',#156,#156,#128,.T.);
#189=EDGE_CURVE('',#157,#157,#129,.T.);
#190=EDGE_CURVE('',#158,#158,#130,.T.);
#191=EDGE_CURVE('',#159,#159,#131,.T.);
#192=EDGE_CURVE('',#144,#155,#132,.T.);
#193=EDGE_CURVE('',#148,#159,#133,.T.);
#194=EDGE_CURVE('',#160,#160,#134,.T.);
#195=EDGE_CURVE('',#160,#161,#96,.T.);
#196=EDGE_CURVE('',#161,#161,#135,.T.);
#197=EDGE_CURVE('',#161,#162,#97,.T.);
#198=EDGE_CURVE('',#162,#162,#136,.T.);
#199=EDGE_CURVE('',#162,#156,#137,.T.);
#200=EDGE_CURVE('',#158,#163,#98,.T.);
#201=EDGE_CURVE('',#163,#163,#138,.T.);
#202=EDGE_CURVE('',#157,#164,#99,.T.);
#203=EDGE_CURVE('',#164,#164,#139,.T.);
#204=EDGE_CURVE('',#154,#165,#100,.T.);
#205=EDGE_CURVE('',#165,#165,#140,.T.);
#206=ORIENTED_EDGE('',*,*,#166,.T.);
#207=ORIENTED_EDGE('',*,*,#167,.T.);
#208=ORIENTED_EDGE('',*,*,#168,.T.);
#209=ORIENTED_EDGE('',*,*,#167,.F.);
#210=ORIENTED_EDGE('',*,*,#168,.F.);
#211=ORIENTED_EDGE('',*,*,#169,.T.);
#212=ORIENTED_EDGE('',*,*,#170,.F.);
#213=ORIENTED_EDGE('',*,*,#171,.F.);
#214=ORIENTED_EDGE('',*,*,#169,.F.);
#215=ORIENTED_EDGE('',*,*,#166,.F.);
#216=ORIENTED_EDGE('',*,*,#172,.T.);
#217=ORIENTED_EDGE('',*,*,#173,.T.);
#218=ORIENTED_EDGE('',*,*,#174,.T.);
#219=ORIENTED_EDGE('',*,*,#173,.F.);
#220=ORIENTED_EDGE('',*,*,#174,.F.);
#221=ORIENTED_EDGE('',*,*,#175,.T.);
#222=ORIENTED_EDGE('',*,*,#176,.F.);
#223=ORIENTED_EDGE('',*,*,#177,.F.);
#224=ORIENTED_EDGE('',*,*,#175,.F.);
#225=ORIENTED_EDGE('',*,*,#172,.F.);
#226=ORIENTED_EDGE('',*,*,#178,.T.);
#227=ORIENTED_EDGE('',*,*,#179,.T.);
#228=ORIENTED_EDGE('',*,*,#180,.T.);
#229=ORIENTED_EDGE('',*,*,#179,.F.);
#230=ORIENTED_EDGE('',*,*,#180,.F.);
#231=ORIENTED_EDGE('',*,*,#181,.T.);
#232=ORIENTED_EDGE('',*,*,#182,.F.);
#233=ORIENTED_EDGE('',*,*,#183,.F.);
#234=ORIENTED_EDGE('',*,*,#181,.F.);
#235=ORIENTED_EDGE('',*,*,#178,.F.);
#236=ORIENTED_EDGE('',*,*,#183,.T.);
#237=ORIENTED_EDGE('',*,*,#184,.T.);
#238=ORIENTED_EDGE('',*,*,#185,.T.);
#239=ORIENTED_EDGE('',*,*,#184,.F.);
#240=ORIENTED_EDGE('',*,*,#182,.T.);
#241=ORIENTED_EDGE('',*,*,#186,.T.);
#242=ORIENTED_EDGE('',*,*,#187,.F.);
#243=ORIENTED_EDGE('',*,*,#188,.F.);
#244=ORIENTED_EDGE('',*,*,#189,.T.);
#245=ORIENTED_EDGE('',*,*,#190,.T.);
#246=ORIENTED_EDGE('',*,*,#191,.F.);
#247=ORIENTED_EDGE('',*,*,#185,.F.);
#248=ORIENTED_EDGE('',*,*,#171,.T.);
#249=ORIENTED_EDGE('',*,*,#192,.T.);
#250=ORIENTED_EDGE('',*,*,#187,.T.);
#251=ORIENTED_EDGE('',*,*,#192,.F.);
#252=ORIENTED_EDGE('',*,*,#170,.T.);
#253=ORIENTED_EDGE('',*,*,#177,.T.);
#254=ORIENTED_EDGE('',*,*,#193,.T.);
#255=ORIENTED_EDGE('',*,*,#191,.T.);
#256=ORIENTED_EDGE('',*,*,#193,.F.);
#257=ORIENTED_EDGE('',*,*,#176,.T.);
#258=ORIENTED_EDGE('',*,*,#194,.T.);
#259=ORIENTED_EDGE('',*,*,#195,.T.);
#260=ORIENTED_EDGE('',*,*,#196,.T.);
#261=ORIENTED_EDGE('',*,*,#195,.F.);
#262=ORIENTED_EDGE('',*,*,#196,.F.);
#263=ORIENTED_EDGE('',*,*,#197,.T.);
#264=ORIENTED_EDGE('',*,*,#198,.F.);
#265=ORIENTED_EDGE('',*,*,#197,.F.);
#266=ORIENTED_EDGE('',*,*,#194,.F.);
#267=ORIENTED_EDGE('',*,*,#198,.T.);
#268=ORIENTED_EDGE('',*,*,#199,.T.);
#269=ORIENTED_EDGE('',*,*,#188,.T.);
#270=ORIENTED_EDGE('',*,*,#199,.F.);
#271=ORIENTED_EDGE('',*,*,#190,.F.);
#272=ORIENTED_EDGE('',*,*,#200,.T.);
#273=ORIENTED_EDGE('',*,*,#201,.T.);
#274=ORIENTED_EDGE('',*,*,#200,.F.);
#275=ORIENTED_EDGE('',*,*,#189,.F.);
#276=ORIENTED_EDGE('',*,*,#202,.T.);
#277=ORIENTED_EDGE('',*,*,#203,.T.);
#278=ORIENTED_EDGE('',*,*,#202,.F.);
#279=ORIENTED_EDGE('',*,*,#186,.F.);
#280=ORIENTED_EDGE('',*,*,#204,.T.);
#281=ORIENTED_EDGE('',*,*,#205,.T.);
#282=ORIENTED_EDGE('',*,*,#204,.F.);
#283=ORIENTED_EDGE('',*,*,#205,.F.);
#284=ORIENTED_EDGE('',*,*,#203,.F.);
#285=ORIENTED_EDGE('',*,*,#201,.F.);
#286=CONICAL_SURFACE('',#325,4.6,0.785398163397448);
#287=CONICAL_SURFACE('',#332,4.6,0.785398163397448);
#288=CONICAL_SURFACE('',#339,4.6,0.785398163397448);
#289=CONICAL_SURFACE('',#360,4.6,0.785398163397448);
#290=ADVANCED_FACE('',(#40),#286,.T.);
#291=ADVANCED_FACE('',(#41),#33,.T.);
#292=ADVANCED_FACE('',(#42),#27,.T.);
#293=ADVANCED_FACE('',(#43),#287,.T.);
#294=ADVANCED_FACE('',(#44),#34,.T.);
#295=ADVANCED_FACE('',(#45),#28,.T.);
#296=ADVANCED_FACE('',(#46),#288,.T.);
#297=ADVANCED_FACE('',(#47),#35,.T.);
#298=ADVANCED_FACE('',(#48),#29,.T.);
#299=ADVANCED_FACE('',(#49),#23,.F.);
#300=ADVANCED_FACE('',(#50,#15,#16,#17,#18,#19,#20),#30,.T.);
#301=ADVANCED_FACE('',(#51),#24,.F.);
#302=ADVANCED_FACE('',(#52),#25,.F.);
#303=ADVANCED_FACE('',(#53),#289,.T.);
#304=ADVANCED_FACE('',(#54),#36,.T.);
#305=ADVANCED_FACE('',(#55),#31,.T.);
#306=ADVANCED_FACE('',(#56),#26,.F.);
#307=ADVANCED_FACE('',(#57),#37,.F.);
#308=ADVANCED_FACE('',(#58),#38,.F.);
#309=ADVANCED_FACE('',(#59),#39,.T.);
#310=ADVANCED_FACE('',(#60,#21,#22),#32,.F.);
#311=CLOSED_SHELL('',(#290,#291,#292,#293,#294,#295,#296,#297,#298,#299,
#300,#301,#302,#303,#304,#305,#306,#307,#308,#309,#310));
#312=DERIVED_UNIT_ELEMENT(#314,1.);
#313=DERIVED_UNIT_ELEMENT(#580,-3.);
#314=(
MASS_UNIT()
NAMED_UNIT(*)
SI_UNIT(.KILO.,.GRAM.)
);
#315=DERIVED_UNIT((#312,#313));
#316=MEASURE_REPRESENTATION_ITEM('density measure',
POSITIVE_RATIO_MEASURE(7850.),#315);
#317=PROPERTY_DEFINITION_REPRESENTATION(#322,#319);
#318=PROPERTY_DEFINITION_REPRESENTATION(#323,#320);
#319=REPRESENTATION('material name',(#321),#577);
#320=REPRESENTATION('density',(#316),#577);
#321=DESCRIPTIVE_REPRESENTATION_ITEM('Stahl','Stahl');
#322=PROPERTY_DEFINITION('material property','material name',#587);
#323=PROPERTY_DEFINITION('material property','density of part',#587);
#324=AXIS2_PLACEMENT_3D('',#488,#375,#376);
#325=AXIS2_PLACEMENT_3D('',#489,#377,#378);
#326=AXIS2_PLACEMENT_3D('',#491,#379,#380);
#327=AXIS2_PLACEMENT_3D('',#494,#382,#383);
#328=AXIS2_PLACEMENT_3D('',#495,#384,#385);
#329=AXIS2_PLACEMENT_3D('',#499,#387,#388);
#330=AXIS2_PLACEMENT_3D('',#500,#389,#390);
#331=AXIS2_PLACEMENT_3D('',#501,#391,#392);
#332=AXIS2_PLACEMENT_3D('',#502,#393,#394);
#333=AXIS2_PLACEMENT_3D('',#504,#395,#396);
#334=AXIS2_PLACEMENT_3D('',#507,#398,#399);
#335=AXIS2_PLACEMENT_3D('',#508,#400,#401);
#336=AXIS2_PLACEMENT_3D('',#512,#403,#404);
#337=AXIS2_PLACEMENT_3D('',#513,#405,#406);
#338=AXIS2_PLACEMENT_3D('',#514,#407,#408);
#339=AXIS2_PLACEMENT_3D('',#515,#409,#410);
#340=AXIS2_PLACEMENT_3D('',#517,#411,#412);
#341=AXIS2_PLACEMENT_3D('',#520,#414,#415);
#342=AXIS2_PLACEMENT_3D('',#521,#416,#417);
#343=AXIS2_PLACEMENT_3D('',#525,#419,#420);
#344=AXIS2_PLACEMENT_3D('',#526,#421,#422);
#345=AXIS2_PLACEMENT_3D('',#527,#423,#424);
#346=AXIS2_PLACEMENT_3D('',#528,#425,#426);
#347=AXIS2_PLACEMENT_3D('',#530,#427,#428);
#348=AXIS2_PLACEMENT_3D('',#531,#429,#430);
#349=AXIS2_PLACEMENT_3D('',#532,#431,#432);
#350=AXIS2_PLACEMENT_3D('',#534,#433,#434);
#351=AXIS2_PLACEMENT_3D('',#536,#435,#436);
#352=AXIS2_PLACEMENT_3D('',#538,#437,#438);
#353=AXIS2_PLACEMENT_3D('',#540,#439,#440);
#354=AXIS2_PLACEMENT_3D('',#542,#441,#442);
#355=AXIS2_PLACEMENT_3D('',#544,#443,#444);
#356=AXIS2_PLACEMENT_3D('',#545,#445,#446);
#357=AXIS2_PLACEMENT_3D('',#546,#447,#448);
#358=AXIS2_PLACEMENT_3D('',#547,#449,#450);
#359=AXIS2_PLACEMENT_3D('',#548,#451,#452);
#360=AXIS2_PLACEMENT_3D('',#549,#453,#454);
#361=AXIS2_PLACEMENT_3D('',#551,#455,#456);
#362=AXIS2_PLACEMENT_3D('',#554,#458,#459);
#363=AXIS2_PLACEMENT_3D('',#555,#460,#461);
#364=AXIS2_PLACEMENT_3D('',#558,#463,#464);
#365=AXIS2_PLACEMENT_3D('',#559,#465,#466);
#366=AXIS2_PLACEMENT_3D('',#560,#467,#468);
#367=AXIS2_PLACEMENT_3D('',#561,#469,#470);
#368=AXIS2_PLACEMENT_3D('',#562,#471,#472);
#369=AXIS2_PLACEMENT_3D('',#565,#474,#475);
#370=AXIS2_PLACEMENT_3D('',#566,#476,#477);
#371=AXIS2_PLACEMENT_3D('',#569,#479,#480);
#372=AXIS2_PLACEMENT_3D('',#570,#481,#482);
#373=AXIS2_PLACEMENT_3D('',#573,#484,#485);
#374=AXIS2_PLACEMENT_3D('',#574,#486,#487);
#375=DIRECTION('axis',(0.,0.,1.));
#376=DIRECTION('refdir',(1.,0.,0.));
#377=DIRECTION('center_axis',(0.,0.,1.));
#378=DIRECTION('ref_axis',(-1.83697019872103E-16,1.,0.));
#379=DIRECTION('center_axis',(0.,0.,1.));
#380=DIRECTION('ref_axis',(-1.83697019872103E-16,1.,0.));
#381=DIRECTION('',(4.32978028117746E-17,-0.707106781186547,0.707106781186547));
#382=DIRECTION('center_axis',(0.,0.,-1.));
#383=DIRECTION('ref_axis',(-1.83697019872103E-16,1.,0.));
#384=DIRECTION('center_axis',(0.,0.,-1.));
#385=DIRECTION('ref_axis',(-1.83697019872103E-16,1.,0.));
#386=DIRECTION('',(0.,0.,1.));
#387=DIRECTION('center_axis',(0.,0.,1.));
#388=DIRECTION('ref_axis',(0.,1.,0.));
#389=DIRECTION('center_axis',(0.,0.,1.));
#390=DIRECTION('ref_axis',(0.,1.,0.));
#391=DIRECTION('center_axis',(0.,0.,-1.));
#392=DIRECTION('ref_axis',(-1.83697019872103E-16,1.,0.));
#393=DIRECTION('center_axis',(0.,0.,1.));
#394=DIRECTION('ref_axis',(-1.,-1.22464679914735E-16,0.));
#395=DIRECTION('center_axis',(0.,0.,1.));
#396=DIRECTION('ref_axis',(-1.,-1.22464679914735E-16,0.));
#397=DIRECTION('',(0.707106781186547,0.,0.707106781186547));
#398=DIRECTION('center_axis',(0.,0.,-1.));
#399=DIRECTION('ref_axis',(-1.,-1.22464679914735E-16,0.));
#400=DIRECTION('center_axis',(0.,0.,-1.));
#401=DIRECTION('ref_axis',(-1.,-1.22464679914735E-16,0.));
#402=DIRECTION('',(0.,0.,1.));
#403=DIRECTION('center_axis',(0.,0.,1.));
#404=DIRECTION('ref_axis',(-1.,0.,0.));
#405=DIRECTION('center_axis',(0.,0.,1.));
#406=DIRECTION('ref_axis',(-1.,0.,0.));
#407=DIRECTION('center_axis',(0.,0.,-1.));
#408=DIRECTION('ref_axis',(-1.,-1.22464679914735E-16,0.));
#409=DIRECTION('center_axis',(0.,0.,1.));
#410=DIRECTION('ref_axis',(6.12323399573677E-17,-1.,0.));
#411=DIRECTION('center_axis',(0.,0.,1.));
#412=DIRECTION('ref_axis',(6.12323399573677E-17,-1.,0.));
#413=DIRECTION('',(4.32978028117747E-17,0.707106781186547,0.707106781186547));
#414=DIRECTION('center_axis',(0.,0.,-1.));
#415=DIRECTION('ref_axis',(6.12323399573677E-17,-1.,0.));
#416=DIRECTION('center_axis',(0.,0.,-1.));
#417=DIRECTION('ref_axis',(6.12323399573677E-17,-1.,0.));
#418=DIRECTION('',(0.,0.,1.));
#419=DIRECTION('center_axis',(0.,0.,1.));
#420=DIRECTION('ref_axis',(0.,-1.,0.));
#421=DIRECTION('center_axis',(0.,0.,1.));
#422=DIRECTION('ref_axis',(0.,-1.,0.));
#423=DIRECTION('center_axis',(0.,0.,-1.));
#424=DIRECTION('ref_axis',(6.12323399573677E-17,-1.,0.));
#425=DIRECTION('center_axis',(0.,0.,1.));
#426=DIRECTION('ref_axis',(1.,0.,0.));
#427=DIRECTION('center_axis',(1.70803542250024E-16,-1.,0.));
#428=DIRECTION('ref_axis',(-1.,-1.70803542250024E-16,0.));
#429=DIRECTION('center_axis',(0.,0.,-1.));
#430=DIRECTION('ref_axis',(0.,-1.,0.));
#431=DIRECTION('center_axis',(0.,0.,-1.));
#432=DIRECTION('ref_axis',(1.,0.,0.));
#433=DIRECTION('center_axis',(0.,0.,-1.));
#434=DIRECTION('ref_axis',(1.,0.,0.));
#435=DIRECTION('center_axis',(0.,0.,-1.));
#436=DIRECTION('ref_axis',(0.,1.,0.));
#437=DIRECTION('center_axis',(0.,0.,-1.));
#438=DIRECTION('ref_axis',(1.,0.,0.));
#439=DIRECTION('center_axis',(0.,0.,1.));
#440=DIRECTION('ref_axis',(1.,0.,0.));
#441=DIRECTION('center_axis',(0.,0.,1.));
#442=DIRECTION('ref_axis',(1.,0.,0.));
#443=DIRECTION('center_axis',(0.,0.,-1.));
#444=DIRECTION('ref_axis',(-1.,0.,0.));
#445=DIRECTION('center_axis',(0.,0.,1.));
#446=DIRECTION('ref_axis',(1.,0.,0.));
#447=DIRECTION('center_axis',(1.70803542250024E-16,-1.,0.));
#448=DIRECTION('ref_axis',(-1.,-1.70803542250024E-16,0.));
#449=DIRECTION('center_axis',(0.,0.,1.));
#450=DIRECTION('ref_axis',(1.,0.,0.));
#451=DIRECTION('center_axis',(0.,-1.,0.));
#452=DIRECTION('ref_axis',(-1.,0.,0.));
#453=DIRECTION('center_axis',(0.,0.,1.));
#454=DIRECTION('ref_axis',(1.,0.,0.));
#455=DIRECTION('center_axis',(0.,0.,1.));
#456=DIRECTION('ref_axis',(1.,0.,0.));
#457=DIRECTION('',(-0.707106781186547,8.65956056235493E-17,0.707106781186547));
#458=DIRECTION('center_axis',(0.,0.,-1.));
#459=DIRECTION('ref_axis',(1.,0.,0.));
#460=DIRECTION('center_axis',(0.,0.,-1.));
#461=DIRECTION('ref_axis',(1.,0.,0.));
#462=DIRECTION('',(0.,0.,1.));
#463=DIRECTION('center_axis',(0.,0.,1.));
#464=DIRECTION('ref_axis',(1.,0.,0.));
#465=DIRECTION('center_axis',(0.,0.,-1.));
#466=DIRECTION('ref_axis',(1.,0.,0.));
#467=DIRECTION('center_axis',(0.,0.,1.));
#468=DIRECTION('ref_axis',(1.,0.,0.));
#469=DIRECTION('center_axis',(0.,-1.,0.));
#470=DIRECTION('ref_axis',(-1.,0.,0.));
#471=DIRECTION('center_axis',(0.,0.,-1.));
#472=DIRECTION('ref_axis',(1.,0.,0.));
#473=DIRECTION('',(0.,0.,1.));
#474=DIRECTION('center_axis',(0.,0.,1.));
#475=DIRECTION('ref_axis',(1.,0.,0.));
#476=DIRECTION('center_axis',(0.,0.,-1.));
#477=DIRECTION('ref_axis',(1.,0.,0.));
#478=DIRECTION('',(0.,0.,1.));
#479=DIRECTION('center_axis',(0.,0.,1.));
#480=DIRECTION('ref_axis',(1.,0.,0.));
#481=DIRECTION('center_axis',(0.,0.,-1.));
#482=DIRECTION('ref_axis',(1.,0.,0.));
#483=DIRECTION('',(0.,0.,1.));
#484=DIRECTION('center_axis',(0.,0.,-1.));
#485=DIRECTION('ref_axis',(1.,0.,0.));
#486=DIRECTION('center_axis',(0.,0.,-1.));
#487=DIRECTION('ref_axis',(1.,0.,0.));
#488=CARTESIAN_POINT('',(0.,0.,0.));
#489=CARTESIAN_POINT('Origin',(-31.7354563819834,15.3858474532846,-18.6));
#490=CARTESIAN_POINT('',(-31.7354563819834,11.1858474532846,-19.));
#491=CARTESIAN_POINT('Origin',(-31.7354563819834,15.3858474532846,-19.));
#492=CARTESIAN_POINT('',(-31.7354563819834,10.3858474532846,-18.2));
#493=CARTESIAN_POINT('',(-31.7354563819834,10.7858474532846,-18.6));
#494=CARTESIAN_POINT('Origin',(-31.7354563819834,15.3858474532846,-18.2));
#495=CARTESIAN_POINT('Origin',(-31.7354563819834,15.3858474532846,-9.));
#496=CARTESIAN_POINT('',(-31.7354563819834,10.3858474532846,-13.));
#497=CARTESIAN_POINT('',(-31.7354563819834,10.3858474532846,-9.));
#498=CARTESIAN_POINT('',(-36.7354563819834,15.3858474532846,-13.));
#499=CARTESIAN_POINT('Origin',(-31.7354563819834,15.3858474532846,-13.));
#500=CARTESIAN_POINT('Origin',(-31.7354563819834,15.3858474532846,-13.));
#501=CARTESIAN_POINT('Origin',(-31.7354563819834,15.3858474532846,-19.));
#502=CARTESIAN_POINT('Origin',(11.6082124480843,-58.7295162833523,-18.6));
#503=CARTESIAN_POINT('',(15.8082124480843,-58.7295162833523,-19.));
#504=CARTESIAN_POINT('Origin',(11.6082124480843,-58.7295162833523,-19.));
#505=CARTESIAN_POINT('',(16.6082124480843,-58.7295162833523,-18.2));
#506=CARTESIAN_POINT('',(16.2082124480843,-58.7295162833523,-18.6));
#507=CARTESIAN_POINT('Origin',(11.6082124480843,-58.7295162833523,-18.2));
#508=CARTESIAN_POINT('Origin',(11.6082124480843,-58.7295162833523,-9.));
#509=CARTESIAN_POINT('',(16.6082124480843,-58.7295162833523,-13.));
#510=CARTESIAN_POINT('',(16.6082124480843,-58.7295162833523,-9.));
#511=CARTESIAN_POINT('',(6.60821244808428,-58.7295162833523,-13.));
#512=CARTESIAN_POINT('Origin',(11.6082124480843,-58.7295162833523,-13.));
#513=CARTESIAN_POINT('Origin',(11.6082124480843,-58.7295162833523,-13.));
#514=CARTESIAN_POINT('Origin',(11.6082124480843,-58.7295162833523,-19.));
#515=CARTESIAN_POINT('Origin',(85.7235761847212,-15.3858474532846,-18.6));
#516=CARTESIAN_POINT('',(85.7235761847212,-11.1858474532846,-19.));
#517=CARTESIAN_POINT('Origin',(85.7235761847212,-15.3858474532846,-19.));
#518=CARTESIAN_POINT('',(85.7235761847212,-10.3858474532846,-18.2));
#519=CARTESIAN_POINT('',(85.7235761847212,-10.7858474532846,-18.6));
#520=CARTESIAN_POINT('Origin',(85.7235761847212,-15.3858474532846,-18.2));
#521=CARTESIAN_POINT('Origin',(85.7235761847212,-15.3858474532846,-9.));
#522=CARTESIAN_POINT('',(85.7235761847212,-10.3858474532846,-13.));
#523=CARTESIAN_POINT('',(85.7235761847212,-10.3858474532846,-9.));
#524=CARTESIAN_POINT('',(80.7235761847212,-15.3858474532846,-13.));
#525=CARTESIAN_POINT('Origin',(85.7235761847212,-15.3858474532846,-13.));
#526=CARTESIAN_POINT('Origin',(85.7235761847212,-15.3858474532846,-13.));
#527=CARTESIAN_POINT('Origin',(85.7235761847212,-15.3858474532846,-19.));
#528=CARTESIAN_POINT('Origin',(85.7235761847212,-15.3858474532846,-13.));
#529=CARTESIAN_POINT('',(76.7235761847212,-15.3858474532846,-9.));
#530=CARTESIAN_POINT('Origin',(76.7235761847212,-15.3858474532846,-13.));
#531=CARTESIAN_POINT('Origin',(85.7235761847212,-15.3858474532846,-9.));
#532=CARTESIAN_POINT('Origin',(26.9940599013689,0.,-9.));
#533=CARTESIAN_POINT('',(-43.0059400986311,8.57252759403147E-15,-9.));
#534=CARTESIAN_POINT('Origin',(26.9940599013689,0.,-9.));
#535=CARTESIAN_POINT('',(-40.7354563819834,15.3858474532846,-9.));
#536=CARTESIAN_POINT('Origin',(-31.7354563819834,15.3858474532846,-9.));
#537=CARTESIAN_POINT('',(33.3799073546535,58.7295162833523,-9.));
#538=CARTESIAN_POINT('Origin',(42.3799073546535,58.7295162833523,-9.));
#539=CARTESIAN_POINT('',(30.1,2.32682891837997E-16,-9.));
#540=CARTESIAN_POINT('Origin',(32.,0.,-9.));
#541=CARTESIAN_POINT('',(20.1,2.32682891837997E-16,-9.));
#542=CARTESIAN_POINT('Origin',(22.,0.,-9.));
#543=CARTESIAN_POINT('',(2.60821244808428,-58.7295162833523,-9.));
#544=CARTESIAN_POINT('Origin',(11.6082124480843,-58.7295162833523,-9.));
#545=CARTESIAN_POINT('Origin',(-31.7354563819834,15.3858474532846,-13.));
#546=CARTESIAN_POINT('Origin',(-40.7354563819834,15.3858474532846,-13.));
#547=CARTESIAN_POINT('Origin',(11.6082124480843,-58.7295162833523,-13.));
#548=CARTESIAN_POINT('Origin',(2.60821244808428,-58.7295162833523,-13.));
#549=CARTESIAN_POINT('Origin',(42.3799073546535,58.7295162833523,-18.6));
#550=CARTESIAN_POINT('',(38.1799073546535,58.7295162833523,-19.));
#551=CARTESIAN_POINT('Origin',(42.3799073546535,58.7295162833523,-19.));
#552=CARTESIAN_POINT('',(37.3799073546535,58.7295162833523,-18.2));
#553=CARTESIAN_POINT('',(37.7799073546535,58.7295162833523,-18.6));
#554=CARTESIAN_POINT('Origin',(42.3799073546535,58.7295162833523,-18.2));
#555=CARTESIAN_POINT('Origin',(42.3799073546535,58.7295162833523,-9.));
#556=CARTESIAN_POINT('',(37.3799073546535,58.7295162833523,-13.));
#557=CARTESIAN_POINT('',(37.3799073546535,58.7295162833523,-9.));
#558=CARTESIAN_POINT('Origin',(42.3799073546535,58.7295162833523,-13.));
#559=CARTESIAN_POINT('Origin',(42.3799073546535,58.7295162833523,-19.));
#560=CARTESIAN_POINT('Origin',(42.3799073546535,58.7295162833523,-13.));
#561=CARTESIAN_POINT('Origin',(33.3799073546535,58.7295162833523,-13.));
#562=CARTESIAN_POINT('Origin',(22.,0.,-5.));
#563=CARTESIAN_POINT('',(20.1,2.32682891837997E-16,-5.));
#564=CARTESIAN_POINT('',(20.1,2.32682891837997E-16,-5.));
#565=CARTESIAN_POINT('Origin',(22.,0.,-5.));
#566=CARTESIAN_POINT('Origin',(32.,0.,-5.));
#567=CARTESIAN_POINT('',(30.1,2.32682891837997E-16,-5.));
#568=CARTESIAN_POINT('',(30.1,2.32682891837997E-16,-5.));
#569=CARTESIAN_POINT('Origin',(32.,0.,-5.));
#570=CARTESIAN_POINT('Origin',(26.9940599013689,0.,-5.));
#571=CARTESIAN_POINT('',(-43.0059400986311,8.57252759403147E-15,-5.));
#572=CARTESIAN_POINT('',(-43.0059400986311,8.57252759403147E-15,-5.));
#573=CARTESIAN_POINT('Origin',(26.9940599013689,0.,-5.));
#574=CARTESIAN_POINT('Origin',(26.9940599013689,0.,-5.));
#575=UNCERTAINTY_MEASURE_WITH_UNIT(LENGTH_MEASURE(0.01),#579,
'DISTANCE_ACCURACY_VALUE',
'Maximum model space distance between geometric entities at asserted c
onnectivities');
#576=UNCERTAINTY_MEASURE_WITH_UNIT(LENGTH_MEASURE(0.01),#579,
'DISTANCE_ACCURACY_VALUE',
'Maximum model space distance between geometric entities at asserted c
onnectivities');
#577=(
GEOMETRIC_REPRESENTATION_CONTEXT(3)
GLOBAL_UNCERTAINTY_ASSIGNED_CONTEXT((#575))
GLOBAL_UNIT_ASSIGNED_CONTEXT((#579,#581,#582))
REPRESENTATION_CONTEXT('','3D')
);
#578=(
GEOMETRIC_REPRESENTATION_CONTEXT(3)
GLOBAL_UNCERTAINTY_ASSIGNED_CONTEXT((#576))
GLOBAL_UNIT_ASSIGNED_CONTEXT((#579,#581,#582))
REPRESENTATION_CONTEXT('','3D')
);
#579=(
LENGTH_UNIT()
NAMED_UNIT(*)
SI_UNIT(.MILLI.,.METRE.)
);
#580=(
LENGTH_UNIT()
NAMED_UNIT(*)
SI_UNIT($,.METRE.)
);
#581=(
NAMED_UNIT(*)
PLANE_ANGLE_UNIT()
SI_UNIT($,.RADIAN.)
);
#582=(
NAMED_UNIT(*)
SI_UNIT($,.STERADIAN.)
SOLID_ANGLE_UNIT()
);
#583=SHAPE_DEFINITION_REPRESENTATION(#584,#585);
#584=PRODUCT_DEFINITION_SHAPE('',$,#587);
#585=SHAPE_REPRESENTATION('',(#324),#577);
#586=PRODUCT_DEFINITION_CONTEXT('part definition',#591,'design');
#587=PRODUCT_DEFINITION('Unterer_Teller','Unterer_Teller',#588,#586);
#588=PRODUCT_DEFINITION_FORMATION('',$,#593);
#589=PRODUCT_RELATED_PRODUCT_CATEGORY('Unterer_Teller','Unterer_Teller',
(#593));
#590=APPLICATION_PROTOCOL_DEFINITION('international standard',
'automotive_design',2009,#591);
#591=APPLICATION_CONTEXT(
'Core Data for Automotive Mechanical Design Process');
#592=PRODUCT_CONTEXT('part definition',#591,'mechanical');
#593=PRODUCT('Unterer_Teller','Unterer_Teller',$,(#592));
#594=PRESENTATION_STYLE_ASSIGNMENT((#595));
#595=SURFACE_STYLE_USAGE(.BOTH.,#596);
#596=SURFACE_SIDE_STYLE('',(#597));
#597=SURFACE_STYLE_FILL_AREA(#598);
#598=FILL_AREA_STYLE('Stahl - satiniert',(#599));
#599=FILL_AREA_STYLE_COLOUR('Stahl - satiniert',#600);
#600=COLOUR_RGB('Stahl - satiniert',0.627450980392157,0.627450980392157,
0.627450980392157);
ENDSEC;
END-ISO-10303-21;
