ISO-10303-21;
HEADER;
/* Generated by software containing ST-Developer
 * from STEP Tools, Inc. (www.steptools.com) 
 */

FILE_DESCRIPTION(
/* description */ (''),
/* implementation_level */ '2;1');

FILE_NAME(
/* name */ 'Unterer Teller.step',
/* time_stamp */ '2025-06-11T09:54:03+02:00',
/* author */ (''),
/* organization */ (''),
/* preprocessor_version */ 'ST-DEVELOPER v20.1',
/* originating_system */ 'Autodesk Translation Framework v14.4.0.0',
/* authorisation */ '');

FILE_SCHEMA (('AUTOMOTIVE_DESIGN { 1 0 10303 214 3 1 1 }'));
ENDSEC;

DATA;
#10=MECHANICAL_DESIGN_GEOMETRIC_PRESENTATION_REPRESENTATION('',(#13),#955);
#11=SHAPE_REPRESENTATION_RELATIONSHIP('SRR','None',#962,#12);
#12=ADVANCED_BREP_SHAPE_REPRESENTATION('',(#14),#954);
#13=STYLED_ITEM('',(#972),#14);
#14=MANIFOLD_SOLID_BREP('Unterer Teller',#485);
#15=CYLINDRICAL_SURFACE('',#538,70.);
#16=CYLINDRICAL_SURFACE('',#548,5.);
#17=CYLINDRICAL_SURFACE('',#553,5.);
#18=CYLINDRICAL_SURFACE('',#558,5.);
#19=CYLINDRICAL_SURFACE('',#563,5.);
#20=CYLINDRICAL_SURFACE('',#565,2.6);
#21=CYLINDRICAL_SURFACE('',#566,2.6);
#22=FACE_BOUND('',#91,.T.);
#23=FACE_BOUND('',#92,.T.);
#24=FACE_BOUND('',#96,.T.);
#25=FACE_BOUND('',#97,.T.);
#26=PLANE('',#535);
#27=PLANE('',#542);
#28=PLANE('',#549);
#29=PLANE('',#554);
#30=PLANE('',#559);
#31=PLANE('',#564);
#32=TOROIDAL_SURFACE('',#512,9.,4.);
#33=TOROIDAL_SURFACE('',#517,9.,4.);
#34=TOROIDAL_SURFACE('',#523,9.,4.);
#35=TOROIDAL_SURFACE('',#529,9.,4.);
#36=B_SPLINE_CURVE_WITH_KNOTS('',3,(#756,#757,#758,#759),.UNSPECIFIED.,
 .F.,.F.,(4,4),(2.85551438195729,2.91523089007436),.UNSPECIFIED.);
#37=B_SPLINE_CURVE_WITH_KNOTS('',3,(#760,#761,#762,#763),.UNSPECIFIED.,
 .F.,.F.,(4,4),(-2.91523089007436,-2.85551438195729),.UNSPECIFIED.);
#38=B_SPLINE_CURVE_WITH_KNOTS('',3,(#789,#790,#791,#792),.UNSPECIFIED.,
 .F.,.F.,(4,4),(1.28471805516239,1.34443456327946),.UNSPECIFIED.);
#39=B_SPLINE_CURVE_WITH_KNOTS('',3,(#793,#794,#795,#796),.UNSPECIFIED.,
 .F.,.F.,(4,4),(-1.34443456327946,-1.28471805516239),.UNSPECIFIED.);
#40=B_SPLINE_CURVE_WITH_KNOTS('',3,(#822,#823,#824,#825),.UNSPECIFIED.,
 .F.,.F.,(4,4),(-0.286078271632504,-0.226361763515433),.UNSPECIFIED.);
#41=B_SPLINE_CURVE_WITH_KNOTS('',3,(#826,#827,#828,#829),.UNSPECIFIED.,
 .F.,.F.,(4,4),(0.226361763515433,0.286078271632504),.UNSPECIFIED.);
#42=B_SPLINE_CURVE_WITH_KNOTS('',3,(#852,#853,#854,#855),.UNSPECIFIED.,
 .F.,.F.,(4,4),(4.42631070875218,4.48602721686926),.UNSPECIFIED.);
#43=B_SPLINE_CURVE_WITH_KNOTS('',3,(#856,#857,#858,#859),.UNSPECIFIED.,
 .F.,.F.,(4,4),(-4.48602721686926,-4.42631070875218),.UNSPECIFIED.);
#44=B_SPLINE_SURFACE_WITH_KNOTS('',3,3,((#737,#738,#739,#740),(#741,#742,
#743,#744),(#745,#746,#747,#748),(#749,#750,#751,#752)),.UNSPECIFIED.,.F.,
 .F.,.F.,(4,4),(4,4),(0.,1.),(-2.91523089007436,-2.85551438195729),
 .UNSPECIFIED.);
#45=B_SPLINE_SURFACE_WITH_KNOTS('',3,3,((#770,#771,#772,#773),(#774,#775,
#776,#777),(#778,#779,#780,#781),(#782,#783,#784,#785)),.UNSPECIFIED.,.F.,
 .F.,.F.,(4,4),(4,4),(0.,1.),(-1.34443456327946,-1.28471805516239),
 .UNSPECIFIED.);
#46=B_SPLINE_SURFACE_WITH_KNOTS('',3,3,((#803,#804,#805,#806),(#807,#808,
#809,#810),(#811,#812,#813,#814),(#815,#816,#817,#818)),.UNSPECIFIED.,.F.,
 .F.,.F.,(4,4),(4,4),(0.,1.),(0.226361763515433,0.286078271632504),
 .UNSPECIFIED.);
#47=B_SPLINE_SURFACE_WITH_KNOTS('',3,3,((#836,#837,#838,#839),(#840,#841,
#842,#843),(#844,#845,#846,#847),(#848,#849,#850,#851)),.UNSPECIFIED.,.F.,
 .F.,.F.,(4,4),(4,4),(0.,1.),(-4.48602721686926,-4.42631070875218),
 .UNSPECIFIED.);
#48=FACE_OUTER_BOUND('',#78,.T.);
#49=FACE_OUTER_BOUND('',#79,.T.);
#50=FACE_OUTER_BOUND('',#80,.T.);
#51=FACE_OUTER_BOUND('',#81,.T.);
#52=FACE_OUTER_BOUND('',#82,.T.);
#53=FACE_OUTER_BOUND('',#83,.T.);
#54=FACE_OUTER_BOUND('',#84,.T.);
#55=FACE_OUTER_BOUND('',#85,.T.);
#56=FACE_OUTER_BOUND('',#86,.T.);
#57=FACE_OUTER_BOUND('',#87,.T.);
#58=FACE_OUTER_BOUND('',#88,.T.);
#59=FACE_OUTER_BOUND('',#89,.T.);
#60=FACE_OUTER_BOUND('',#90,.T.);
#61=FACE_OUTER_BOUND('',#93,.T.);
#62=FACE_OUTER_BOUND('',#94,.T.);
#63=FACE_OUTER_BOUND('',#95,.T.);
#64=FACE_OUTER_BOUND('',#98,.T.);
#65=FACE_OUTER_BOUND('',#99,.T.);
#66=FACE_OUTER_BOUND('',#100,.T.);
#67=FACE_OUTER_BOUND('',#101,.T.);
#68=FACE_OUTER_BOUND('',#102,.T.);
#69=FACE_OUTER_BOUND('',#103,.T.);
#70=FACE_OUTER_BOUND('',#104,.T.);
#71=FACE_OUTER_BOUND('',#105,.T.);
#72=FACE_OUTER_BOUND('',#106,.T.);
#73=FACE_OUTER_BOUND('',#107,.T.);
#74=FACE_OUTER_BOUND('',#108,.T.);
#75=FACE_OUTER_BOUND('',#109,.T.);
#76=FACE_OUTER_BOUND('',#110,.T.);
#77=FACE_OUTER_BOUND('',#111,.T.);
#78=EDGE_LOOP('',(#306,#307,#308,#309,#310));
#79=EDGE_LOOP('',(#311,#312,#313,#314));
#80=EDGE_LOOP('',(#315,#316,#317,#318));
#81=EDGE_LOOP('',(#319,#320,#321,#322));
#82=EDGE_LOOP('',(#323,#324,#325,#326));
#83=EDGE_LOOP('',(#327,#328,#329,#330));
#84=EDGE_LOOP('',(#331,#332,#333,#334));
#85=EDGE_LOOP('',(#335,#336,#337,#338));
#86=EDGE_LOOP('',(#339,#340,#341,#342,#343,#344));
#87=EDGE_LOOP('',(#345,#346,#347,#348,#349,#350,#351));
#88=EDGE_LOOP('',(#352,#353,#354,#355,#356,#357,#358));
#89=EDGE_LOOP('',(#359,#360,#361,#362,#363,#364,#365));
#90=EDGE_LOOP('',(#366,#367,#368,#369,#370,#371,#372,#373,#374,#375,#376,
#377));
#91=EDGE_LOOP('',(#378));
#92=EDGE_LOOP('',(#379));
#93=EDGE_LOOP('',(#380,#381,#382,#383,#384,#385,#386,#387,#388,#389,#390,
#391));
#94=EDGE_LOOP('',(#392,#393,#394,#395));
#95=EDGE_LOOP('',(#396));
#96=EDGE_LOOP('',(#397));
#97=EDGE_LOOP('',(#398));
#98=EDGE_LOOP('',(#399,#400,#401,#402));
#99=EDGE_LOOP('',(#403,#404,#405,#406,#407));
#100=EDGE_LOOP('',(#408));
#101=EDGE_LOOP('',(#409,#410,#411,#412));
#102=EDGE_LOOP('',(#413,#414,#415,#416,#417));
#103=EDGE_LOOP('',(#418));
#104=EDGE_LOOP('',(#419,#420,#421,#422));
#105=EDGE_LOOP('',(#423,#424,#425,#426,#427));
#106=EDGE_LOOP('',(#428));
#107=EDGE_LOOP('',(#429,#430,#431,#432));
#108=EDGE_LOOP('',(#433,#434,#435,#436));
#109=EDGE_LOOP('',(#437));
#110=EDGE_LOOP('',(#438,#439,#440,#441));
#111=EDGE_LOOP('',(#442,#443,#444,#445));
#112=CIRCLE('',#500,70.);
#113=CIRCLE('',#501,70.);
#114=CIRCLE('',#502,69.5);
#115=CIRCLE('',#504,70.);
#116=CIRCLE('',#505,69.5);
#117=CIRCLE('',#507,70.);
#118=CIRCLE('',#508,69.5);
#119=CIRCLE('',#510,70.);
#120=CIRCLE('',#511,69.5);
#121=CIRCLE('',#513,5.);
#122=CIRCLE('',#514,4.);
#123=CIRCLE('',#515,9.);
#124=CIRCLE('',#516,9.);
#125=CIRCLE('',#518,5.);
#126=CIRCLE('',#519,4.);
#127=CIRCLE('',#520,9.);
#128=CIRCLE('',#521,9.);
#129=CIRCLE('',#522,5.);
#130=CIRCLE('',#524,5.);
#131=CIRCLE('',#525,4.);
#132=CIRCLE('',#526,9.);
#133=CIRCLE('',#527,9.);
#134=CIRCLE('',#528,5.);
#135=CIRCLE('',#530,5.);
#136=CIRCLE('',#531,4.);
#137=CIRCLE('',#532,9.);
#138=CIRCLE('',#533,9.);
#139=CIRCLE('',#534,5.);
#140=CIRCLE('',#536,2.6);
#141=CIRCLE('',#537,2.6);
#142=CIRCLE('',#539,70.);
#143=CIRCLE('',#541,69.5);
#144=CIRCLE('',#543,2.6);
#145=CIRCLE('',#544,2.6);
#146=CIRCLE('',#546,4.2);
#147=CIRCLE('',#547,5.);
#148=CIRCLE('',#551,4.2);
#149=CIRCLE('',#552,5.);
#150=CIRCLE('',#556,4.2);
#151=CIRCLE('',#557,5.);
#152=CIRCLE('',#561,4.2);
#153=CIRCLE('',#562,5.);
#154=LINE('',#729,#174);
#155=LINE('',#735,#175);
#156=LINE('',#755,#176);
#157=LINE('',#768,#177);
#158=LINE('',#788,#178);
#159=LINE('',#801,#179);
#160=LINE('',#821,#180);
#161=LINE('',#834,#181);
#162=LINE('',#901,#182);
#163=LINE('',#905,#183);
#164=LINE('',#916,#184);
#165=LINE('',#919,#185);
#166=LINE('',#925,#186);
#167=LINE('',#928,#187);
#168=LINE('',#934,#188);
#169=LINE('',#937,#189);
#170=LINE('',#943,#190);
#171=LINE('',#946,#191);
#172=LINE('',#949,#192);
#173=LINE('',#951,#193);
#174=VECTOR('',#571,10.);
#175=VECTOR('',#576,10.);
#176=VECTOR('',#579,10.);
#177=VECTOR('',#584,10.);
#178=VECTOR('',#587,10.);
#179=VECTOR('',#592,10.);
#180=VECTOR('',#595,10.);
#181=VECTOR('',#600,10.);
#182=VECTOR('',#657,70.);
#183=VECTOR('',#662,69.75);
#184=VECTOR('',#675,4.6);
#185=VECTOR('',#680,5.);
#186=VECTOR('',#687,4.6);
#187=VECTOR('',#692,5.);
#188=VECTOR('',#699,4.6);
#189=VECTOR('',#704,5.);
#190=VECTOR('',#711,4.6);
#191=VECTOR('',#716,5.);
#192=VECTOR('',#721,2.6);
#193=VECTOR('',#724,2.6);
#194=VERTEX_POINT('',#727);
#195=VERTEX_POINT('',#728);
#196=VERTEX_POINT('',#730);
#197=VERTEX_POINT('',#732);
#198=VERTEX_POINT('',#734);
#199=VERTEX_POINT('',#753);
#200=VERTEX_POINT('',#754);
#201=VERTEX_POINT('',#765);
#202=VERTEX_POINT('',#767);
#203=VERTEX_POINT('',#786);
#204=VERTEX_POINT('',#787);
#205=VERTEX_POINT('',#798);
#206=VERTEX_POINT('',#800);
#207=VERTEX_POINT('',#819);
#208=VERTEX_POINT('',#820);
#209=VERTEX_POINT('',#831);
#210=VERTEX_POINT('',#833);
#211=VERTEX_POINT('',#861);
#212=VERTEX_POINT('',#863);
#213=VERTEX_POINT('',#868);
#214=VERTEX_POINT('',#869);
#215=VERTEX_POINT('',#871);
#216=VERTEX_POINT('',#877);
#217=VERTEX_POINT('',#878);
#218=VERTEX_POINT('',#880);
#219=VERTEX_POINT('',#886);
#220=VERTEX_POINT('',#887);
#221=VERTEX_POINT('',#889);
#222=VERTEX_POINT('',#895);
#223=VERTEX_POINT('',#897);
#224=VERTEX_POINT('',#900);
#225=VERTEX_POINT('',#904);
#226=VERTEX_POINT('',#908);
#227=VERTEX_POINT('',#910);
#228=VERTEX_POINT('',#913);
#229=VERTEX_POINT('',#915);
#230=VERTEX_POINT('',#922);
#231=VERTEX_POINT('',#924);
#232=VERTEX_POINT('',#931);
#233=VERTEX_POINT('',#933);
#234=VERTEX_POINT('',#940);
#235=VERTEX_POINT('',#942);
#236=EDGE_CURVE('',#194,#195,#154,.T.);
#237=EDGE_CURVE('',#195,#196,#112,.T.);
#238=EDGE_CURVE('',#196,#197,#113,.T.);
#239=EDGE_CURVE('',#197,#198,#155,.T.);
#240=EDGE_CURVE('',#198,#194,#114,.T.);
#241=EDGE_CURVE('',#199,#200,#156,.T.);
#242=EDGE_CURVE('',#200,#198,#36,.T.);
#243=EDGE_CURVE('',#197,#199,#37,.T.);
#244=EDGE_CURVE('',#199,#201,#115,.T.);
#245=EDGE_CURVE('',#201,#202,#157,.T.);
#246=EDGE_CURVE('',#202,#200,#116,.T.);
#247=EDGE_CURVE('',#203,#204,#158,.T.);
#248=EDGE_CURVE('',#204,#202,#38,.T.);
#249=EDGE_CURVE('',#201,#203,#39,.T.);
#250=EDGE_CURVE('',#203,#205,#117,.T.);
#251=EDGE_CURVE('',#205,#206,#159,.T.);
#252=EDGE_CURVE('',#206,#204,#118,.T.);
#253=EDGE_CURVE('',#207,#208,#160,.T.);
#254=EDGE_CURVE('',#208,#206,#40,.T.);
#255=EDGE_CURVE('',#205,#207,#41,.T.);
#256=EDGE_CURVE('',#207,#209,#119,.T.);
#257=EDGE_CURVE('',#209,#210,#161,.T.);
#258=EDGE_CURVE('',#210,#208,#120,.T.);
#259=EDGE_CURVE('',#194,#210,#42,.T.);
#260=EDGE_CURVE('',#209,#195,#43,.T.);
#261=EDGE_CURVE('',#211,#211,#121,.T.);
#262=EDGE_CURVE('',#211,#212,#122,.T.);
#263=EDGE_CURVE('',#212,#202,#123,.T.);
#264=EDGE_CURVE('',#204,#212,#124,.T.);
#265=EDGE_CURVE('',#213,#214,#125,.T.);
#266=EDGE_CURVE('',#214,#215,#126,.T.);
#267=EDGE_CURVE('',#215,#206,#127,.T.);
#268=EDGE_CURVE('',#208,#215,#128,.T.);
#269=EDGE_CURVE('',#214,#213,#129,.T.);
#270=EDGE_CURVE('',#216,#217,#130,.T.);
#271=EDGE_CURVE('',#217,#218,#131,.T.);
#272=EDGE_CURVE('',#218,#198,#132,.T.);
#273=EDGE_CURVE('',#200,#218,#133,.T.);
#274=EDGE_CURVE('',#217,#216,#134,.T.);
#275=EDGE_CURVE('',#219,#220,#135,.T.);
#276=EDGE_CURVE('',#220,#221,#136,.T.);
#277=EDGE_CURVE('',#221,#210,#137,.T.);
#278=EDGE_CURVE('',#194,#221,#138,.T.);
#279=EDGE_CURVE('',#220,#219,#139,.T.);
#280=EDGE_CURVE('',#222,#222,#140,.T.);
#281=EDGE_CURVE('',#223,#223,#141,.T.);
#282=EDGE_CURVE('',#196,#224,#162,.T.);
#283=EDGE_CURVE('',#224,#224,#142,.T.);
#284=EDGE_CURVE('',#224,#225,#163,.T.);
#285=EDGE_CURVE('',#225,#225,#143,.T.);
#286=EDGE_CURVE('',#226,#226,#144,.T.);
#287=EDGE_CURVE('',#227,#227,#145,.T.);
#288=EDGE_CURVE('',#228,#228,#146,.T.);
#289=EDGE_CURVE('',#228,#229,#164,.T.);
#290=EDGE_CURVE('',#229,#229,#147,.T.);
#291=EDGE_CURVE('',#229,#216,#165,.T.);
#292=EDGE_CURVE('',#230,#230,#148,.T.);
#293=EDGE_CURVE('',#230,#231,#166,.T.);
#294=EDGE_CURVE('',#231,#231,#149,.T.);
#295=EDGE_CURVE('',#231,#219,#167,.T.);
#296=EDGE_CURVE('',#232,#232,#150,.T.);
#297=EDGE_CURVE('',#232,#233,#168,.T.);
#298=EDGE_CURVE('',#233,#233,#151,.T.);
#299=EDGE_CURVE('',#233,#213,#169,.T.);
#300=EDGE_CURVE('',#234,#234,#152,.T.);
#301=EDGE_CURVE('',#234,#235,#170,.T.);
#302=EDGE_CURVE('',#235,#235,#153,.T.);
#303=EDGE_CURVE('',#235,#211,#171,.T.);
#304=EDGE_CURVE('',#222,#226,#172,.T.);
#305=EDGE_CURVE('',#223,#227,#173,.T.);
#306=ORIENTED_EDGE('',*,*,#236,.T.);
#307=ORIENTED_EDGE('',*,*,#237,.T.);
#308=ORIENTED_EDGE('',*,*,#238,.T.);
#309=ORIENTED_EDGE('',*,*,#239,.T.);
#310=ORIENTED_EDGE('',*,*,#240,.T.);
#311=ORIENTED_EDGE('',*,*,#241,.T.);
#312=ORIENTED_EDGE('',*,*,#242,.T.);
#313=ORIENTED_EDGE('',*,*,#239,.F.);
#314=ORIENTED_EDGE('',*,*,#243,.T.);
#315=ORIENTED_EDGE('',*,*,#241,.F.);
#316=ORIENTED_EDGE('',*,*,#244,.T.);
#317=ORIENTED_EDGE('',*,*,#245,.T.);
#318=ORIENTED_EDGE('',*,*,#246,.T.);
#319=ORIENTED_EDGE('',*,*,#247,.T.);
#320=ORIENTED_EDGE('',*,*,#248,.T.);
#321=ORIENTED_EDGE('',*,*,#245,.F.);
#322=ORIENTED_EDGE('',*,*,#249,.T.);
#323=ORIENTED_EDGE('',*,*,#247,.F.);
#324=ORIENTED_EDGE('',*,*,#250,.T.);
#325=ORIENTED_EDGE('',*,*,#251,.T.);
#326=ORIENTED_EDGE('',*,*,#252,.T.);
#327=ORIENTED_EDGE('',*,*,#253,.T.);
#328=ORIENTED_EDGE('',*,*,#254,.T.);
#329=ORIENTED_EDGE('',*,*,#251,.F.);
#330=ORIENTED_EDGE('',*,*,#255,.T.);
#331=ORIENTED_EDGE('',*,*,#253,.F.);
#332=ORIENTED_EDGE('',*,*,#256,.T.);
#333=ORIENTED_EDGE('',*,*,#257,.T.);
#334=ORIENTED_EDGE('',*,*,#258,.T.);
#335=ORIENTED_EDGE('',*,*,#236,.F.);
#336=ORIENTED_EDGE('',*,*,#259,.T.);
#337=ORIENTED_EDGE('',*,*,#257,.F.);
#338=ORIENTED_EDGE('',*,*,#260,.T.);
#339=ORIENTED_EDGE('',*,*,#261,.T.);
#340=ORIENTED_EDGE('',*,*,#262,.T.);
#341=ORIENTED_EDGE('',*,*,#263,.T.);
#342=ORIENTED_EDGE('',*,*,#248,.F.);
#343=ORIENTED_EDGE('',*,*,#264,.T.);
#344=ORIENTED_EDGE('',*,*,#262,.F.);
#345=ORIENTED_EDGE('',*,*,#265,.T.);
#346=ORIENTED_EDGE('',*,*,#266,.T.);
#347=ORIENTED_EDGE('',*,*,#267,.T.);
#348=ORIENTED_EDGE('',*,*,#254,.F.);
#349=ORIENTED_EDGE('',*,*,#268,.T.);
#350=ORIENTED_EDGE('',*,*,#266,.F.);
#351=ORIENTED_EDGE('',*,*,#269,.T.);
#352=ORIENTED_EDGE('',*,*,#270,.T.);
#353=ORIENTED_EDGE('',*,*,#271,.T.);
#354=ORIENTED_EDGE('',*,*,#272,.T.);
#355=ORIENTED_EDGE('',*,*,#242,.F.);
#356=ORIENTED_EDGE('',*,*,#273,.T.);
#357=ORIENTED_EDGE('',*,*,#271,.F.);
#358=ORIENTED_EDGE('',*,*,#274,.T.);
#359=ORIENTED_EDGE('',*,*,#275,.T.);
#360=ORIENTED_EDGE('',*,*,#276,.T.);
#361=ORIENTED_EDGE('',*,*,#277,.T.);
#362=ORIENTED_EDGE('',*,*,#259,.F.);
#363=ORIENTED_EDGE('',*,*,#278,.T.);
#364=ORIENTED_EDGE('',*,*,#276,.F.);
#365=ORIENTED_EDGE('',*,*,#279,.T.);
#366=ORIENTED_EDGE('',*,*,#252,.F.);
#367=ORIENTED_EDGE('',*,*,#267,.F.);
#368=ORIENTED_EDGE('',*,*,#268,.F.);
#369=ORIENTED_EDGE('',*,*,#258,.F.);
#370=ORIENTED_EDGE('',*,*,#277,.F.);
#371=ORIENTED_EDGE('',*,*,#278,.F.);
#372=ORIENTED_EDGE('',*,*,#240,.F.);
#373=ORIENTED_EDGE('',*,*,#272,.F.);
#374=ORIENTED_EDGE('',*,*,#273,.F.);
#375=ORIENTED_EDGE('',*,*,#246,.F.);
#376=ORIENTED_EDGE('',*,*,#263,.F.);
#377=ORIENTED_EDGE('',*,*,#264,.F.);
#378=ORIENTED_EDGE('',*,*,#280,.T.);
#379=ORIENTED_EDGE('',*,*,#281,.T.);
#380=ORIENTED_EDGE('',*,*,#237,.F.);
#381=ORIENTED_EDGE('',*,*,#260,.F.);
#382=ORIENTED_EDGE('',*,*,#256,.F.);
#383=ORIENTED_EDGE('',*,*,#255,.F.);
#384=ORIENTED_EDGE('',*,*,#250,.F.);
#385=ORIENTED_EDGE('',*,*,#249,.F.);
#386=ORIENTED_EDGE('',*,*,#244,.F.);
#387=ORIENTED_EDGE('',*,*,#243,.F.);
#388=ORIENTED_EDGE('',*,*,#238,.F.);
#389=ORIENTED_EDGE('',*,*,#282,.T.);
#390=ORIENTED_EDGE('',*,*,#283,.F.);
#391=ORIENTED_EDGE('',*,*,#282,.F.);
#392=ORIENTED_EDGE('',*,*,#283,.T.);
#393=ORIENTED_EDGE('',*,*,#284,.T.);
#394=ORIENTED_EDGE('',*,*,#285,.T.);
#395=ORIENTED_EDGE('',*,*,#284,.F.);
#396=ORIENTED_EDGE('',*,*,#285,.F.);
#397=ORIENTED_EDGE('',*,*,#286,.F.);
#398=ORIENTED_EDGE('',*,*,#287,.F.);
#399=ORIENTED_EDGE('',*,*,#288,.T.);
#400=ORIENTED_EDGE('',*,*,#289,.T.);
#401=ORIENTED_EDGE('',*,*,#290,.T.);
#402=ORIENTED_EDGE('',*,*,#289,.F.);
#403=ORIENTED_EDGE('',*,*,#290,.F.);
#404=ORIENTED_EDGE('',*,*,#291,.T.);
#405=ORIENTED_EDGE('',*,*,#274,.F.);
#406=ORIENTED_EDGE('',*,*,#270,.F.);
#407=ORIENTED_EDGE('',*,*,#291,.F.);
#408=ORIENTED_EDGE('',*,*,#288,.F.);
#409=ORIENTED_EDGE('',*,*,#292,.T.);
#410=ORIENTED_EDGE('',*,*,#293,.T.);
#411=ORIENTED_EDGE('',*,*,#294,.T.);
#412=ORIENTED_EDGE('',*,*,#293,.F.);
#413=ORIENTED_EDGE('',*,*,#294,.F.);
#414=ORIENTED_EDGE('',*,*,#295,.T.);
#415=ORIENTED_EDGE('',*,*,#279,.F.);
#416=ORIENTED_EDGE('',*,*,#275,.F.);
#417=ORIENTED_EDGE('',*,*,#295,.F.);
#418=ORIENTED_EDGE('',*,*,#292,.F.);
#419=ORIENTED_EDGE('',*,*,#296,.T.);
#420=ORIENTED_EDGE('',*,*,#297,.T.);
#421=ORIENTED_EDGE('',*,*,#298,.T.);
#422=ORIENTED_EDGE('',*,*,#297,.F.);
#423=ORIENTED_EDGE('',*,*,#298,.F.);
#424=ORIENTED_EDGE('',*,*,#299,.T.);
#425=ORIENTED_EDGE('',*,*,#269,.F.);
#426=ORIENTED_EDGE('',*,*,#265,.F.);
#427=ORIENTED_EDGE('',*,*,#299,.F.);
#428=ORIENTED_EDGE('',*,*,#296,.F.);
#429=ORIENTED_EDGE('',*,*,#300,.T.);
#430=ORIENTED_EDGE('',*,*,#301,.T.);
#431=ORIENTED_EDGE('',*,*,#302,.T.);
#432=ORIENTED_EDGE('',*,*,#301,.F.);
#433=ORIENTED_EDGE('',*,*,#302,.F.);
#434=ORIENTED_EDGE('',*,*,#303,.T.);
#435=ORIENTED_EDGE('',*,*,#261,.F.);
#436=ORIENTED_EDGE('',*,*,#303,.F.);
#437=ORIENTED_EDGE('',*,*,#300,.F.);
#438=ORIENTED_EDGE('',*,*,#280,.F.);
#439=ORIENTED_EDGE('',*,*,#304,.T.);
#440=ORIENTED_EDGE('',*,*,#286,.T.);
#441=ORIENTED_EDGE('',*,*,#304,.F.);
#442=ORIENTED_EDGE('',*,*,#281,.F.);
#443=ORIENTED_EDGE('',*,*,#305,.T.);
#444=ORIENTED_EDGE('',*,*,#287,.T.);
#445=ORIENTED_EDGE('',*,*,#305,.F.);
#446=CONICAL_SURFACE('',#499,69.75,0.785398163397455);
#447=CONICAL_SURFACE('',#503,69.75,0.785398163397455);
#448=CONICAL_SURFACE('',#506,69.75,0.785398163397455);
#449=CONICAL_SURFACE('',#509,69.75,0.785398163397455);
#450=CONICAL_SURFACE('',#540,69.75,0.785398163397455);
#451=CONICAL_SURFACE('',#545,4.6,0.785398163397448);
#452=CONICAL_SURFACE('',#550,4.6,0.785398163397448);
#453=CONICAL_SURFACE('',#555,4.6,0.785398163397448);
#454=CONICAL_SURFACE('',#560,4.6,0.785398163397448);
#455=ADVANCED_FACE('',(#48),#446,.T.);
#456=ADVANCED_FACE('',(#49),#44,.T.);
#457=ADVANCED_FACE('',(#50),#447,.T.);
#458=ADVANCED_FACE('',(#51),#45,.T.);
#459=ADVANCED_FACE('',(#52),#448,.T.);
#460=ADVANCED_FACE('',(#53),#46,.T.);
#461=ADVANCED_FACE('',(#54),#449,.T.);
#462=ADVANCED_FACE('',(#55),#47,.T.);
#463=ADVANCED_FACE('',(#56),#32,.F.);
#464=ADVANCED_FACE('',(#57),#33,.F.);
#465=ADVANCED_FACE('',(#58),#34,.F.);
#466=ADVANCED_FACE('',(#59),#35,.F.);
#467=ADVANCED_FACE('',(#60,#22,#23),#26,.T.);
#468=ADVANCED_FACE('',(#61),#15,.T.);
#469=ADVANCED_FACE('',(#62),#450,.T.);
#470=ADVANCED_FACE('',(#63,#24,#25),#27,.F.);
#471=ADVANCED_FACE('',(#64),#451,.T.);
#472=ADVANCED_FACE('',(#65),#16,.T.);
#473=ADVANCED_FACE('',(#66),#28,.T.);
#474=ADVANCED_FACE('',(#67),#452,.T.);
#475=ADVANCED_FACE('',(#68),#17,.T.);
#476=ADVANCED_FACE('',(#69),#29,.T.);
#477=ADVANCED_FACE('',(#70),#453,.T.);
#478=ADVANCED_FACE('',(#71),#18,.T.);
#479=ADVANCED_FACE('',(#72),#30,.T.);
#480=ADVANCED_FACE('',(#73),#454,.T.);
#481=ADVANCED_FACE('',(#74),#19,.T.);
#482=ADVANCED_FACE('',(#75),#31,.T.);
#483=ADVANCED_FACE('',(#76),#20,.F.);
#484=ADVANCED_FACE('',(#77),#21,.F.);
#485=CLOSED_SHELL('',(#455,#456,#457,#458,#459,#460,#461,#462,#463,#464,
#465,#466,#467,#468,#469,#470,#471,#472,#473,#474,#475,#476,#477,#478,#479,
#480,#481,#482,#483,#484));
#486=DERIVED_UNIT_ELEMENT(#488,1.);
#487=DERIVED_UNIT_ELEMENT(#957,-3.);
#488=(
MASS_UNIT()
NAMED_UNIT(*)
SI_UNIT(.KILO.,.GRAM.)
);
#489=DERIVED_UNIT((#486,#487));
#490=MEASURE_REPRESENTATION_ITEM('density measure',
POSITIVE_RATIO_MEASURE(7850.),#489);
#491=PROPERTY_DEFINITION_REPRESENTATION(#496,#493);
#492=PROPERTY_DEFINITION_REPRESENTATION(#497,#494);
#493=REPRESENTATION('material name',(#495),#954);
#494=REPRESENTATION('density',(#490),#954);
#495=DESCRIPTIVE_REPRESENTATION_ITEM('Stahl','Stahl');
#496=PROPERTY_DEFINITION('material property','material name',#964);
#497=PROPERTY_DEFINITION('material property','density of part',#964);
#498=AXIS2_PLACEMENT_3D('',#725,#567,#568);
#499=AXIS2_PLACEMENT_3D('',#726,#569,#570);
#500=AXIS2_PLACEMENT_3D('',#731,#572,#573);
#501=AXIS2_PLACEMENT_3D('',#733,#574,#575);
#502=AXIS2_PLACEMENT_3D('',#736,#577,#578);
#503=AXIS2_PLACEMENT_3D('',#764,#580,#581);
#504=AXIS2_PLACEMENT_3D('',#766,#582,#583);
#505=AXIS2_PLACEMENT_3D('',#769,#585,#586);
#506=AXIS2_PLACEMENT_3D('',#797,#588,#589);
#507=AXIS2_PLACEMENT_3D('',#799,#590,#591);
#508=AXIS2_PLACEMENT_3D('',#802,#593,#594);
#509=AXIS2_PLACEMENT_3D('',#830,#596,#597);
#510=AXIS2_PLACEMENT_3D('',#832,#598,#599);
#511=AXIS2_PLACEMENT_3D('',#835,#601,#602);
#512=AXIS2_PLACEMENT_3D('',#860,#603,#604);
#513=AXIS2_PLACEMENT_3D('',#862,#605,#606);
#514=AXIS2_PLACEMENT_3D('',#864,#607,#608);
#515=AXIS2_PLACEMENT_3D('',#865,#609,#610);
#516=AXIS2_PLACEMENT_3D('',#866,#611,#612);
#517=AXIS2_PLACEMENT_3D('',#867,#613,#614);
#518=AXIS2_PLACEMENT_3D('',#870,#615,#616);
#519=AXIS2_PLACEMENT_3D('',#872,#617,#618);
#520=AXIS2_PLACEMENT_3D('',#873,#619,#620);
#521=AXIS2_PLACEMENT_3D('',#874,#621,#622);
#522=AXIS2_PLACEMENT_3D('',#875,#623,#624);
#523=AXIS2_PLACEMENT_3D('',#876,#625,#626);
#524=AXIS2_PLACEMENT_3D('',#879,#627,#628);
#525=AXIS2_PLACEMENT_3D('',#881,#629,#630);
#526=AXIS2_PLACEMENT_3D('',#882,#631,#632);
#527=AXIS2_PLACEMENT_3D('',#883,#633,#634);
#528=AXIS2_PLACEMENT_3D('',#884,#635,#636);
#529=AXIS2_PLACEMENT_3D('',#885,#637,#638);
#530=AXIS2_PLACEMENT_3D('',#888,#639,#640);
#531=AXIS2_PLACEMENT_3D('',#890,#641,#642);
#532=AXIS2_PLACEMENT_3D('',#891,#643,#644);
#533=AXIS2_PLACEMENT_3D('',#892,#645,#646);
#534=AXIS2_PLACEMENT_3D('',#893,#647,#648);
#535=AXIS2_PLACEMENT_3D('',#894,#649,#650);
#536=AXIS2_PLACEMENT_3D('',#896,#651,#652);
#537=AXIS2_PLACEMENT_3D('',#898,#653,#654);
#538=AXIS2_PLACEMENT_3D('',#899,#655,#656);
#539=AXIS2_PLACEMENT_3D('',#902,#658,#659);
#540=AXIS2_PLACEMENT_3D('',#903,#660,#661);
#541=AXIS2_PLACEMENT_3D('',#906,#663,#664);
#542=AXIS2_PLACEMENT_3D('',#907,#665,#666);
#543=AXIS2_PLACEMENT_3D('',#909,#667,#668);
#544=AXIS2_PLACEMENT_3D('',#911,#669,#670);
#545=AXIS2_PLACEMENT_3D('',#912,#671,#672);
#546=AXIS2_PLACEMENT_3D('',#914,#673,#674);
#547=AXIS2_PLACEMENT_3D('',#917,#676,#677);
#548=AXIS2_PLACEMENT_3D('',#918,#678,#679);
#549=AXIS2_PLACEMENT_3D('',#920,#681,#682);
#550=AXIS2_PLACEMENT_3D('',#921,#683,#684);
#551=AXIS2_PLACEMENT_3D('',#923,#685,#686);
#552=AXIS2_PLACEMENT_3D('',#926,#688,#689);
#553=AXIS2_PLACEMENT_3D('',#927,#690,#691);
#554=AXIS2_PLACEMENT_3D('',#929,#693,#694);
#555=AXIS2_PLACEMENT_3D('',#930,#695,#696);
#556=AXIS2_PLACEMENT_3D('',#932,#697,#698);
#557=AXIS2_PLACEMENT_3D('',#935,#700,#701);
#558=AXIS2_PLACEMENT_3D('',#936,#702,#703);
#559=AXIS2_PLACEMENT_3D('',#938,#705,#706);
#560=AXIS2_PLACEMENT_3D('',#939,#707,#708);
#561=AXIS2_PLACEMENT_3D('',#941,#709,#710);
#562=AXIS2_PLACEMENT_3D('',#944,#712,#713);
#563=AXIS2_PLACEMENT_3D('',#945,#714,#715);
#564=AXIS2_PLACEMENT_3D('',#947,#717,#718);
#565=AXIS2_PLACEMENT_3D('',#948,#719,#720);
#566=AXIS2_PLACEMENT_3D('',#950,#722,#723);
#567=DIRECTION('axis',(0.,0.,1.));
#568=DIRECTION('refdir',(1.,0.,0.));
#569=DIRECTION('center_axis',(0.,0.,1.));
#570=DIRECTION('ref_axis',(-0.863222253766792,-0.504824068960445,0.));
#571=DIRECTION('',(-0.199539921757996,-0.678368498402472,0.707106781186539));
#572=DIRECTION('center_axis',(0.,0.,-1.));
#573=DIRECTION('ref_axis',(1.,0.,0.));
#574=DIRECTION('center_axis',(0.,0.,-1.));
#575=DIRECTION('ref_axis',(1.,0.,0.));
#576=DIRECTION('',(0.6890680524904,-0.158698516177976,-0.707106781186545));
#577=DIRECTION('center_axis',(0.,0.,1.));
#578=DIRECTION('ref_axis',(1.,0.,0.));
#579=DIRECTION('',(0.678368498402447,-0.199539921758037,-0.707106781186552));
#580=DIRECTION('center_axis',(0.,0.,1.));
#581=DIRECTION('ref_axis',(1.,0.,0.));
#582=DIRECTION('center_axis',(0.,0.,-1.));
#583=DIRECTION('ref_axis',(1.,0.,0.));
#584=DIRECTION('',(-0.158698516177964,-0.689068052490414,-0.707106781186534));
#585=DIRECTION('center_axis',(0.,0.,1.));
#586=DIRECTION('ref_axis',(1.,0.,0.));
#587=DIRECTION('',(-0.199539921758005,-0.678368498402458,-0.70710678118655));
#588=DIRECTION('center_axis',(0.,0.,1.));
#589=DIRECTION('ref_axis',(1.,0.,0.));
#590=DIRECTION('center_axis',(0.,0.,-1.));
#591=DIRECTION('ref_axis',(1.,0.,0.));
#592=DIRECTION('',(-0.6890680524904,0.158698516177976,-0.707106781186545));
#593=DIRECTION('center_axis',(0.,0.,1.));
#594=DIRECTION('ref_axis',(1.,0.,0.));
#595=DIRECTION('',(-0.678368498402465,0.199539921758003,-0.707106781186544));
#596=DIRECTION('center_axis',(0.,0.,1.));
#597=DIRECTION('ref_axis',(1.,0.,0.));
#598=DIRECTION('center_axis',(0.,0.,-1.));
#599=DIRECTION('ref_axis',(1.,0.,0.));
#600=DIRECTION('',(0.158698516177965,0.689068052490408,-0.70710678118654));
#601=DIRECTION('center_axis',(0.,0.,1.));
#602=DIRECTION('ref_axis',(1.,0.,0.));
#603=DIRECTION('center_axis',(0.,0.,1.));
#604=DIRECTION('ref_axis',(1.,0.,0.));
#605=DIRECTION('center_axis',(0.,0.,1.));
#606=DIRECTION('ref_axis',(1.,0.,0.));
#607=DIRECTION('center_axis',(0.,-1.,0.));
#608=DIRECTION('ref_axis',(-1.,0.,0.));
#609=DIRECTION('center_axis',(0.,0.,-1.));
#610=DIRECTION('ref_axis',(1.,0.,0.));
#611=DIRECTION('center_axis',(0.,0.,-1.));
#612=DIRECTION('ref_axis',(1.,0.,0.));
#613=DIRECTION('center_axis',(0.,0.,1.));
#614=DIRECTION('ref_axis',(1.,0.,0.));
#615=DIRECTION('center_axis',(0.,0.,1.));
#616=DIRECTION('ref_axis',(0.,-1.,0.));
#617=DIRECTION('center_axis',(1.70803542250024E-16,-1.,0.));
#618=DIRECTION('ref_axis',(-1.,-1.70803542250024E-16,0.));
#619=DIRECTION('center_axis',(0.,0.,-1.));
#620=DIRECTION('ref_axis',(0.,-1.,0.));
#621=DIRECTION('center_axis',(0.,0.,-1.));
#622=DIRECTION('ref_axis',(0.,-1.,0.));
#623=DIRECTION('center_axis',(0.,0.,1.));
#624=DIRECTION('ref_axis',(0.,-1.,0.));
#625=DIRECTION('center_axis',(0.,0.,1.));
#626=DIRECTION('ref_axis',(1.,0.,0.));
#627=DIRECTION('center_axis',(0.,0.,1.));
#628=DIRECTION('ref_axis',(0.,1.,0.));
#629=DIRECTION('center_axis',(1.70803542250024E-16,-1.,0.));
#630=DIRECTION('ref_axis',(-1.,-1.70803542250024E-16,0.));
#631=DIRECTION('center_axis',(0.,0.,-1.));
#632=DIRECTION('ref_axis',(0.,1.,0.));
#633=DIRECTION('center_axis',(0.,0.,-1.));
#634=DIRECTION('ref_axis',(0.,1.,0.));
#635=DIRECTION('center_axis',(0.,0.,1.));
#636=DIRECTION('ref_axis',(0.,1.,0.));
#637=DIRECTION('center_axis',(0.,0.,1.));
#638=DIRECTION('ref_axis',(1.,0.,0.));
#639=DIRECTION('center_axis',(0.,0.,1.));
#640=DIRECTION('ref_axis',(-1.,0.,0.));
#641=DIRECTION('center_axis',(0.,-1.,0.));
#642=DIRECTION('ref_axis',(-1.,0.,0.));
#643=DIRECTION('center_axis',(0.,0.,-1.));
#644=DIRECTION('ref_axis',(-1.,0.,0.));
#645=DIRECTION('center_axis',(0.,0.,-1.));
#646=DIRECTION('ref_axis',(-1.,0.,0.));
#647=DIRECTION('center_axis',(0.,0.,1.));
#648=DIRECTION('ref_axis',(-1.,0.,0.));
#649=DIRECTION('center_axis',(0.,0.,-1.));
#650=DIRECTION('ref_axis',(1.,0.,0.));
#651=DIRECTION('center_axis',(0.,0.,1.));
#652=DIRECTION('ref_axis',(1.,0.,0.));
#653=DIRECTION('center_axis',(0.,0.,1.));
#654=DIRECTION('ref_axis',(1.,0.,0.));
#655=DIRECTION('center_axis',(0.,0.,-1.));
#656=DIRECTION('ref_axis',(1.,0.,0.));
#657=DIRECTION('',(0.,0.,1.));
#658=DIRECTION('center_axis',(0.,0.,1.));
#659=DIRECTION('ref_axis',(1.,0.,0.));
#660=DIRECTION('center_axis',(0.,0.,-1.));
#661=DIRECTION('ref_axis',(1.,0.,0.));
#662=DIRECTION('',(0.707106781186552,-8.65956056235499E-17,0.707106781186543));
#663=DIRECTION('center_axis',(0.,0.,-1.));
#664=DIRECTION('ref_axis',(1.,0.,0.));
#665=DIRECTION('center_axis',(0.,0.,-1.));
#666=DIRECTION('ref_axis',(1.,0.,0.));
#667=DIRECTION('center_axis',(0.,0.,1.));
#668=DIRECTION('ref_axis',(1.,0.,0.));
#669=DIRECTION('center_axis',(0.,0.,1.));
#670=DIRECTION('ref_axis',(1.,0.,0.));
#671=DIRECTION('center_axis',(0.,0.,1.));
#672=DIRECTION('ref_axis',(-1.83697019872103E-16,1.,0.));
#673=DIRECTION('center_axis',(0.,0.,1.));
#674=DIRECTION('ref_axis',(-1.83697019872103E-16,1.,0.));
#675=DIRECTION('',(4.32978028117746E-17,-0.707106781186547,0.707106781186547));
#676=DIRECTION('center_axis',(0.,0.,-1.));
#677=DIRECTION('ref_axis',(-1.83697019872103E-16,1.,0.));
#678=DIRECTION('center_axis',(0.,0.,-1.));
#679=DIRECTION('ref_axis',(-1.83697019872103E-16,1.,0.));
#680=DIRECTION('',(0.,0.,1.));
#681=DIRECTION('center_axis',(0.,0.,-1.));
#682=DIRECTION('ref_axis',(-1.83697019872103E-16,1.,0.));
#683=DIRECTION('center_axis',(0.,0.,1.));
#684=DIRECTION('ref_axis',(-1.,-1.22464679914735E-16,0.));
#685=DIRECTION('center_axis',(0.,0.,1.));
#686=DIRECTION('ref_axis',(-1.,-1.22464679914735E-16,0.));
#687=DIRECTION('',(0.707106781186547,0.,0.707106781186547));
#688=DIRECTION('center_axis',(0.,0.,-1.));
#689=DIRECTION('ref_axis',(-1.,-1.22464679914735E-16,0.));
#690=DIRECTION('center_axis',(0.,0.,-1.));
#691=DIRECTION('ref_axis',(-1.,-1.22464679914735E-16,0.));
#692=DIRECTION('',(0.,0.,1.));
#693=DIRECTION('center_axis',(0.,0.,-1.));
#694=DIRECTION('ref_axis',(-1.,-1.22464679914735E-16,0.));
#695=DIRECTION('center_axis',(0.,0.,1.));
#696=DIRECTION('ref_axis',(6.12323399573677E-17,-1.,0.));
#697=DIRECTION('center_axis',(0.,0.,1.));
#698=DIRECTION('ref_axis',(6.12323399573677E-17,-1.,0.));
#699=DIRECTION('',(4.32978028117747E-17,0.707106781186547,0.707106781186547));
#700=DIRECTION('center_axis',(0.,0.,-1.));
#701=DIRECTION('ref_axis',(6.12323399573677E-17,-1.,0.));
#702=DIRECTION('center_axis',(0.,0.,-1.));
#703=DIRECTION('ref_axis',(6.12323399573677E-17,-1.,0.));
#704=DIRECTION('',(0.,0.,1.));
#705=DIRECTION('center_axis',(0.,0.,-1.));
#706=DIRECTION('ref_axis',(6.12323399573677E-17,-1.,0.));
#707=DIRECTION('center_axis',(0.,0.,1.));
#708=DIRECTION('ref_axis',(1.,0.,0.));
#709=DIRECTION('center_axis',(0.,0.,1.));
#710=DIRECTION('ref_axis',(1.,0.,0.));
#711=DIRECTION('',(-0.707106781186547,8.65956056235493E-17,0.707106781186547));
#712=DIRECTION('center_axis',(0.,0.,-1.));
#713=DIRECTION('ref_axis',(1.,0.,0.));
#714=DIRECTION('center_axis',(0.,0.,-1.));
#715=DIRECTION('ref_axis',(1.,0.,0.));
#716=DIRECTION('',(0.,0.,1.));
#717=DIRECTION('center_axis',(0.,0.,-1.));
#718=DIRECTION('ref_axis',(1.,0.,0.));
#719=DIRECTION('center_axis',(0.,0.,-1.));
#720=DIRECTION('ref_axis',(1.,0.,0.));
#721=DIRECTION('',(0.,0.,1.));
#722=DIRECTION('center_axis',(0.,0.,-1.));
#723=DIRECTION('ref_axis',(1.,0.,0.));
#724=DIRECTION('',(0.,0.,1.));
#725=CARTESIAN_POINT('',(0.,0.,0.));
#726=CARTESIAN_POINT('Origin',(26.9940599013689,0.,-8.75));
#727=CARTESIAN_POINT('',(7.38171148220934,-66.6753761855566,-9.));
#728=CARTESIAN_POINT('',(7.24061545041682,-67.1550551509203,-8.5));
#729=CARTESIAN_POINT('',(7.38171148220934,-66.6753761855566,-9.));
#730=CARTESIAN_POINT('',(-43.0059400986311,8.57252759403147E-15,-8.5));
#731=CARTESIAN_POINT('Origin',(26.9940599013689,0.,-8.5));
#732=CARTESIAN_POINT('',(-41.2201970647268,15.710351573516,-8.5));
#733=CARTESIAN_POINT('Origin',(26.9940599013689,0.,-8.5));
#734=CARTESIAN_POINT('',(-40.7329523721118,15.5981347765623,-9.));
#735=CARTESIAN_POINT('',(-41.2201970647268,15.710351573516,-8.5));
#736=CARTESIAN_POINT('Origin',(26.9940599013689,0.,-9.));
#737=CARTESIAN_POINT('Ctrl Pts',(-40.7329523721118,15.5981347765623,-9.));
#738=CARTESIAN_POINT('Ctrl Pts',(-40.4224636581132,16.9462750026204,-9.));
#739=CARTESIAN_POINT('Ctrl Pts',(-40.0717099387103,18.285141538095,-9.));
#740=CARTESIAN_POINT('Ctrl Pts',(-39.6813162841878,19.6123484191595,-9.));
#741=CARTESIAN_POINT('Ctrl Pts',(-40.8953672696501,15.6355403755468,-8.83333333333333));
#742=CARTESIAN_POINT('Ctrl Pts',(-40.5841339783997,16.9869135517873,-8.83333333333333));
#743=CARTESIAN_POINT('Ctrl Pts',(-40.2325391229791,18.3289907983782,-8.83333333333333));
#744=CARTESIAN_POINT('Ctrl Pts',(-39.8412092726423,19.659380429757,-8.83333333333333));
#745=CARTESIAN_POINT('Ctrl Pts',(-41.0577821671884,15.6729459745314,-8.66666666666667));
#746=CARTESIAN_POINT('Ctrl Pts',(-40.7458042986863,17.0275521009543,-8.66666666666667));
#747=CARTESIAN_POINT('Ctrl Pts',(-40.3933683072478,18.3728400586613,-8.66666666666667));
#748=CARTESIAN_POINT('Ctrl Pts',(-40.0011022610969,19.7064124403545,-8.66666666666667));
#749=CARTESIAN_POINT('Ctrl Pts',(-41.2201970647268,15.710351573516,-8.5));
#750=CARTESIAN_POINT('Ctrl Pts',(-40.9074746189728,17.0681906501212,-8.5));
#751=CARTESIAN_POINT('Ctrl Pts',(-40.5541974915166,18.4166893189446,-8.5));
#752=CARTESIAN_POINT('Ctrl Pts',(-40.1609952495515,19.753444450952,-8.5));
#753=CARTESIAN_POINT('',(-40.1609952495515,19.753444450952,-8.5));
#754=CARTESIAN_POINT('',(-39.6813162841878,19.6123484191595,-9.));
#755=CARTESIAN_POINT('',(-40.1609952495515,19.753444450952,-8.5));
#756=CARTESIAN_POINT('Ctrl Pts',(-39.6813162841878,19.6123484191595,-9.));
#757=CARTESIAN_POINT('Ctrl Pts',(-40.0717099387103,18.285141538095,-9.));
#758=CARTESIAN_POINT('Ctrl Pts',(-40.4224636581132,16.9462750026204,-9.));
#759=CARTESIAN_POINT('Ctrl Pts',(-40.7329523721118,15.5981347765623,-9.));
#760=CARTESIAN_POINT('Ctrl Pts',(-41.2201970647268,15.710351573516,-8.5));
#761=CARTESIAN_POINT('Ctrl Pts',(-40.9074746189728,17.0681906501212,-8.5));
#762=CARTESIAN_POINT('Ctrl Pts',(-40.5541974915166,18.4166893189446,-8.5));
#763=CARTESIAN_POINT('Ctrl Pts',(-40.1609952495515,19.753444450952,-8.5));
#764=CARTESIAN_POINT('Origin',(26.9940599013689,0.,-8.75));
#765=CARTESIAN_POINT('',(42.7044114748848,68.2142569660956,-8.5));
#766=CARTESIAN_POINT('Origin',(26.9940599013689,0.,-8.5));
#767=CARTESIAN_POINT('',(42.5921946779311,67.7270122734806,-9.));
#768=CARTESIAN_POINT('',(42.7044114748848,68.2142569660956,-8.5));
#769=CARTESIAN_POINT('Origin',(26.9940599013689,0.,-9.));
#770=CARTESIAN_POINT('Ctrl Pts',(42.5921946779311,67.7270122734806,-9.));
#771=CARTESIAN_POINT('Ctrl Pts',(43.9403349039892,67.4165235594821,-9.));
#772=CARTESIAN_POINT('Ctrl Pts',(45.2792014394638,67.0657698400792,-9.));
#773=CARTESIAN_POINT('Ctrl Pts',(46.6064083205284,66.6753761855566,-9.));
#774=CARTESIAN_POINT('Ctrl Pts',(42.6296002769157,67.889427171019,-8.83333333333333));
#775=CARTESIAN_POINT('Ctrl Pts',(43.9809734531562,67.5781938797686,-8.83333333333333));
#776=CARTESIAN_POINT('Ctrl Pts',(45.323050699747,67.2265990243479,-8.83333333333333));
#777=CARTESIAN_POINT('Ctrl Pts',(46.6534403311259,66.8352691740112,-8.83333333333333));
#778=CARTESIAN_POINT('Ctrl Pts',(42.6670058759003,68.0518420685573,-8.66666666666667));
#779=CARTESIAN_POINT('Ctrl Pts',(44.0216120023232,67.7398642000551,-8.66666666666667));
#780=CARTESIAN_POINT('Ctrl Pts',(45.3668999600302,67.3874282086167,-8.66666666666667));
#781=CARTESIAN_POINT('Ctrl Pts',(46.7004723417234,66.9951621624658,-8.66666666666667));
#782=CARTESIAN_POINT('Ctrl Pts',(42.7044114748848,68.2142569660956,-8.5));
#783=CARTESIAN_POINT('Ctrl Pts',(44.0622505514901,67.9015345203416,-8.5));
#784=CARTESIAN_POINT('Ctrl Pts',(45.4107492203134,67.5482573928855,-8.5));
#785=CARTESIAN_POINT('Ctrl Pts',(46.7475043523209,67.1550551509203,-8.5));
#786=CARTESIAN_POINT('',(46.7475043523209,67.1550551509203,-8.5));
#787=CARTESIAN_POINT('',(46.6064083205284,66.6753761855566,-9.));
#788=CARTESIAN_POINT('',(46.7475043523209,67.1550551509203,-8.5));
#789=CARTESIAN_POINT('Ctrl Pts',(46.6064083205284,66.6753761855566,-9.));
#790=CARTESIAN_POINT('Ctrl Pts',(45.2792014394638,67.0657698400792,-9.));
#791=CARTESIAN_POINT('Ctrl Pts',(43.9403349039892,67.4165235594821,-9.));
#792=CARTESIAN_POINT('Ctrl Pts',(42.5921946779311,67.7270122734806,-9.));
#793=CARTESIAN_POINT('Ctrl Pts',(42.7044114748848,68.2142569660956,-8.5));
#794=CARTESIAN_POINT('Ctrl Pts',(44.0622505514901,67.9015345203416,-8.5));
#795=CARTESIAN_POINT('Ctrl Pts',(45.4107492203134,67.5482573928855,-8.5));
#796=CARTESIAN_POINT('Ctrl Pts',(46.7475043523209,67.1550551509203,-8.5));
#797=CARTESIAN_POINT('Origin',(26.9940599013689,0.,-8.75));
#798=CARTESIAN_POINT('',(95.2083168674645,-15.710351573516,-8.5));
#799=CARTESIAN_POINT('Origin',(26.9940599013689,0.,-8.5));
#800=CARTESIAN_POINT('',(94.7210721748495,-15.5981347765623,-9.));
#801=CARTESIAN_POINT('',(95.2083168674645,-15.710351573516,-8.5));
#802=CARTESIAN_POINT('Origin',(26.9940599013689,0.,-9.));
#803=CARTESIAN_POINT('Ctrl Pts',(94.7210721748495,-15.5981347765623,-9.));
#804=CARTESIAN_POINT('Ctrl Pts',(94.4105834608509,-16.9462750026204,-9.));
#805=CARTESIAN_POINT('Ctrl Pts',(94.059829741448,-18.285141538095,-9.));
#806=CARTESIAN_POINT('Ctrl Pts',(93.6694360869255,-19.6123484191595,-9.));
#807=CARTESIAN_POINT('Ctrl Pts',(94.8834870723878,-15.6355403755468,-8.83333333333333));
#808=CARTESIAN_POINT('Ctrl Pts',(94.5722537811375,-16.9869135517873,-8.83333333333333));
#809=CARTESIAN_POINT('Ctrl Pts',(94.2206589257168,-18.3289907983782,-8.83333333333333));
#810=CARTESIAN_POINT('Ctrl Pts',(93.8293290753801,-19.659380429757,-8.83333333333333));
#811=CARTESIAN_POINT('Ctrl Pts',(95.0459019699261,-15.6729459745314,-8.66666666666667));
#812=CARTESIAN_POINT('Ctrl Pts',(94.733924101424,-17.0275521009543,-8.66666666666667));
#813=CARTESIAN_POINT('Ctrl Pts',(94.3814881099856,-18.3728400586614,-8.66666666666667));
#814=CARTESIAN_POINT('Ctrl Pts',(93.9892220638346,-19.7064124403545,-8.66666666666667));
#815=CARTESIAN_POINT('Ctrl Pts',(95.2083168674645,-15.710351573516,-8.5));
#816=CARTESIAN_POINT('Ctrl Pts',(94.8955944217105,-17.0681906501213,-8.5));
#817=CARTESIAN_POINT('Ctrl Pts',(94.5423172942543,-18.4166893189446,-8.5));
#818=CARTESIAN_POINT('Ctrl Pts',(94.1491150522892,-19.753444450952,-8.5));
#819=CARTESIAN_POINT('',(94.1491150522892,-19.753444450952,-8.5));
#820=CARTESIAN_POINT('',(93.6694360869255,-19.6123484191595,-9.));
#821=CARTESIAN_POINT('',(94.1491150522892,-19.753444450952,-8.5));
#822=CARTESIAN_POINT('Ctrl Pts',(93.6694360869255,-19.6123484191595,-9.));
#823=CARTESIAN_POINT('Ctrl Pts',(94.059829741448,-18.285141538095,-9.));
#824=CARTESIAN_POINT('Ctrl Pts',(94.4105834608509,-16.9462750026204,-9.));
#825=CARTESIAN_POINT('Ctrl Pts',(94.7210721748495,-15.5981347765623,-9.));
#826=CARTESIAN_POINT('Ctrl Pts',(95.2083168674645,-15.710351573516,-8.5));
#827=CARTESIAN_POINT('Ctrl Pts',(94.8955944217105,-17.0681906501213,-8.5));
#828=CARTESIAN_POINT('Ctrl Pts',(94.5423172942543,-18.4166893189446,-8.5));
#829=CARTESIAN_POINT('Ctrl Pts',(94.1491150522892,-19.753444450952,-8.5));
#830=CARTESIAN_POINT('Origin',(26.9940599013689,0.,-8.75));
#831=CARTESIAN_POINT('',(11.283708327853,-68.2142569660956,-8.5));
#832=CARTESIAN_POINT('Origin',(26.9940599013689,0.,-8.5));
#833=CARTESIAN_POINT('',(11.3959251248066,-67.7270122734806,-9.));
#834=CARTESIAN_POINT('',(11.283708327853,-68.2142569660956,-8.5));
#835=CARTESIAN_POINT('Origin',(26.9940599013689,0.,-9.));
#836=CARTESIAN_POINT('Ctrl Pts',(11.3959251248066,-67.7270122734807,-9.));
#837=CARTESIAN_POINT('Ctrl Pts',(10.0477848987485,-67.4165235594821,-9.));
#838=CARTESIAN_POINT('Ctrl Pts',(8.70891836327388,-67.0657698400792,-9.));
#839=CARTESIAN_POINT('Ctrl Pts',(7.38171148220932,-66.6753761855566,-9.));
#840=CARTESIAN_POINT('Ctrl Pts',(11.3585195258221,-67.889427171019,-8.83333333333333));
#841=CARTESIAN_POINT('Ctrl Pts',(10.0071463495815,-67.5781938797686,-8.83333333333333));
#842=CARTESIAN_POINT('Ctrl Pts',(8.66506910299068,-67.2265990243479,-8.83333333333333));
#843=CARTESIAN_POINT('Ctrl Pts',(7.33467947161182,-66.8352691740112,-8.83333333333333));
#844=CARTESIAN_POINT('Ctrl Pts',(11.3211139268375,-68.0518420685573,-8.66666666666667));
#845=CARTESIAN_POINT('Ctrl Pts',(9.96650780041458,-67.7398642000551,-8.66666666666667));
#846=CARTESIAN_POINT('Ctrl Pts',(8.62121984270748,-67.3874282086167,-8.66666666666667));
#847=CARTESIAN_POINT('Ctrl Pts',(7.28764746101431,-66.9951621624658,-8.66666666666667));
#848=CARTESIAN_POINT('Ctrl Pts',(11.2837083278529,-68.2142569660956,-8.5));
#849=CARTESIAN_POINT('Ctrl Pts',(9.92586925124762,-67.9015345203416,-8.5));
#850=CARTESIAN_POINT('Ctrl Pts',(8.57737058242428,-67.5482573928855,-8.5));
#851=CARTESIAN_POINT('Ctrl Pts',(7.24061545041681,-67.1550551509203,-8.5));
#852=CARTESIAN_POINT('Ctrl Pts',(7.38171148220932,-66.6753761855566,-9.));
#853=CARTESIAN_POINT('Ctrl Pts',(8.70891836327388,-67.0657698400792,-9.));
#854=CARTESIAN_POINT('Ctrl Pts',(10.0477848987485,-67.4165235594821,-9.));
#855=CARTESIAN_POINT('Ctrl Pts',(11.3959251248066,-67.7270122734807,-9.));
#856=CARTESIAN_POINT('Ctrl Pts',(11.2837083278529,-68.2142569660956,-8.5));
#857=CARTESIAN_POINT('Ctrl Pts',(9.92586925124762,-67.9015345203416,-8.5));
#858=CARTESIAN_POINT('Ctrl Pts',(8.57737058242428,-67.5482573928855,-8.5));
#859=CARTESIAN_POINT('Ctrl Pts',(7.24061545041681,-67.1550551509203,-8.5));
#860=CARTESIAN_POINT('Origin',(42.3799073546535,58.7295162833523,-13.));
#861=CARTESIAN_POINT('',(37.3799073546535,58.7295162833523,-13.));
#862=CARTESIAN_POINT('Origin',(42.3799073546535,58.7295162833523,-13.));
#863=CARTESIAN_POINT('',(33.3799073546535,58.7295162833523,-9.));
#864=CARTESIAN_POINT('Origin',(33.3799073546535,58.7295162833523,-13.));
#865=CARTESIAN_POINT('Origin',(42.3799073546535,58.7295162833523,-9.));
#866=CARTESIAN_POINT('Origin',(42.3799073546535,58.7295162833523,-9.));
#867=CARTESIAN_POINT('Origin',(85.7235761847212,-15.3858474532846,-13.));
#868=CARTESIAN_POINT('',(85.7235761847212,-10.3858474532846,-13.));
#869=CARTESIAN_POINT('',(80.7235761847212,-15.3858474532846,-13.));
#870=CARTESIAN_POINT('Origin',(85.7235761847212,-15.3858474532846,-13.));
#871=CARTESIAN_POINT('',(76.7235761847212,-15.3858474532846,-9.));
#872=CARTESIAN_POINT('Origin',(76.7235761847212,-15.3858474532846,-13.));
#873=CARTESIAN_POINT('Origin',(85.7235761847212,-15.3858474532846,-9.));
#874=CARTESIAN_POINT('Origin',(85.7235761847212,-15.3858474532846,-9.));
#875=CARTESIAN_POINT('Origin',(85.7235761847212,-15.3858474532846,-13.));
#876=CARTESIAN_POINT('Origin',(-31.7354563819834,15.3858474532846,-13.));
#877=CARTESIAN_POINT('',(-31.7354563819834,10.3858474532846,-13.));
#878=CARTESIAN_POINT('',(-36.7354563819834,15.3858474532846,-13.));
#879=CARTESIAN_POINT('Origin',(-31.7354563819834,15.3858474532846,-13.));
#880=CARTESIAN_POINT('',(-40.7354563819834,15.3858474532846,-9.));
#881=CARTESIAN_POINT('Origin',(-40.7354563819834,15.3858474532846,-13.));
#882=CARTESIAN_POINT('Origin',(-31.7354563819834,15.3858474532846,-9.));
#883=CARTESIAN_POINT('Origin',(-31.7354563819834,15.3858474532846,-9.));
#884=CARTESIAN_POINT('Origin',(-31.7354563819834,15.3858474532846,-13.));
#885=CARTESIAN_POINT('Origin',(11.6082124480843,-58.7295162833523,-13.));
#886=CARTESIAN_POINT('',(16.6082124480843,-58.7295162833523,-13.));
#887=CARTESIAN_POINT('',(6.60821244808428,-58.7295162833523,-13.));
#888=CARTESIAN_POINT('Origin',(11.6082124480843,-58.7295162833523,-13.));
#889=CARTESIAN_POINT('',(2.60821244808428,-58.7295162833523,-9.));
#890=CARTESIAN_POINT('Origin',(2.60821244808428,-58.7295162833523,-13.));
#891=CARTESIAN_POINT('Origin',(11.6082124480843,-58.7295162833523,-9.));
#892=CARTESIAN_POINT('Origin',(11.6082124480843,-58.7295162833523,-9.));
#893=CARTESIAN_POINT('Origin',(11.6082124480843,-58.7295162833523,-13.));
#894=CARTESIAN_POINT('Origin',(26.9940599013689,0.,-9.));
#895=CARTESIAN_POINT('',(29.9,3.18408167778312E-16,-9.));
#896=CARTESIAN_POINT('Origin',(32.5,0.,-9.));
#897=CARTESIAN_POINT('',(14.9,3.18408167778312E-16,-9.));
#898=CARTESIAN_POINT('Origin',(17.5,0.,-9.));
#899=CARTESIAN_POINT('Origin',(26.9940599013689,0.,-5.));
#900=CARTESIAN_POINT('',(-43.0059400986311,-8.57252759403147E-15,-5.5));
#901=CARTESIAN_POINT('',(-43.0059400986311,8.57252759403147E-15,-5.));
#902=CARTESIAN_POINT('Origin',(26.9940599013689,0.,-5.5));
#903=CARTESIAN_POINT('Origin',(26.9940599013689,0.,-5.25));
#904=CARTESIAN_POINT('',(-42.5059400986311,8.5112952540741E-15,-5.));
#905=CARTESIAN_POINT('',(-42.7559400986311,8.54191142405279E-15,-5.25));
#906=CARTESIAN_POINT('Origin',(26.9940599013689,0.,-5.));
#907=CARTESIAN_POINT('Origin',(26.9940599013689,0.,-5.));
#908=CARTESIAN_POINT('',(29.9,3.18408167778312E-16,-5.));
#909=CARTESIAN_POINT('Origin',(32.5,0.,-5.));
#910=CARTESIAN_POINT('',(14.9,3.18408167778312E-16,-5.));
#911=CARTESIAN_POINT('Origin',(17.5,0.,-5.));
#912=CARTESIAN_POINT('Origin',(-31.7354563819834,15.3858474532846,-18.6));
#913=CARTESIAN_POINT('',(-31.7354563819834,11.1858474532846,-19.));
#914=CARTESIAN_POINT('Origin',(-31.7354563819834,15.3858474532846,-19.));
#915=CARTESIAN_POINT('',(-31.7354563819834,10.3858474532846,-18.2));
#916=CARTESIAN_POINT('',(-31.7354563819834,10.7858474532846,-18.6));
#917=CARTESIAN_POINT('Origin',(-31.7354563819834,15.3858474532846,-18.2));
#918=CARTESIAN_POINT('Origin',(-31.7354563819834,15.3858474532846,-9.));
#919=CARTESIAN_POINT('',(-31.7354563819834,10.3858474532846,-9.));
#920=CARTESIAN_POINT('Origin',(-31.7354563819834,15.3858474532846,-19.));
#921=CARTESIAN_POINT('Origin',(11.6082124480843,-58.7295162833523,-18.6));
#922=CARTESIAN_POINT('',(15.8082124480843,-58.7295162833523,-19.));
#923=CARTESIAN_POINT('Origin',(11.6082124480843,-58.7295162833523,-19.));
#924=CARTESIAN_POINT('',(16.6082124480843,-58.7295162833523,-18.2));
#925=CARTESIAN_POINT('',(16.2082124480843,-58.7295162833523,-18.6));
#926=CARTESIAN_POINT('Origin',(11.6082124480843,-58.7295162833523,-18.2));
#927=CARTESIAN_POINT('Origin',(11.6082124480843,-58.7295162833523,-9.));
#928=CARTESIAN_POINT('',(16.6082124480843,-58.7295162833523,-9.));
#929=CARTESIAN_POINT('Origin',(11.6082124480843,-58.7295162833523,-19.));
#930=CARTESIAN_POINT('Origin',(85.7235761847212,-15.3858474532846,-18.6));
#931=CARTESIAN_POINT('',(85.7235761847212,-11.1858474532846,-19.));
#932=CARTESIAN_POINT('Origin',(85.7235761847212,-15.3858474532846,-19.));
#933=CARTESIAN_POINT('',(85.7235761847212,-10.3858474532846,-18.2));
#934=CARTESIAN_POINT('',(85.7235761847212,-10.7858474532846,-18.6));
#935=CARTESIAN_POINT('Origin',(85.7235761847212,-15.3858474532846,-18.2));
#936=CARTESIAN_POINT('Origin',(85.7235761847212,-15.3858474532846,-9.));
#937=CARTESIAN_POINT('',(85.7235761847212,-10.3858474532846,-9.));
#938=CARTESIAN_POINT('Origin',(85.7235761847212,-15.3858474532846,-19.));
#939=CARTESIAN_POINT('Origin',(42.3799073546535,58.7295162833523,-18.6));
#940=CARTESIAN_POINT('',(38.1799073546535,58.7295162833523,-19.));
#941=CARTESIAN_POINT('Origin',(42.3799073546535,58.7295162833523,-19.));
#942=CARTESIAN_POINT('',(37.3799073546535,58.7295162833523,-18.2));
#943=CARTESIAN_POINT('',(37.7799073546535,58.7295162833523,-18.6));
#944=CARTESIAN_POINT('Origin',(42.3799073546535,58.7295162833523,-18.2));
#945=CARTESIAN_POINT('Origin',(42.3799073546535,58.7295162833523,-9.));
#946=CARTESIAN_POINT('',(37.3799073546535,58.7295162833523,-9.));
#947=CARTESIAN_POINT('Origin',(42.3799073546535,58.7295162833523,-19.));
#948=CARTESIAN_POINT('Origin',(32.5,0.,-5.));
#949=CARTESIAN_POINT('',(29.9,3.18408167778312E-16,-5.));
#950=CARTESIAN_POINT('Origin',(17.5,0.,-5.));
#951=CARTESIAN_POINT('',(14.9,3.18408167778312E-16,-5.));
#952=UNCERTAINTY_MEASURE_WITH_UNIT(LENGTH_MEASURE(0.01),#956,
'DISTANCE_ACCURACY_VALUE',
'Maximum model space distance between geometric entities at asserted c
onnectivities');
#953=UNCERTAINTY_MEASURE_WITH_UNIT(LENGTH_MEASURE(0.01),#956,
'DISTANCE_ACCURACY_VALUE',
'Maximum model space distance between geometric entities at asserted c
onnectivities');
#954=(
GEOMETRIC_REPRESENTATION_CONTEXT(3)
GLOBAL_UNCERTAINTY_ASSIGNED_CONTEXT((#952))
GLOBAL_UNIT_ASSIGNED_CONTEXT((#956,#958,#959))
REPRESENTATION_CONTEXT('','3D')
);
#955=(
GEOMETRIC_REPRESENTATION_CONTEXT(3)
GLOBAL_UNCERTAINTY_ASSIGNED_CONTEXT((#953))
GLOBAL_UNIT_ASSIGNED_CONTEXT((#956,#958,#959))
REPRESENTATION_CONTEXT('','3D')
);
#956=(
LENGTH_UNIT()
NAMED_UNIT(*)
SI_UNIT(.MILLI.,.METRE.)
);
#957=(
LENGTH_UNIT()
NAMED_UNIT(*)
SI_UNIT($,.METRE.)
);
#958=(
NAMED_UNIT(*)
PLANE_ANGLE_UNIT()
SI_UNIT($,.RADIAN.)
);
#959=(
NAMED_UNIT(*)
SI_UNIT($,.STERADIAN.)
SOLID_ANGLE_UNIT()
);
#960=SHAPE_DEFINITION_REPRESENTATION(#961,#962);
#961=PRODUCT_DEFINITION_SHAPE('',$,#964);
#962=SHAPE_REPRESENTATION('',(#498),#954);
#963=PRODUCT_DEFINITION_CONTEXT('part definition',#968,'design');
#964=PRODUCT_DEFINITION('Unterer Teller','Unterer Teller',#965,#963);
#965=PRODUCT_DEFINITION_FORMATION('',$,#970);
#966=PRODUCT_RELATED_PRODUCT_CATEGORY('Unterer Teller','Unterer Teller',
(#970));
#967=APPLICATION_PROTOCOL_DEFINITION('international standard',
'automotive_design',2009,#968);
#968=APPLICATION_CONTEXT(
'Core Data for Automotive Mechanical Design Process');
#969=PRODUCT_CONTEXT('part definition',#968,'mechanical');
#970=PRODUCT('Unterer Teller','Unterer Teller',$,(#969));
#971=PRESENTATION_STYLE_ASSIGNMENT((#973));
#972=PRESENTATION_STYLE_ASSIGNMENT((#974));
#973=SURFACE_STYLE_USAGE(.BOTH.,#975);
#974=SURFACE_STYLE_USAGE(.BOTH.,#976);
#975=SURFACE_SIDE_STYLE('',(#977));
#976=SURFACE_SIDE_STYLE('',(#978));
#977=SURFACE_STYLE_FILL_AREA(#979);
#978=SURFACE_STYLE_FILL_AREA(#980);
#979=FILL_AREA_STYLE('Stahl - satiniert',(#981));
#980=FILL_AREA_STYLE('Nylon 12 (mit 3D-Drucker Formlabs Fuse 1)',(#982));
#981=FILL_AREA_STYLE_COLOUR('Stahl - satiniert',#983);
#982=FILL_AREA_STYLE_COLOUR('Nylon 12 (mit 3D-Drucker Formlabs Fuse 1)',
#984);
#983=COLOUR_RGB('Stahl - satiniert',0.627450980392157,0.627450980392157,
0.627450980392157);
#984=COLOUR_RGB('Nylon 12 (mit 3D-Drucker Formlabs Fuse 1)',0.247058823529412,
0.247058823529412,0.247058823529412);
ENDSEC;
END-ISO-10303-21;
