ISO-10303-21;
HEADER;
/* Generated by software containing ST-Developer
 * from STEP Tools, Inc. (www.steptools.com) 
 */

FILE_DESCRIPTION(
/* description */ (''),
/* implementation_level */ '2;1');

FILE_NAME(
/* name */ 'Haltedreieck.step',
/* time_stamp */ '2025-07-04T09:26:03+02:00',
/* author */ (''),
/* organization */ (''),
/* preprocessor_version */ 'ST-DEVELOPER v20.1',
/* originating_system */ 'Autodesk Translation Framework v14.10.0.0',
/* authorisation */ '');

FILE_SCHEMA (('AUTOMOTIVE_DESIGN { 1 0 10303 214 3 1 1 }'));
ENDSEC;

DATA;
#10=MECHANICAL_DESIGN_GEOMETRIC_PRESENTATION_REPRESENTATION('',(#13),#475);
#11=SHAPE_REPRESENTATION_RELATIONSHIP('SRR','None',#482,#12);
#12=ADVANCED_BREP_SHAPE_REPRESENTATION('',(#14),#474);
#13=STYLED_ITEM('',(#492),#14);
#14=MANIFOLD_SOLID_BREP('K\X\F6rper1',#287);
#15=FACE_BOUND('',#54,.T.);
#16=FACE_BOUND('',#55,.T.);
#17=FACE_BOUND('',#57,.T.);
#18=FACE_BOUND('',#58,.T.);
#19=FACE_BOUND('',#62,.T.);
#20=FACE_BOUND('',#65,.T.);
#21=FACE_BOUND('',#66,.T.);
#22=FACE_BOUND('',#68,.T.);
#23=FACE_BOUND('',#71,.T.);
#24=FACE_BOUND('',#72,.T.);
#25=PLANE('',#313);
#26=PLANE('',#314);
#27=PLANE('',#315);
#28=PLANE('',#316);
#29=PLANE('',#317);
#30=PLANE('',#318);
#31=PLANE('',#319);
#32=PLANE('',#320);
#33=PLANE('',#321);
#34=PLANE('',#322);
#35=FACE_OUTER_BOUND('',#49,.T.);
#36=FACE_OUTER_BOUND('',#50,.T.);
#37=FACE_OUTER_BOUND('',#51,.T.);
#38=FACE_OUTER_BOUND('',#52,.T.);
#39=FACE_OUTER_BOUND('',#53,.T.);
#40=FACE_OUTER_BOUND('',#56,.T.);
#41=FACE_OUTER_BOUND('',#59,.T.);
#42=FACE_OUTER_BOUND('',#60,.T.);
#43=FACE_OUTER_BOUND('',#61,.T.);
#44=FACE_OUTER_BOUND('',#63,.T.);
#45=FACE_OUTER_BOUND('',#64,.T.);
#46=FACE_OUTER_BOUND('',#67,.T.);
#47=FACE_OUTER_BOUND('',#69,.T.);
#48=FACE_OUTER_BOUND('',#70,.T.);
#49=EDGE_LOOP('',(#197,#198,#199,#200));
#50=EDGE_LOOP('',(#201,#202,#203,#204));
#51=EDGE_LOOP('',(#205,#206,#207,#208));
#52=EDGE_LOOP('',(#209,#210,#211,#212));
#53=EDGE_LOOP('',(#213,#214,#215,#216));
#54=EDGE_LOOP('',(#217));
#55=EDGE_LOOP('',(#218));
#56=EDGE_LOOP('',(#219,#220,#221,#222));
#57=EDGE_LOOP('',(#223));
#58=EDGE_LOOP('',(#224));
#59=EDGE_LOOP('',(#225,#226,#227,#228));
#60=EDGE_LOOP('',(#229,#230,#231,#232));
#61=EDGE_LOOP('',(#233,#234,#235,#236,#237));
#62=EDGE_LOOP('',(#238,#239,#240));
#63=EDGE_LOOP('',(#241,#242,#243,#244));
#64=EDGE_LOOP('',(#245,#246,#247,#248));
#65=EDGE_LOOP('',(#249));
#66=EDGE_LOOP('',(#250));
#67=EDGE_LOOP('',(#251,#252,#253,#254,#255));
#68=EDGE_LOOP('',(#256,#257,#258));
#69=EDGE_LOOP('',(#259,#260,#261,#262));
#70=EDGE_LOOP('',(#263,#264,#265,#266));
#71=EDGE_LOOP('',(#267));
#72=EDGE_LOOP('',(#268));
#73=LINE('',#402,#101);
#74=LINE('',#408,#102);
#75=LINE('',#414,#103);
#76=LINE('',#420,#104);
#77=LINE('',#425,#105);
#78=LINE('',#427,#106);
#79=LINE('',#429,#107);
#80=LINE('',#430,#108);
#81=LINE('',#433,#109);
#82=LINE('',#435,#110);
#83=LINE('',#436,#111);
#84=LINE('',#438,#112);
#85=LINE('',#439,#113);
#86=LINE('',#443,#114);
#87=LINE('',#445,#115);
#88=LINE('',#447,#116);
#89=LINE('',#448,#117);
#90=LINE('',#451,#118);
#91=LINE('',#453,#119);
#92=LINE('',#455,#120);
#93=LINE('',#456,#121);
#94=LINE('',#459,#122);
#95=LINE('',#460,#123);
#96=LINE('',#463,#124);
#97=LINE('',#464,#125);
#98=LINE('',#467,#126);
#99=LINE('',#468,#127);
#100=LINE('',#470,#128);
#101=VECTOR('',#329,0.999999999999996);
#102=VECTOR('',#336,0.999999999999996);
#103=VECTOR('',#343,0.999999999999996);
#104=VECTOR('',#350,0.999999999999996);
#105=VECTOR('',#355,10.);
#106=VECTOR('',#356,10.);
#107=VECTOR('',#357,10.);
#108=VECTOR('',#358,10.);
#109=VECTOR('',#361,10.);
#110=VECTOR('',#362,10.);
#111=VECTOR('',#363,10.);
#112=VECTOR('',#366,10.);
#113=VECTOR('',#367,10.);
#114=VECTOR('',#370,10.);
#115=VECTOR('',#371,10.);
#116=VECTOR('',#372,10.);
#117=VECTOR('',#373,10.);
#118=VECTOR('',#376,10.);
#119=VECTOR('',#377,10.);
#120=VECTOR('',#378,10.);
#121=VECTOR('',#379,10.);
#122=VECTOR('',#382,10.);
#123=VECTOR('',#383,10.);
#124=VECTOR('',#386,10.);
#125=VECTOR('',#387,10.);
#126=VECTOR('',#390,10.);
#127=VECTOR('',#391,10.);
#128=VECTOR('',#394,10.);
#129=CIRCLE('',#302,0.999999999999996);
#130=CIRCLE('',#303,0.999999999999996);
#131=CIRCLE('',#305,0.999999999999996);
#132=CIRCLE('',#306,0.999999999999996);
#133=CIRCLE('',#308,0.999999999999996);
#134=CIRCLE('',#309,0.999999999999996);
#135=CIRCLE('',#311,0.999999999999996);
#136=CIRCLE('',#312,0.999999999999996);
#137=VERTEX_POINT('',#399);
#138=VERTEX_POINT('',#401);
#139=VERTEX_POINT('',#405);
#140=VERTEX_POINT('',#407);
#141=VERTEX_POINT('',#411);
#142=VERTEX_POINT('',#413);
#143=VERTEX_POINT('',#417);
#144=VERTEX_POINT('',#419);
#145=VERTEX_POINT('',#423);
#146=VERTEX_POINT('',#424);
#147=VERTEX_POINT('',#426);
#148=VERTEX_POINT('',#428);
#149=VERTEX_POINT('',#432);
#150=VERTEX_POINT('',#434);
#151=VERTEX_POINT('',#441);
#152=VERTEX_POINT('',#442);
#153=VERTEX_POINT('',#444);
#154=VERTEX_POINT('',#446);
#155=VERTEX_POINT('',#450);
#156=VERTEX_POINT('',#452);
#157=VERTEX_POINT('',#454);
#158=VERTEX_POINT('',#458);
#159=VERTEX_POINT('',#462);
#160=VERTEX_POINT('',#466);
#161=EDGE_CURVE('',#137,#137,#129,.T.);
#162=EDGE_CURVE('',#137,#138,#73,.T.);
#163=EDGE_CURVE('',#138,#138,#130,.T.);
#164=EDGE_CURVE('',#139,#139,#131,.T.);
#165=EDGE_CURVE('',#139,#140,#74,.T.);
#166=EDGE_CURVE('',#140,#140,#132,.T.);
#167=EDGE_CURVE('',#141,#141,#133,.T.);
#168=EDGE_CURVE('',#141,#142,#75,.T.);
#169=EDGE_CURVE('',#142,#142,#134,.T.);
#170=EDGE_CURVE('',#143,#143,#135,.T.);
#171=EDGE_CURVE('',#143,#144,#76,.T.);
#172=EDGE_CURVE('',#144,#144,#136,.T.);
#173=EDGE_CURVE('',#145,#146,#77,.T.);
#174=EDGE_CURVE('',#145,#147,#78,.T.);
#175=EDGE_CURVE('',#148,#147,#79,.T.);
#176=EDGE_CURVE('',#146,#148,#80,.T.);
#177=EDGE_CURVE('',#149,#145,#81,.T.);
#178=EDGE_CURVE('',#149,#150,#82,.T.);
#179=EDGE_CURVE('',#147,#150,#83,.T.);
#180=EDGE_CURVE('',#146,#149,#84,.T.);
#181=EDGE_CURVE('',#150,#148,#85,.T.);
#182=EDGE_CURVE('',#151,#152,#86,.T.);
#183=EDGE_CURVE('',#153,#151,#87,.T.);
#184=EDGE_CURVE('',#154,#153,#88,.T.);
#185=EDGE_CURVE('',#152,#154,#89,.T.);
#186=EDGE_CURVE('',#155,#152,#90,.T.);
#187=EDGE_CURVE('',#156,#155,#91,.T.);
#188=EDGE_CURVE('',#156,#157,#92,.T.);
#189=EDGE_CURVE('',#157,#151,#93,.T.);
#190=EDGE_CURVE('',#154,#158,#94,.T.);
#191=EDGE_CURVE('',#158,#155,#95,.T.);
#192=EDGE_CURVE('',#159,#156,#96,.T.);
#193=EDGE_CURVE('',#159,#158,#97,.T.);
#194=EDGE_CURVE('',#160,#153,#98,.T.);
#195=EDGE_CURVE('',#160,#159,#99,.T.);
#196=EDGE_CURVE('',#157,#160,#100,.T.);
#197=ORIENTED_EDGE('',*,*,#161,.F.);
#198=ORIENTED_EDGE('',*,*,#162,.T.);
#199=ORIENTED_EDGE('',*,*,#163,.F.);
#200=ORIENTED_EDGE('',*,*,#162,.F.);
#201=ORIENTED_EDGE('',*,*,#164,.F.);
#202=ORIENTED_EDGE('',*,*,#165,.T.);
#203=ORIENTED_EDGE('',*,*,#166,.F.);
#204=ORIENTED_EDGE('',*,*,#165,.F.);
#205=ORIENTED_EDGE('',*,*,#167,.F.);
#206=ORIENTED_EDGE('',*,*,#168,.T.);
#207=ORIENTED_EDGE('',*,*,#169,.F.);
#208=ORIENTED_EDGE('',*,*,#168,.F.);
#209=ORIENTED_EDGE('',*,*,#170,.F.);
#210=ORIENTED_EDGE('',*,*,#171,.T.);
#211=ORIENTED_EDGE('',*,*,#172,.F.);
#212=ORIENTED_EDGE('',*,*,#171,.F.);
#213=ORIENTED_EDGE('',*,*,#173,.F.);
#214=ORIENTED_EDGE('',*,*,#174,.T.);
#215=ORIENTED_EDGE('',*,*,#175,.F.);
#216=ORIENTED_EDGE('',*,*,#176,.F.);
#217=ORIENTED_EDGE('',*,*,#169,.T.);
#218=ORIENTED_EDGE('',*,*,#172,.T.);
#219=ORIENTED_EDGE('',*,*,#177,.F.);
#220=ORIENTED_EDGE('',*,*,#178,.T.);
#221=ORIENTED_EDGE('',*,*,#179,.F.);
#222=ORIENTED_EDGE('',*,*,#174,.F.);
#223=ORIENTED_EDGE('',*,*,#161,.T.);
#224=ORIENTED_EDGE('',*,*,#164,.T.);
#225=ORIENTED_EDGE('',*,*,#180,.F.);
#226=ORIENTED_EDGE('',*,*,#176,.T.);
#227=ORIENTED_EDGE('',*,*,#181,.F.);
#228=ORIENTED_EDGE('',*,*,#178,.F.);
#229=ORIENTED_EDGE('',*,*,#182,.F.);
#230=ORIENTED_EDGE('',*,*,#183,.F.);
#231=ORIENTED_EDGE('',*,*,#184,.F.);
#232=ORIENTED_EDGE('',*,*,#185,.F.);
#233=ORIENTED_EDGE('',*,*,#182,.T.);
#234=ORIENTED_EDGE('',*,*,#186,.F.);
#235=ORIENTED_EDGE('',*,*,#187,.F.);
#236=ORIENTED_EDGE('',*,*,#188,.T.);
#237=ORIENTED_EDGE('',*,*,#189,.T.);
#238=ORIENTED_EDGE('',*,*,#173,.T.);
#239=ORIENTED_EDGE('',*,*,#180,.T.);
#240=ORIENTED_EDGE('',*,*,#177,.T.);
#241=ORIENTED_EDGE('',*,*,#185,.T.);
#242=ORIENTED_EDGE('',*,*,#190,.T.);
#243=ORIENTED_EDGE('',*,*,#191,.T.);
#244=ORIENTED_EDGE('',*,*,#186,.T.);
#245=ORIENTED_EDGE('',*,*,#192,.T.);
#246=ORIENTED_EDGE('',*,*,#187,.T.);
#247=ORIENTED_EDGE('',*,*,#191,.F.);
#248=ORIENTED_EDGE('',*,*,#193,.F.);
#249=ORIENTED_EDGE('',*,*,#167,.T.);
#250=ORIENTED_EDGE('',*,*,#170,.T.);
#251=ORIENTED_EDGE('',*,*,#184,.T.);
#252=ORIENTED_EDGE('',*,*,#194,.F.);
#253=ORIENTED_EDGE('',*,*,#195,.T.);
#254=ORIENTED_EDGE('',*,*,#193,.T.);
#255=ORIENTED_EDGE('',*,*,#190,.F.);
#256=ORIENTED_EDGE('',*,*,#175,.T.);
#257=ORIENTED_EDGE('',*,*,#179,.T.);
#258=ORIENTED_EDGE('',*,*,#181,.T.);
#259=ORIENTED_EDGE('',*,*,#183,.T.);
#260=ORIENTED_EDGE('',*,*,#189,.F.);
#261=ORIENTED_EDGE('',*,*,#196,.T.);
#262=ORIENTED_EDGE('',*,*,#194,.T.);
#263=ORIENTED_EDGE('',*,*,#188,.F.);
#264=ORIENTED_EDGE('',*,*,#192,.F.);
#265=ORIENTED_EDGE('',*,*,#195,.F.);
#266=ORIENTED_EDGE('',*,*,#196,.F.);
#267=ORIENTED_EDGE('',*,*,#163,.T.);
#268=ORIENTED_EDGE('',*,*,#166,.T.);
#269=CYLINDRICAL_SURFACE('',#301,0.999999999999996);
#270=CYLINDRICAL_SURFACE('',#304,0.999999999999996);
#271=CYLINDRICAL_SURFACE('',#307,0.999999999999996);
#272=CYLINDRICAL_SURFACE('',#310,0.999999999999996);
#273=ADVANCED_FACE('',(#35),#269,.F.);
#274=ADVANCED_FACE('',(#36),#270,.F.);
#275=ADVANCED_FACE('',(#37),#271,.F.);
#276=ADVANCED_FACE('',(#38),#272,.F.);
#277=ADVANCED_FACE('',(#39,#15,#16),#25,.F.);
#278=ADVANCED_FACE('',(#40,#17,#18),#26,.F.);
#279=ADVANCED_FACE('',(#41),#27,.F.);
#280=ADVANCED_FACE('',(#42),#28,.F.);
#281=ADVANCED_FACE('',(#43,#19),#29,.T.);
#282=ADVANCED_FACE('',(#44),#30,.T.);
#283=ADVANCED_FACE('',(#45,#20,#21),#31,.T.);
#284=ADVANCED_FACE('',(#46,#22),#32,.T.);
#285=ADVANCED_FACE('',(#47),#33,.T.);
#286=ADVANCED_FACE('',(#48,#23,#24),#34,.F.);
#287=CLOSED_SHELL('',(#273,#274,#275,#276,#277,#278,#279,#280,#281,#282,
#283,#284,#285,#286));
#288=DERIVED_UNIT_ELEMENT(#290,1.);
#289=DERIVED_UNIT_ELEMENT(#477,-3.);
#290=(
MASS_UNIT()
NAMED_UNIT(*)
SI_UNIT(.KILO.,.GRAM.)
);
#291=DERIVED_UNIT((#288,#289));
#292=MEASURE_REPRESENTATION_ITEM('density measure',
POSITIVE_RATIO_MEASURE(7850.),#291);
#293=PROPERTY_DEFINITION_REPRESENTATION(#298,#295);
#294=PROPERTY_DEFINITION_REPRESENTATION(#299,#296);
#295=REPRESENTATION('material name',(#297),#474);
#296=REPRESENTATION('density',(#292),#474);
#297=DESCRIPTIVE_REPRESENTATION_ITEM('Stahl','Stahl');
#298=PROPERTY_DEFINITION('material property','material name',#484);
#299=PROPERTY_DEFINITION('material property','density of part',#484);
#300=AXIS2_PLACEMENT_3D('',#397,#323,#324);
#301=AXIS2_PLACEMENT_3D('',#398,#325,#326);
#302=AXIS2_PLACEMENT_3D('',#400,#327,#328);
#303=AXIS2_PLACEMENT_3D('',#403,#330,#331);
#304=AXIS2_PLACEMENT_3D('',#404,#332,#333);
#305=AXIS2_PLACEMENT_3D('',#406,#334,#335);
#306=AXIS2_PLACEMENT_3D('',#409,#337,#338);
#307=AXIS2_PLACEMENT_3D('',#410,#339,#340);
#308=AXIS2_PLACEMENT_3D('',#412,#341,#342);
#309=AXIS2_PLACEMENT_3D('',#415,#344,#345);
#310=AXIS2_PLACEMENT_3D('',#416,#346,#347);
#311=AXIS2_PLACEMENT_3D('',#418,#348,#349);
#312=AXIS2_PLACEMENT_3D('',#421,#351,#352);
#313=AXIS2_PLACEMENT_3D('',#422,#353,#354);
#314=AXIS2_PLACEMENT_3D('',#431,#359,#360);
#315=AXIS2_PLACEMENT_3D('',#437,#364,#365);
#316=AXIS2_PLACEMENT_3D('',#440,#368,#369);
#317=AXIS2_PLACEMENT_3D('',#449,#374,#375);
#318=AXIS2_PLACEMENT_3D('',#457,#380,#381);
#319=AXIS2_PLACEMENT_3D('',#461,#384,#385);
#320=AXIS2_PLACEMENT_3D('',#465,#388,#389);
#321=AXIS2_PLACEMENT_3D('',#469,#392,#393);
#322=AXIS2_PLACEMENT_3D('',#471,#395,#396);
#323=DIRECTION('axis',(0.,0.,1.));
#324=DIRECTION('refdir',(1.,0.,0.));
#325=DIRECTION('center_axis',(0.,-1.,0.));
#326=DIRECTION('ref_axis',(-1.,0.,0.));
#327=DIRECTION('center_axis',(0.,-1.,-2.59081782472679E-16));
#328=DIRECTION('ref_axis',(-1.,0.,0.));
#329=DIRECTION('',(0.,-1.,0.));
#330=DIRECTION('center_axis',(0.,1.,0.));
#331=DIRECTION('ref_axis',(-1.,0.,0.));
#332=DIRECTION('center_axis',(0.,-1.,0.));
#333=DIRECTION('ref_axis',(-1.,0.,0.));
#334=DIRECTION('center_axis',(0.,-1.,-2.59081782472679E-16));
#335=DIRECTION('ref_axis',(-1.,0.,0.));
#336=DIRECTION('',(0.,-1.,0.));
#337=DIRECTION('center_axis',(0.,1.,0.));
#338=DIRECTION('ref_axis',(-1.,0.,0.));
#339=DIRECTION('center_axis',(0.,0.,-1.));
#340=DIRECTION('ref_axis',(-1.,0.,0.));
#341=DIRECTION('center_axis',(0.,0.,-1.));
#342=DIRECTION('ref_axis',(-1.,0.,0.));
#343=DIRECTION('',(0.,0.,-1.));
#344=DIRECTION('center_axis',(0.,0.,1.));
#345=DIRECTION('ref_axis',(-1.,0.,0.));
#346=DIRECTION('center_axis',(0.,0.,-1.));
#347=DIRECTION('ref_axis',(-1.,0.,0.));
#348=DIRECTION('center_axis',(0.,0.,-1.));
#349=DIRECTION('ref_axis',(-1.,0.,0.));
#350=DIRECTION('',(0.,0.,-1.));
#351=DIRECTION('center_axis',(0.,0.,1.));
#352=DIRECTION('ref_axis',(-1.,0.,0.));
#353=DIRECTION('center_axis',(0.,0.,1.));
#354=DIRECTION('ref_axis',(0.,1.,0.));
#355=DIRECTION('',(0.,1.,0.));
#356=DIRECTION('',(-1.,0.,0.));
#357=DIRECTION('',(0.,-1.,0.));
#358=DIRECTION('',(-1.,0.,0.));
#359=DIRECTION('center_axis',(0.,-1.,-2.59081782472679E-16));
#360=DIRECTION('ref_axis',(0.,-2.59081782472679E-16,1.));
#361=DIRECTION('',(0.,-2.59081782472679E-16,1.));
#362=DIRECTION('',(-1.,0.,0.));
#363=DIRECTION('',(0.,2.59081782472679E-16,-1.));
#364=DIRECTION('center_axis',(0.,0.431794997855575,-0.901971773298313));
#365=DIRECTION('ref_axis',(0.,-0.901971773298313,-0.431794997855575));
#366=DIRECTION('',(0.,-0.901971773298313,-0.431794997855575));
#367=DIRECTION('',(0.,0.901971773298313,0.431794997855575));
#368=DIRECTION('center_axis',(0.,-0.431794997855576,0.901971773298313));
#369=DIRECTION('ref_axis',(0.,0.901971773298313,0.431794997855576));
#370=DIRECTION('',(0.,0.901971773298313,0.431794997855576));
#371=DIRECTION('',(1.,0.,0.));
#372=DIRECTION('',(0.,-0.901971773298313,-0.431794997855576));
#373=DIRECTION('',(-1.,0.,0.));
#374=DIRECTION('center_axis',(1.,0.,0.));
#375=DIRECTION('ref_axis',(0.,0.,-1.));
#376=DIRECTION('',(0.,0.,-1.));
#377=DIRECTION('',(0.,1.,0.));
#378=DIRECTION('',(0.,0.,-1.));
#379=DIRECTION('',(0.,1.,0.));
#380=DIRECTION('center_axis',(0.,1.,0.));
#381=DIRECTION('ref_axis',(0.,0.,1.));
#382=DIRECTION('',(0.,0.,1.));
#383=DIRECTION('',(1.,0.,0.));
#384=DIRECTION('center_axis',(0.,0.,1.));
#385=DIRECTION('ref_axis',(1.,0.,0.));
#386=DIRECTION('',(1.,0.,0.));
#387=DIRECTION('',(0.,1.,0.));
#388=DIRECTION('center_axis',(-1.,0.,0.));
#389=DIRECTION('ref_axis',(0.,0.,1.));
#390=DIRECTION('',(0.,1.,0.));
#391=DIRECTION('',(0.,0.,1.));
#392=DIRECTION('center_axis',(0.,0.,-1.));
#393=DIRECTION('ref_axis',(-1.,0.,0.));
#394=DIRECTION('',(-1.,0.,0.));
#395=DIRECTION('center_axis',(0.,1.,0.));
#396=DIRECTION('ref_axis',(-1.,0.,0.));
#397=CARTESIAN_POINT('',(0.,0.,0.));
#398=CARTESIAN_POINT('Origin',(76.5,77.,24.));
#399=CARTESIAN_POINT('',(77.5,77.,24.));
#400=CARTESIAN_POINT('Origin',(76.5,77.,24.));
#401=CARTESIAN_POINT('',(77.5,70.,24.));
#402=CARTESIAN_POINT('',(77.5,77.,24.));
#403=CARTESIAN_POINT('Origin',(76.5,70.,24.));
#404=CARTESIAN_POINT('Origin',(76.5,77.,36.));
#405=CARTESIAN_POINT('',(77.5,77.,36.));
#406=CARTESIAN_POINT('Origin',(76.5,77.,36.));
#407=CARTESIAN_POINT('',(77.5,70.,36.));
#408=CARTESIAN_POINT('',(77.5,77.,36.));
#409=CARTESIAN_POINT('Origin',(76.5,70.,36.));
#410=CARTESIAN_POINT('Origin',(76.5,135.,55.));
#411=CARTESIAN_POINT('',(77.5,135.,50.));
#412=CARTESIAN_POINT('Origin',(76.5,135.,50.));
#413=CARTESIAN_POINT('',(77.5,135.,43.));
#414=CARTESIAN_POINT('',(77.5,135.,55.));
#415=CARTESIAN_POINT('Origin',(76.5,135.,43.));
#416=CARTESIAN_POINT('Origin',(76.5,87.,55.));
#417=CARTESIAN_POINT('',(77.5,87.,50.));
#418=CARTESIAN_POINT('Origin',(76.5,87.,50.));
#419=CARTESIAN_POINT('',(77.5,87.,43.));
#420=CARTESIAN_POINT('',(77.5,87.,55.));
#421=CARTESIAN_POINT('Origin',(76.5,87.,43.));
#422=CARTESIAN_POINT('Origin',(80.,77.,43.));
#423=CARTESIAN_POINT('',(80.,77.,43.));
#424=CARTESIAN_POINT('',(80.,148.610825529893,43.));
#425=CARTESIAN_POINT('',(80.,73.5,43.));
#426=CARTESIAN_POINT('',(73.,77.,43.));
#427=CARTESIAN_POINT('',(80.,77.,43.));
#428=CARTESIAN_POINT('',(73.,148.610825529893,43.));
#429=CARTESIAN_POINT('',(73.,73.5,43.));
#430=CARTESIAN_POINT('',(80.,148.610825529893,43.));
#431=CARTESIAN_POINT('Origin',(80.,77.,8.71822182079571));
#432=CARTESIAN_POINT('',(80.,77.,8.71822182079571));
#433=CARTESIAN_POINT('',(80.,77.,29.3591109103979));
#434=CARTESIAN_POINT('',(73.,77.,8.71822182079571));
#435=CARTESIAN_POINT('',(80.,77.,8.71822182079571));
#436=CARTESIAN_POINT('',(73.,77.,4.35911091039786));
#437=CARTESIAN_POINT('Origin',(80.,148.610825529893,43.));
#438=CARTESIAN_POINT('',(80.,117.996920070813,28.3444069610787));
#439=CARTESIAN_POINT('',(73.,108.260247572885,23.6832339567513));
#440=CARTESIAN_POINT('Origin',(80.,75.,0.));
#441=CARTESIAN_POINT('',(80.,75.,0.));
#442=CARTESIAN_POINT('',(80.,169.,45.));
#443=CARTESIAN_POINT('',(80.,82.7027897983611,3.68750575453457));
#444=CARTESIAN_POINT('',(73.,75.,0.));
#445=CARTESIAN_POINT('',(80.,75.,0.));
#446=CARTESIAN_POINT('',(73.,169.,45.));
#447=CARTESIAN_POINT('',(73.,72.9661173004327,-0.973667249792837));
#448=CARTESIAN_POINT('',(78.25,169.,45.));
#449=CARTESIAN_POINT('Origin',(80.,70.,50.));
#450=CARTESIAN_POINT('',(80.,169.,50.));
#451=CARTESIAN_POINT('',(80.,169.,50.));
#452=CARTESIAN_POINT('',(80.,70.,50.));
#453=CARTESIAN_POINT('',(80.,70.,50.));
#454=CARTESIAN_POINT('',(80.,70.,0.));
#455=CARTESIAN_POINT('',(80.,70.,50.));
#456=CARTESIAN_POINT('',(80.,70.,0.));
#457=CARTESIAN_POINT('Origin',(76.5,169.,25.));
#458=CARTESIAN_POINT('',(73.,169.,50.));
#459=CARTESIAN_POINT('',(73.,169.,0.));
#460=CARTESIAN_POINT('',(73.,169.,50.));
#461=CARTESIAN_POINT('Origin',(73.,70.,50.));
#462=CARTESIAN_POINT('',(73.,70.,50.));
#463=CARTESIAN_POINT('',(73.,70.,50.));
#464=CARTESIAN_POINT('',(73.,70.,50.));
#465=CARTESIAN_POINT('Origin',(73.,70.,0.));
#466=CARTESIAN_POINT('',(73.,70.,0.));
#467=CARTESIAN_POINT('',(73.,70.,0.));
#468=CARTESIAN_POINT('',(73.,70.,0.));
#469=CARTESIAN_POINT('Origin',(80.,70.,0.));
#470=CARTESIAN_POINT('',(80.,70.,0.));
#471=CARTESIAN_POINT('Origin',(76.5,70.,25.));
#472=UNCERTAINTY_MEASURE_WITH_UNIT(LENGTH_MEASURE(0.01),#476,
'DISTANCE_ACCURACY_VALUE',
'Maximum model space distance between geometric entities at asserted c
onnectivities');
#473=UNCERTAINTY_MEASURE_WITH_UNIT(LENGTH_MEASURE(0.01),#476,
'DISTANCE_ACCURACY_VALUE',
'Maximum model space distance between geometric entities at asserted c
onnectivities');
#474=(
GEOMETRIC_REPRESENTATION_CONTEXT(3)
GLOBAL_UNCERTAINTY_ASSIGNED_CONTEXT((#472))
GLOBAL_UNIT_ASSIGNED_CONTEXT((#476,#478,#479))
REPRESENTATION_CONTEXT('','3D')
);
#475=(
GEOMETRIC_REPRESENTATION_CONTEXT(3)
GLOBAL_UNCERTAINTY_ASSIGNED_CONTEXT((#473))
GLOBAL_UNIT_ASSIGNED_CONTEXT((#476,#478,#479))
REPRESENTATION_CONTEXT('','3D')
);
#476=(
LENGTH_UNIT()
NAMED_UNIT(*)
SI_UNIT(.MILLI.,.METRE.)
);
#477=(
LENGTH_UNIT()
NAMED_UNIT(*)
SI_UNIT($,.METRE.)
);
#478=(
NAMED_UNIT(*)
PLANE_ANGLE_UNIT()
SI_UNIT($,.RADIAN.)
);
#479=(
NAMED_UNIT(*)
SI_UNIT($,.STERADIAN.)
SOLID_ANGLE_UNIT()
);
#480=SHAPE_DEFINITION_REPRESENTATION(#481,#482);
#481=PRODUCT_DEFINITION_SHAPE('',$,#484);
#482=SHAPE_REPRESENTATION('',(#300),#474);
#483=PRODUCT_DEFINITION_CONTEXT('part definition',#488,'design');
#484=PRODUCT_DEFINITION('Haltedreieck','Haltedreieck',#485,#483);
#485=PRODUCT_DEFINITION_FORMATION('',$,#490);
#486=PRODUCT_RELATED_PRODUCT_CATEGORY('Haltedreieck','Haltedreieck',(#490));
#487=APPLICATION_PROTOCOL_DEFINITION('international standard',
'automotive_design',2009,#488);
#488=APPLICATION_CONTEXT(
'Core Data for Automotive Mechanical Design Process');
#489=PRODUCT_CONTEXT('part definition',#488,'mechanical');
#490=PRODUCT('Haltedreieck','Haltedreieck',$,(#489));
#491=PRESENTATION_STYLE_ASSIGNMENT((#493));
#492=PRESENTATION_STYLE_ASSIGNMENT((#494));
#493=SURFACE_STYLE_USAGE(.BOTH.,#495);
#494=SURFACE_STYLE_USAGE(.BOTH.,#496);
#495=SURFACE_SIDE_STYLE('',(#497));
#496=SURFACE_SIDE_STYLE('',(#498));
#497=SURFACE_STYLE_FILL_AREA(#499);
#498=SURFACE_STYLE_FILL_AREA(#500);
#499=FILL_AREA_STYLE('Stahl - satiniert',(#501));
#500=FILL_AREA_STYLE(
'EPX 150 - Hei\X\DFluftofen (mit Carbon-3D-Druckern M2, M3, L1)',(#502));
#501=FILL_AREA_STYLE_COLOUR('Stahl - satiniert',#503);
#502=FILL_AREA_STYLE_COLOUR(
'EPX 150 - Hei\X\DFluftofen (mit Carbon-3D-Druckern M2, M3, L1)',#504);
#503=COLOUR_RGB('Stahl - satiniert',0.627450980392157,0.627450980392157,
0.627450980392157);
#504=COLOUR_RGB(
'EPX 150 - Hei\X\DFluftofen (mit Carbon-3D-Druckern M2, M3, L1)',0.247058823529412,
0.247058823529412,0.247058823529412);
ENDSEC;
END-ISO-10303-21;
